999
dxfrw 0.6.3
  0
SECTION
  2
HEADER
  9
$ACADVER
  1
AC1021
  9
$DWGCODEPAGE
  3
ANSI_1252
  9
$INSBASE
 10
0
 20
0
 30
0
  9
$EXTMIN
 10
-11.75
 20
-160.1248853973319
 30
0
  9
$EXTMAX
 10
150.1248853973319
 20
35.08014354066986
 30
0
  9
$LIMMIN
 10
0
 20
0
  9
$LIMMAX
 10
420
 20
297
  9
$ORTHOMODE
 70
    0
  9
$REGENMODE
 70
    1
  9
$FILLMODE
 70
    1
  9
$QTEXTMODE
 70
    0
  9
$MIRRTEXT
 70
    0
  9
$LTSCALE
 40
1
  9
$ATTMODE
 70
    0
  9
$TEXTSIZE
 40
2.5
  9
$TRACEWID
 40
15.68
  9
$TEXTSTYLE
  7
STANDARD
  9
$CLAYER
  8
Dimensions
  9
$CELTYPE
  6
BYLAYER
  9
$CECOLOR
 62
  256
  9
$CELTSCALE
 40
1
  9
$DISPSILH
 70
    0
  9
$DIMSCALE
 40
1
  9
$DIMASZ
 40
0.75
  9
$DIMEXO
 40
0.25
  9
$DIMDLI
 40
3.75
  9
$DIMRND
 40
0
  9
$DIMDLE
 40
0
  9
$DIMEXE
 40
0.05
  9
$DIMTP
 40
0
  9
$DIMTM
 40
0
  9
$DIMTXT
 40
1.5
  9
$DIMCEN
 40
2.5
  9
$DIMTSZ
 40
0
  9
$DIMTOL
 70
    0
  9
$DIMLIM
 70
    0
  9
$DIMTIH
 70
    0
  9
$DIMTOH
 70
    0
  9
$DIMSE1
 70
    0
  9
$DIMSE2
 70
    0
  9
$DIMTAD
 70
    1
  9
$DIMZIN
 70
    8
  9
$DIMBLK
  1

  9
$DIMASO
 70
    1
  9
$DIMSHO
 70
    1
  9
$DIMPOST
  1

  9
$DIMAPOST
  1

  9
$DIMALT
 70
    0
  9
$DIMALTD
 70
    3
  9
$DIMALTF
 40
0.03937
  9
$DIMLFAC
 40
1
  9
$DIMTOFL
 70
    1
  9
$DIMTVP
 40
0
  9
$DIMTIX
 70
    0
  9
$DIMSOXD
 70
    0
  9
$DIMSAH
 70
    0
  9
$DIMBLK1
  1

  9
$DIMBLK2
  1

  9
$DIMSTYLE
  2
STANDARD
  9
$DIMCLRD
 70
    0
  9
$DIMCLRE
 70
    0
  9
$DIMCLRT
 70
    0
  9
$DIMTFAC
 40
1
  9
$DIMGAP
 40
0.25
  9
$DIMJUST
 70
    0
  9
$DIMSD1
 70
    0
  9
$DIMSD2
 70
    0
  9
$DIMTOLJ
 70
    0
  9
$DIMTZIN
 70
    8
  9
$DIMALTZ
 70
    0
  9
$DIMALTTZ
 70
    0
  9
$DIMUPT
 70
    0
  9
$DIMDEC
 70
    4
  9
$DIMTDEC
 70
    2
  9
$DIMALTU
 70
    2
  9
$DIMALTTD
 70
    3
  9
$DIMTXSTY
  7
standard
  9
$DIMAUNIT
 70
    0
  9
$DIMADEC
 70
    0
  9
$DIMALTRND
 40
0
  9
$DIMAZIN
 70
    0
  9
$DIMDSEP
 70
   44
  9
$DIMATFIT
 70
    3
  9
$DIMFRAC
 70
    0
  9
$DIMLDRBLK
  1
STANDARD
  9
$DIMLUNIT
 70
    4
  9
$DIMLWD
 70
   -2
  9
$DIMLWE
 70
   -2
  9
$DIMTMOVE
 70
    0
  9
$DIMFXL
 40
1
  9
$DIMFXLON
 70
    0
  9
$DIMJOGANG
 40
0.7854
  9
$DIMTFILL
 70
    0
  9
$DIMTFILLCLR
 70
    0
  9
$DIMARCSYM
 70
    0
  9
$DIMLTYPE
  6

  9
$DIMLTEX1
  6

  9
$DIMLTEX2
  6

  9
$LUNITS
 70
    2
  9
$LUPREC
 70
    4
  9
$SKETCHINC
 40
1
  9
$FILLETRAD
 40
0
  9
$AUNITS
 70
    0
  9
$AUPREC
 70
    2
  9
$MENU
  1
.
  9
$ELEVATION
 40
0
  9
$PELEVATION
 40
0
  9
$THICKNESS
 40
0
  9
$LIMCHECK
 70
    0
  9
$CHAMFERA
 40
0
  9
$CHAMFERB
 40
0
  9
$CHAMFERC
 40
0
  9
$CHAMFERD
 40
0
  9
$SKPOLY
 70
    0
  9
$USRTIMER
 70
    1
  9
$ANGBASE
 50
0
  9
$ANGDIR
 70
    0
  9
$PDMODE
 70
   34
  9
$PDSIZE
 40
0
  9
$PLINEWID
 40
0
  9
$SPLFRAME
 70
    0
  9
$SPLINETYPE
 70
    2
  9
$SPLINESEGS
 70
    8
  9
$HANDSEED
  5
20000
  9
$SURFTAB1
 70
    6
  9
$SURFTAB2
 70
    6
  9
$SURFTYPE
 70
    6
  9
$SURFU
 70
    6
  9
$SURFV
 70
    6
  9
$UCSBASE
  2

  9
$UCSNAME
  2

  9
$UCSORG
 10
0
 20
0
 30
0
  9
$UCSXDIR
 10
1
 20
0
 30
0
  9
$UCSYDIR
 10
0
 20
1
 30
0
  9
$UCSORTHOREF
  2

  9
$UCSORTHOVIEW
 70
    0
  9
$UCSORGTOP
 10
0
 20
0
 30
0
  9
$UCSORGBOTTOM
 10
0
 20
0
 30
0
  9
$UCSORGLEFT
 10
0
 20
0
 30
0
  9
$UCSORGRIGHT
 10
0
 20
0
 30
0
  9
$UCSORGFRONT
 10
0
 20
0
 30
0
  9
$UCSORGBACK
 10
0
 20
0
 30
0
  9
$PUCSBASE
  2

  9
$PUCSNAME
  2

  9
$PUCSORG
 10
0
 20
0
 30
0
  9
$PUCSXDIR
 10
1
 20
0
 30
0
  9
$PUCSYDIR
 10
0
 20
1
 30
0
  9
$PUCSORTHOREF
  2

  9
$PUCSORTHOVIEW
 70
    0
  9
$PUCSORGTOP
 10
0
 20
0
 30
0
  9
$PUCSORGBOTTOM
 10
0
 20
0
 30
0
  9
$PUCSORGLEFT
 10
0
 20
0
 30
0
  9
$PUCSORGRIGHT
 10
0
 20
0
 30
0
  9
$PUCSORGFRONT
 10
0
 20
0
 30
0
  9
$PUCSORGBACK
 10
0
 20
0
 30
0
  9
$USERI1
 70
    0
  9
$USERI2
 70
    0
  9
$USERI3
 70
    0
  9
$USERI4
 70
    0
  9
$USERI5
 70
    0
  9
$USERR1
 40
0
  9
$USERR2
 40
0
  9
$USERR3
 40
0
  9
$USERR4
 40
0
  9
$USERR5
 40
0
  9
$WORLDVIEW
 70
    1
  9
$SHADEDGE
 70
    3
  9
$SHADEDIF
 70
   70
  9
$TILEMODE
 70
    1
  9
$MAXACTVP
 70
   64
  9
$PINSBASE
 10
0
 20
0
 30
0
  9
$PLIMCHECK
 70
    0
  9
$PEXTMIN
 10
0
 20
0
 30
0
  9
$PEXTMAX
 10
0
 20
0
 30
0
  9
$GRIDMODE
 70
    1
  9
$SNAPSTYLE
 70
    0
  9
$GRIDUNIT
 10
0
 20
0
  9
$PLIMMIN
 10
0
 20
0
  9
$PLIMMAX
 10
1.9863054e-05
 20
2.80924e-05
  9
$UNITMODE
 70
    0
  9
$VISRETAIN
 70
    1
  9
$PLINEGEN
 70
    0
  9
$PSLTSCALE
 70
    1
  9
$TREEDEPTH
 70
 3020
  9
$CMLSTYLE
  2
Standard
  9
$CMLJUST
 70
    0
  9
$CMLSCALE
 40
20
  9
$PROXYGRAPHICS
 70
    1
  9
$MEASUREMENT
 70
    1
  9
$CELWEIGHT
370
   -1
  9
$ENDCAPS
280
    0
  9
$JOINSTYLE
280
    0
  9
$LWDISPLAY
290
    0
  9
$INSUNITS
 70
    1
  9
$HYPERLINKBASE
  1

  9
$STYLESHEET
  1

  9
$XEDIT
290
    1
  9
$CEPSNTYPE
380
    0
  9
$PSTYLEMODE
290
    1
  9
$EXTNAMES
290
    1
  9
$PSVPSCALE
 40
1
  9
$OLESTARTUP
290
    0
  9
$SORTENTS
280
  127
  9
$INDEXCTL
280
    0
  9
$HIDETEXT
280
    1
  9
$XCLIPFRAME
290
    0
  9
$HALOGAP
280
    0
  9
$OBSCOLOR
 70
  257
  9
$OBSLTYPE
280
    0
  9
$INTERSECTIONDISPLAY
280
    0
  9
$INTERSECTIONCOLOR
 70
  257
  9
$DIMASSOC
280
    1
  9
$PROJECTNAME
  1

  9
$CAMERADISPLAY
290
    0
  9
$LENSLENGTH
 40
50
  9
$CAMERAHEIGHT
 40
0
  9
$STEPSPERSEC
 40
2
  9
$STEPSIZE
 40
50
  9
$3DDWFPREC
 40
2
  9
$PSOLWIDTH
 40
5
  9
$PSOLHEIGHT
 40
80
  9
$LOFTANG1
 40
1.570796326794897
  9
$LOFTANG2
 40
1.570796326794897
  9
$LOFTMAG1
 40
0
  9
$LOFTMAG2
 40
0
  9
$LOFTPARAM
 70
    7
  9
$LOFTNORMALS
280
    1
  9
$LATITUDE
 40
1
  9
$LONGITUDE
 40
1
  9
$NORTHDIRECTION
 40
0
  9
$TIMEZONE
 70
-8000
  9
$LIGHTGLYPHDISPLAY
280
    1
  9
$TILEMODELIGHTSYNCH
280
    1
  9
$SOLIDHIST
280
    1
  9
$SHOWHIST
280
    1
  9
$DWFFRAME
280
    2
  9
$DGNFRAME
280
    0
  9
$REALWORLDSCALE
290
    1
  9
$INTERFERECOLOR
 62
    1
  9
$CSHADOW
280
    0
  9
$SHADOWPLANELOCATION
 40
0
  0
ENDSEC
  0
SECTION
  2
CLASSES
  0
ENDSEC
  0
SECTION
  2
TABLES
  0
TABLE
  2
VPORT
  5
8
330
0
100
AcDbSymbolTable
 70
    1
  0
VPORT
  5
31
330
2
100
AcDbSymbolTableRecord
100
AcDbViewportTableRecord
  2
*ACTIVE
 70
    0
 10
0
 20
0
 11
1
 21
1
 12
154.3588355787177
 22
19.12274970003935
 13
0
 23
0
 14
10
 24
10
 15
10
 25
10
 16
0
 26
0
 36
1
 17
0
 27
0
 37
0
 40
201.3243088420143
 41
2.376899696048632
 42
50
 43
0
 44
0
 50
0
 51
0
 71
    0
 72
  100
 73
    1
 74
    3
 75
    0
 76
    1
 77
    0
 78
    0
281
    0
 65
    1
110
0
120
0
130
0
111
1
121
0
131
0
112
0
122
1
132
0
 79
    0
146
0
348
10020
 60
    7
 61
    5
292
1
282
    1
141
0
142
0
 63
  250
421
3358443
  0
ENDTAB
  0
TABLE
  2
LTYPE
  5
5
330
0
100
AcDbSymbolTable
 70
    4
  0
LTYPE
  5
14
330
5
100
AcDbSymbolTableRecord
100
AcDbLinetypeTableRecord
  2
ByBlock
 70
    0
  3

 72
   65
 73
    0
 40
0
  0
LTYPE
  5
15
330
5
100
AcDbSymbolTableRecord
100
AcDbLinetypeTableRecord
  2
ByLayer
 70
    0
  3

 72
   65
 73
    0
 40
0
  0
LTYPE
  5
16
330
5
100
AcDbSymbolTableRecord
100
AcDbLinetypeTableRecord
  2
Continuous
 70
    0
  3
Solid line
 72
   65
 73
    0
 40
0
  0
LTYPE
  5
32
330
5
100
AcDbSymbolTableRecord
100
AcDbLinetypeTableRecord
  2
DOT
 70
    0
  3
Dot . . . . . . . . . . . . . . . . . . . . . .
 72
   65
 73
    2
 40
6.35
 49
0
 74
    0
 49
-6.35
 74
    0
  0
LTYPE
  5
33
330
5
100
AcDbSymbolTableRecord
100
AcDbLinetypeTableRecord
  2
DOTTINY
 70
    0
  3
Dot (.15x) .....................................
 72
   65
 73
    2
 40
0.9525
 49
0
 74
    0
 49
-0.9525
 74
    0
  0
LTYPE
  5
34
330
5
100
AcDbSymbolTableRecord
100
AcDbLinetypeTableRecord
  2
DOT2
 70
    0
  3
Dot (.5x) .....................................
 72
   65
 73
    2
 40
3.175
 49
0
 74
    0
 49
-3.175
 74
    0
  0
LTYPE
  5
35
330
5
100
AcDbSymbolTableRecord
100
AcDbLinetypeTableRecord
  2
DOTX2
 70
    0
  3
Dot (2x) .  .  .  .  .  .  .  .  .  .  .  .  .
 72
   65
 73
    2
 40
12.7
 49
0
 74
    0
 49
-12.7
 74
    0
  0
LTYPE
  5
36
330
5
100
AcDbSymbolTableRecord
100
AcDbLinetypeTableRecord
  2
DASHED
 70
    0
  3
Dashed _ _ _ _ _ _ _ _ _ _ _ _ _ _ _ _ _
 72
   65
 73
    2
 40
19.05
 49
12.7
 74
    0
 49
-6.35
 74
    0
  0
LTYPE
  5
37
330
5
100
AcDbSymbolTableRecord
100
AcDbLinetypeTableRecord
  2
DASHEDTINY
 70
    0
  3
Dashed (.15x) _ _ _ _ _ _ _ _ _ _ _ _ _ _ _ _ _
 72
   65
 73
    2
 40
2.8575
 49
1.905
 74
    0
 49
-0.9525
 74
    0
  0
LTYPE
  5
38
330
5
100
AcDbSymbolTableRecord
100
AcDbLinetypeTableRecord
  2
DASHED2
 70
    0
  3
Dashed (.5x) _ _ _ _ _ _ _ _ _ _ _ _ _ _ _ _ _
 72
   65
 73
    2
 40
9.524999999999999
 49
6.35
 74
    0
 49
-3.175
 74
    0
  0
LTYPE
  5
39
330
5
100
AcDbSymbolTableRecord
100
AcDbLinetypeTableRecord
  2
DASHEDX2
 70
    0
  3
Dashed (2x) ____  ____  ____  ____  ____  ___
 72
   65
 73
    2
 40
38.09999999999999
 49
25.4
 74
    0
 49
-12.7
 74
    0
  0
LTYPE
  5
3A
330
5
100
AcDbSymbolTableRecord
100
AcDbLinetypeTableRecord
  2
DASHDOT
 70
    0
  3
Dash dot __ . __ . __ . __ . __ . __ . __ . __
 72
   65
 73
    4
 40
25.4
 49
12.7
 74
    0
 49
-6.35
 74
    0
 49
0
 74
    0
 49
-6.35
 74
    0
  0
LTYPE
  5
3B
330
5
100
AcDbSymbolTableRecord
100
AcDbLinetypeTableRecord
  2
DASHDOTTINY
 70
    0
  3
Dash dot (.15x) _._._._._._._._._._._._._._._.
 72
   65
 73
    4
 40
3.81
 49
1.905
 74
    0
 49
-0.9525
 74
    0
 49
0
 74
    0
 49
-0.9525
 74
    0
  0
LTYPE
  5
3C
330
5
100
AcDbSymbolTableRecord
100
AcDbLinetypeTableRecord
  2
DASHDOT2
 70
    0
  3
Dash dot (.5x) _._._._._._._._._._._._._._._.
 72
   65
 73
    4
 40
12.7
 49
6.35
 74
    0
 49
-3.175
 74
    0
 49
0
 74
    0
 49
-3.175
 74
    0
  0
LTYPE
  5
3D
330
5
100
AcDbSymbolTableRecord
100
AcDbLinetypeTableRecord
  2
DASHDOTX2
 70
    0
  3
Dash dot (2x) ____  .  ____  .  ____  .  ___
 72
   65
 73
    4
 40
50.8
 49
25.4
 74
    0
 49
-12.7
 74
    0
 49
0
 74
    0
 49
-12.7
 74
    0
  0
LTYPE
  5
3E
330
5
100
AcDbSymbolTableRecord
100
AcDbLinetypeTableRecord
  2
DIVIDE
 70
    0
  3
Divide ____ . . ____ . . ____ . . ____ . . ____
 72
   65
 73
    6
 40
31.75
 49
12.7
 74
    0
 49
-6.35
 74
    0
 49
0
 74
    0
 49
-6.35
 74
    0
 49
0
 74
    0
 49
-6.35
 74
    0
  0
LTYPE
  5
3F
330
5
100
AcDbSymbolTableRecord
100
AcDbLinetypeTableRecord
  2
DIVIDETINY
 70
    0
  3
Divide (.15x) __..__..__..__..__..__..__..__.._
 72
   65
 73
    6
 40
4.7625
 49
1.905
 74
    0
 49
-0.9525
 74
    0
 49
0
 74
    0
 49
-0.9525
 74
    0
 49
0
 74
    0
 49
-0.9525
 74
    0
  0
LTYPE
  5
40
330
5
100
AcDbSymbolTableRecord
100
AcDbLinetypeTableRecord
  2
DIVIDE2
 70
    0
  3
Divide (.5x) __..__..__..__..__..__..__..__.._
 72
   65
 73
    6
 40
15.875
 49
6.35
 74
    0
 49
-3.175
 74
    0
 49
0
 74
    0
 49
-3.175
 74
    0
 49
0
 74
    0
 49
-3.175
 74
    0
  0
LTYPE
  5
41
330
5
100
AcDbSymbolTableRecord
100
AcDbLinetypeTableRecord
  2
DIVIDEX2
 70
    0
  3
Divide (2x) ________  .  .  ________  .  .  _
 72
   65
 73
    6
 40
63.5
 49
25.4
 74
    0
 49
-12.7
 74
    0
 49
0
 74
    0
 49
-12.7
 74
    0
 49
0
 74
    0
 49
-12.7
 74
    0
  0
LTYPE
  5
42
330
5
100
AcDbSymbolTableRecord
100
AcDbLinetypeTableRecord
  2
BORDER
 70
    0
  3
Border __ __ . __ __ . __ __ . __ __ . __ __ .
 72
   65
 73
    6
 40
44.45
 49
12.7
 74
    0
 49
-6.35
 74
    0
 49
12.7
 74
    0
 49
-6.35
 74
    0
 49
0
 74
    0
 49
-6.35
 74
    0
  0
LTYPE
  5
43
330
5
100
AcDbSymbolTableRecord
100
AcDbLinetypeTableRecord
  2
BORDERTINY
 70
    0
  3
Border (.15x) __.__.__.__.__.__.__.__.__.__.__.
 72
   65
 73
    6
 40
6.6675
 49
1.905
 74
    0
 49
-0.9525
 74
    0
 49
1.905
 74
    0
 49
-0.9525
 74
    0
 49
0
 74
    0
 49
-0.9525
 74
    0
  0
LTYPE
  5
44
330
5
100
AcDbSymbolTableRecord
100
AcDbLinetypeTableRecord
  2
BORDER2
 70
    0
  3
Border (.5x) __.__.__.__.__.__.__.__.__.__.__.
 72
   65
 73
    6
 40
22.225
 49
6.35
 74
    0
 49
-3.175
 74
    0
 49
6.35
 74
    0
 49
-3.175
 74
    0
 49
0
 74
    0
 49
-3.175
 74
    0
  0
LTYPE
  5
45
330
5
100
AcDbSymbolTableRecord
100
AcDbLinetypeTableRecord
  2
BORDERX2
 70
    0
  3
Border (2x) ____  ____  .  ____  ____  .  ___
 72
   65
 73
    6
 40
88.89999999999999
 49
25.4
 74
    0
 49
-12.7
 74
    0
 49
25.4
 74
    0
 49
-12.7
 74
    0
 49
0
 74
    0
 49
-12.7
 74
    0
  0
LTYPE
  5
46
330
5
100
AcDbSymbolTableRecord
100
AcDbLinetypeTableRecord
  2
CENTER
 70
    0
  3
Center ____ _ ____ _ ____ _ ____ _ ____ _ ____
 72
   65
 73
    4
 40
50.8
 49
31.75
 74
    0
 49
-6.35
 74
    0
 49
6.35
 74
    0
 49
-6.35
 74
    0
  0
LTYPE
  5
47
330
5
100
AcDbSymbolTableRecord
100
AcDbLinetypeTableRecord
  2
CENTERTINY
 70
    0
  3
Center (.15x) ___ _ ___ _ ___ _ ___ _ ___ _ ___
 72
   65
 73
    4
 40
7.619999999999999
 49
4.7625
 74
    0
 49
-0.9525
 74
    0
 49
0.9525
 74
    0
 49
-0.9525
 74
    0
  0
LTYPE
  5
48
330
5
100
AcDbSymbolTableRecord
100
AcDbLinetypeTableRecord
  2
CENTER2
 70
    0
  3
Center (.5x) ___ _ ___ _ ___ _ ___ _ ___ _ ___
 72
   65
 73
    4
 40
28.575
 49
19.05
 74
    0
 49
-3.175
 74
    0
 49
3.175
 74
    0
 49
-3.175
 74
    0
  0
LTYPE
  5
49
330
5
100
AcDbSymbolTableRecord
100
AcDbLinetypeTableRecord
  2
CENTERX2
 70
    0
  3
Center (2x) ________  __  ________  __  _____
 72
   65
 73
    4
 40
101.6
 49
63.5
 74
    0
 49
-12.7
 74
    0
 49
12.7
 74
    0
 49
-12.7
 74
    0
  0
ENDTAB
  0
TABLE
  2
LAYER
  5
2
330
0
100
AcDbSymbolTable
 70
    1
  0
LAYER
  5
10
330
2
100
AcDbSymbolTableRecord
100
AcDbLayerTableRecord
  2
0
 70
    1
 62
    7
  6
CONTINUOUS
370
    0
390
F
  0
LAYER
  5
4A
330
2
100
AcDbSymbolTableRecord
100
AcDbLayerTableRecord
  2
Dimensions
 70
    0
 62
    3
  6
CONTINUOUS
370
    0
390
F
  0
LAYER
  5
4B
330
2
100
AcDbSymbolTableRecord
100
AcDbLayerTableRecord
  2
buckets
 70
    1
 62
    2
  6
CONTINUOUS
370
    0
390
F
  0
LAYER
  5
4C
330
2
100
AcDbSymbolTableRecord
100
AcDbLayerTableRecord
  2
construction
 70
    1
 62
    1
  6
DASHDOT2
370
    0
390
F
  0
LAYER
  5
4D
330
2
100
AcDbSymbolTableRecord
100
AcDbLayerTableRecord
  2
framing
 70
    0
 62
    4
  6
CONTINUOUS
370
    0
390
F
  0
LAYER
  5
4E
330
2
100
AcDbSymbolTableRecord
100
AcDbLayerTableRecord
  2
plumbing
 70
    1
 62
    7
  6
CONTINUOUS
370
    0
390
F
  0
ENDTAB
  0
TABLE
  2
STYLE
  5
3
330
0
100
AcDbSymbolTable
 70
    3
  0
STYLE
  5
4F
330
2
100
AcDbSymbolTableRecord
100
AcDbTextStyleTableRecord
  2
standard
 70
    0
 40
0
 41
1
 50
0
 71
    0
 42
1
  3
standard
  4

  0
ENDTAB
  0
TABLE
  2
VIEW
  5
6
330
0
100
AcDbSymbolTable
 70
    0
  0
ENDTAB
  0
TABLE
  2
UCS
  5
7
330
0
100
AcDbSymbolTable
 70
    0
  0
ENDTAB
  0
TABLE
  2
APPID
  5
9
330
0
100
AcDbSymbolTable
 70
    1
  0
APPID
  5
12
330
9
100
AcDbSymbolTableRecord
100
AcDbRegAppTableRecord
  2
ACAD
 70
    0
  0
APPID
  5
50
330
9
100
AcDbSymbolTableRecord
100
AcDbRegAppTableRecord
  2
LibreCad
 70
    0
  0
ENDTAB
  0
TABLE
  2
DIMSTYLE
  5
A
330
0
100
AcDbSymbolTable
 70
    1
100
AcDbDimStyleTable
 71
    1
  0
DIMSTYLE
105
51
330
A
100
AcDbSymbolTableRecord
100
AcDbDimStyleTableRecord
  2
Standard
 70
    0
 40
1
 41
0.75
 42
0.25
 43
0.38
 44
0.05
 45
0
 46
0
 47
0
 48
0
 49
1
140
1.5
141
0.09
142
0
143
25.4
144
1
145
0
146
1
147
0.25
148
0
 71
    0
 72
    0
 73
    0
 74
    1
 75
    0
 76
    0
 77
    0
 78
    8
 79
    0
170
    0
171
    2
172
    0
173
    0
174
    0
175
    0
176
    0
177
    0
178
    0
179
    0
271
    4
272
    4
273
    2
274
    2
275
    0
276
    0
277
    4
278
   44
279
    0
280
    0
281
    0
282
    0
283
    1
284
    0
285
    0
286
    0
288
    0
289
    3
340
standard
341

371
   -2
372
   -2
  0
ENDTAB
  0
TABLE
  2
BLOCK_RECORD
  5
1
330
0
100
AcDbSymbolTable
 70
    2
  0
BLOCK_RECORD
  5
1F
330
1
100
AcDbSymbolTableRecord
100
AcDbBlockTableRecord
  2
*Model_Space
 70
    0
280
    1
281
    0
  0
BLOCK_RECORD
  5
1E
330
1
100
AcDbSymbolTableRecord
100
AcDbBlockTableRecord
  2
*Paper_Space
 70
    0
280
    1
281
    0
  0
BLOCK_RECORD
  5
52
330
1
100
AcDbSymbolTableRecord
100
AcDbBlockTableRecord
  2
*D1
 70
    0
280
    1
281
    0
  0
BLOCK_RECORD
  5
55
330
1
100
AcDbSymbolTableRecord
100
AcDbBlockTableRecord
  2
*D3
 70
    0
280
    1
281
    0
  0
BLOCK_RECORD
  5
58
330
1
100
AcDbSymbolTableRecord
100
AcDbBlockTableRecord
  2
*D8
 70
    0
280
    1
281
    0
  0
BLOCK_RECORD
  5
5B
330
1
100
AcDbSymbolTableRecord
100
AcDbBlockTableRecord
  2
*D9
 70
    0
280
    1
281
    0
  0
BLOCK_RECORD
  5
5E
330
1
100
AcDbSymbolTableRecord
100
AcDbBlockTableRecord
  2
*D12
 70
    0
280
    1
281
    0
  0
BLOCK_RECORD
  5
61
330
1
100
AcDbSymbolTableRecord
100
AcDbBlockTableRecord
  2
*D2
 70
    0
280
    1
281
    0
  0
BLOCK_RECORD
  5
64
330
1
100
AcDbSymbolTableRecord
100
AcDbBlockTableRecord
  2
*D5
 70
    0
280
    1
281
    0
  0
BLOCK_RECORD
  5
67
330
1
100
AcDbSymbolTableRecord
100
AcDbBlockTableRecord
  2
*D10
 70
    0
280
    1
281
    0
  0
BLOCK_RECORD
  5
6A
330
1
100
AcDbSymbolTableRecord
100
AcDbBlockTableRecord
  2
*D11
 70
    0
280
    1
281
    0
  0
BLOCK_RECORD
  5
6D
330
1
100
AcDbSymbolTableRecord
100
AcDbBlockTableRecord
  2
*D7
 70
    0
280
    1
281
    0
  0
BLOCK_RECORD
  5
70
330
1
100
AcDbSymbolTableRecord
100
AcDbBlockTableRecord
  2
*D6
 70
    0
280
    1
281
    0
  0
BLOCK_RECORD
  5
73
330
1
100
AcDbSymbolTableRecord
100
AcDbBlockTableRecord
  2
*D4
 70
    0
280
    1
281
    0
  0
ENDTAB
  0
ENDSEC
  0
SECTION
  2
BLOCKS
  0
BLOCK
  5
20
330
1F
100
AcDbEntity
  8
0
100
AcDbBlockBegin
  2
*Model_Space
 70
    0
 10
0
 20
0
 30
0
  3
*Model_Space
  1

  0
ENDBLK
  5
21
330
1F
100
AcDbEntity
  8
0
100
AcDbBlockEnd
  0
BLOCK
  5
1C
330
1B
100
AcDbEntity
  8
0
100
AcDbBlockBegin
  2
*Paper_Space
 70
    0
 10
0
 20
0
 30
0
  3
*Paper_Space
  1

  0
ENDBLK
  5
1D
330
1F
100
AcDbEntity
  8
0
100
AcDbBlockEnd
  0
BLOCK
  5
53
330
52
100
AcDbEntity
  8
0
100
AcDbBlockBegin
  2
*D1
 70
    1
 10
0
 20
0
  3
*D1
  1

  0
LINE
  5
76
100
AcDbEntity
  8
Dimensions
  6
ByBlock
 62
    0
370
   -2
100
AcDbLine
 10
105.570806714317
 20
-62.25
 11
105.570806714317
 21
-80.25
  0
SOLID
  5
77
100
AcDbEntity
  8
Dimensions
  6
ByBlock
 62
    0
370
   -2
100
AcDbTrace
 10
105.570806714317
 20
-62.25
 30
0
 11
105.6956921116489
 21
-63
 31
0
 12
105.4459213169851
 22
-63
 32
0
 13
105.4459213169851
 23
-63
 33
0
  0
SOLID
  5
78
100
AcDbEntity
  8
Dimensions
  6
ByBlock
 62
    0
370
   -2
100
AcDbTrace
 10
105.570806714317
 20
-80.25
 30
0
 11
105.4459213169851
 21
-79.5
 31
0
 12
105.6956921116489
 22
-79.5
 32
0
 13
105.6956921116489
 23
-79.5
 33
0
  0
MTEXT
  5
79
100
AcDbEntity
  8
Dimensions
  6
CONTINUOUS
 62
    0
370
   -2
100
AcDbMText
 10
104.570806714317
 20
-71.25
 30
0
 40
1.5
 41
4.416666666666759
 71
    5
 72
    1
  1
1'-6"
  7
standard
210
0
220
0
230
1
 50
90
 73
    2
 44
1
  0
LINE
  5
7A
100
AcDbEntity
  8
Dimensions
  6
ByBlock
 62
    0
370
   -2
100
AcDbLine
 10
107.25
 20
-62.25
 11
105.520806714317
 21
-62.25
  0
LINE
  5
7B
100
AcDbEntity
  8
Dimensions
  6
ByBlock
 62
    0
370
   -2
100
AcDbLine
 10
107.25
 20
-80.25
 11
105.520806714317
 21
-80.25
  0
ENDBLK
  5
54
330
52
100
AcDbEntity
  8
0
100
AcDbBlockEnd
  0
BLOCK
  5
56
330
55
100
AcDbEntity
  8
0
100
AcDbBlockBegin
  2
*D3
 70
    1
 10
0
 20
0
  3
*D3
  1

  0
LINE
  5
7C
100
AcDbEntity
  8
Dimensions
  6
ByBlock
 62
    0
370
   -2
100
AcDbLine
 10
-3.500000000000004
 20
-86.15003579620112
 11
23.49999999999999
 21
-86.15003579620112
  0
SOLID
  5
7D
100
AcDbEntity
  8
Dimensions
  6
ByBlock
 62
    0
370
   -2
100
AcDbTrace
 10
-3.500000000000004
 20
-86.15003579620112
 30
0
 11
-2.750000000000004
 21
-86.02515039886927
 31
0
 12
-2.750000000000004
 22
-86.27492119353298
 32
0
 13
-2.750000000000004
 23
-86.27492119353298
 33
0
  0
SOLID
  5
7E
100
AcDbEntity
  8
Dimensions
  6
ByBlock
 62
    0
370
   -2
100
AcDbTrace
 10
23.49999999999999
 20
-86.15003579620112
 30
0
 11
22.74999999999999
 21
-86.27492119353298
 31
0
 12
22.74999999999999
 22
-86.02515039886927
 32
0
 13
22.74999999999999
 23
-86.02515039886927
 33
0
  0
MTEXT
  5
7F
100
AcDbEntity
  8
Dimensions
  6
CONTINUOUS
 62
    0
370
   -2
100
AcDbMText
 10
9.999999999999993
 20
-85.15003579620112
 30
0
 40
1.5
 41
4.750000000000092
 71
    5
 72
    1
  1
2'-3"
  7
standard
210
0
220
0
230
1
 50
0
 73
    2
 44
1
  0
LINE
  5
80
100
AcDbEntity
  8
Dimensions
  6
ByBlock
 62
    0
370
   -2
100
AcDbLine
 10
-3.500000000000007
 20
-80.5
 11
-3.500000000000004
 21
-86.20003579620112
  0
LINE
  5
81
100
AcDbEntity
  8
Dimensions
  6
ByBlock
 62
    0
370
   -2
100
AcDbLine
 10
23.49999999999999
 20
-80.5
 11
23.49999999999999
 21
-86.20003579620112
  0
ENDBLK
  5
57
330
55
100
AcDbEntity
  8
0
100
AcDbBlockEnd
  0
BLOCK
  5
59
330
58
100
AcDbEntity
  8
0
100
AcDbBlockBegin
  2
*D8
 70
    1
 10
0
 20
0
  3
*D8
  1

  0
LINE
  5
82
100
AcDbEntity
  8
Dimensions
  6
ByBlock
 62
    0
370
   -2
100
AcDbLine
 10
150
 20
-15.25
 11
150
 21
-80.25
  0
SOLID
  5
83
100
AcDbEntity
  8
Dimensions
  6
ByBlock
 62
    0
370
   -2
100
AcDbTrace
 10
150
 20
-15.25
 30
0
 11
150.1248853973319
 21
-16
 31
0
 12
149.8751146026681
 22
-16
 32
0
 13
149.8751146026681
 23
-16
 33
0
  0
SOLID
  5
84
100
AcDbEntity
  8
Dimensions
  6
ByBlock
 62
    0
370
   -2
100
AcDbTrace
 10
150
 20
-80.25
 30
0
 11
149.8751146026681
 21
-79.5
 31
0
 12
150.1248853973319
 22
-79.5
 32
0
 13
150.1248853973319
 23
-79.5
 33
0
  0
MTEXT
  5
85
100
AcDbEntity
  8
Dimensions
  6
CONTINUOUS
 62
    0
370
   -2
100
AcDbMText
 10
149
 20
-47.75
 30
0
 40
1.5
 41
4.750000000000186
 71
    5
 72
    1
  1
5'-5"
  7
standard
210
0
220
0
230
1
 50
90
 73
    2
 44
1
  0
LINE
  5
86
100
AcDbEntity
  8
Dimensions
  6
ByBlock
 62
    0
370
   -2
100
AcDbLine
 10
140.75
 20
-15.25
 11
150.05
 21
-15.25
  0
LINE
  5
87
100
AcDbEntity
  8
Dimensions
  6
ByBlock
 62
    0
370
   -2
100
AcDbLine
 10
140.75
 20
-80.25
 11
150.05
 21
-80.25
  0
ENDBLK
  5
5A
330
58
100
AcDbEntity
  8
0
100
AcDbBlockEnd
  0
BLOCK
  5
5C
330
5B
100
AcDbEntity
  8
0
100
AcDbBlockBegin
  2
*D9
 70
    1
 10
0
 20
0
  3
*D9
  1

  0
LINE
  5
88
100
AcDbEntity
  8
Dimensions
  6
ByBlock
 62
    0
370
   -2
100
AcDbLine
 10
90
 20
-104.25
 11
90
 21
-149.5
  0
SOLID
  5
89
100
AcDbEntity
  8
Dimensions
  6
ByBlock
 62
    0
370
   -2
100
AcDbTrace
 10
90
 20
-104.25
 30
0
 11
90.12488539733185
 21
-105
 31
0
 12
89.87511460266815
 22
-105
 32
0
 13
89.87511460266815
 23
-105
 33
0
  0
SOLID
  5
8A
100
AcDbEntity
  8
Dimensions
  6
ByBlock
 62
    0
370
   -2
100
AcDbTrace
 10
90
 20
-149.5
 30
0
 11
89.87511460266815
 21
-148.75
 31
0
 12
90.12488539733185
 22
-148.75
 32
0
 13
90.12488539733185
 23
-148.75
 33
0
  0
MTEXT
  5
8B
100
AcDbEntity
  8
Dimensions
  6
CONTINUOUS
 62
    0
370
   -2
100
AcDbMText
 10
89
 20
-126.875
 30
0
 40
1.5
 41
9.208333333333426
 71
    5
 72
    1
  1
3'-9 1/4"
  7
standard
210
0
220
0
230
1
 50
90
 73
    2
 44
1
  0
LINE
  5
8C
100
AcDbEntity
  8
Dimensions
  6
ByBlock
 62
    0
370
   -2
100
AcDbLine
 10
82.24999999999999
 20
-104.25
 11
90.05
 21
-104.25
  0
LINE
  5
8D
100
AcDbEntity
  8
Dimensions
  6
ByBlock
 62
    0
370
   -2
100
AcDbLine
 10
82.24999999999999
 20
-149.5
 11
90.05
 21
-149.5
  0
ENDBLK
  5
5D
330
5B
100
AcDbEntity
  8
0
100
AcDbBlockEnd
  0
BLOCK
  5
5F
330
5E
100
AcDbEntity
  8
0
100
AcDbBlockBegin
  2
*D12
 70
    1
 10
0
 20
0
  3
*D12
  1

  0
LINE
  5
8E
100
AcDbEntity
  8
Dimensions
  6
ByBlock
 62
    0
370
   -2
100
AcDbLine
 10
90
 20
-16.75
 11
90
 21
-62
  0
SOLID
  5
8F
100
AcDbEntity
  8
Dimensions
  6
ByBlock
 62
    0
370
   -2
100
AcDbTrace
 10
90
 20
-16.75
 30
0
 11
90.12488539733185
 21
-17.5
 31
0
 12
89.87511460266815
 22
-17.5
 32
0
 13
89.87511460266815
 23
-17.5
 33
0
  0
SOLID
  5
90
100
AcDbEntity
  8
Dimensions
  6
ByBlock
 62
    0
370
   -2
100
AcDbTrace
 10
90
 20
-62
 30
0
 11
89.87511460266815
 21
-61.25
 31
0
 12
90.12488539733185
 22
-61.25
 32
0
 13
90.12488539733185
 23
-61.25
 33
0
  0
MTEXT
  5
91
100
AcDbEntity
  8
Dimensions
  6
CONTINUOUS
 62
    0
370
   -2
100
AcDbMText
 10
89
 20
-39.375
 30
0
 40
1.5
 41
9.208333333333426
 71
    5
 72
    1
  1
3'-9 1/4"
  7
standard
210
0
220
0
230
1
 50
90
 73
    2
 44
1
  0
LINE
  5
92
100
AcDbEntity
  8
Dimensions
  6
ByBlock
 62
    0
370
   -2
100
AcDbLine
 10
83.75
 20
-16.75
 11
90.05
 21
-16.75
  0
LINE
  5
93
100
AcDbEntity
  8
Dimensions
  6
ByBlock
 62
    0
370
   -2
100
AcDbLine
 10
83.75
 20
-62
 11
90.05
 21
-62
  0
ENDBLK
  5
60
330
5E
100
AcDbEntity
  8
0
100
AcDbBlockEnd
  0
BLOCK
  5
62
330
61
100
AcDbEntity
  8
0
100
AcDbBlockBegin
  2
*D2
 70
    1
 10
0
 20
0
  3
*D2
  1

  0
LINE
  5
94
100
AcDbEntity
  8
Dimensions
  6
ByBlock
 62
    0
370
   -2
100
AcDbLine
 10
-3.5
 20
33.33014354066986
 11
83.5
 21
33.33014354066986
  0
SOLID
  5
95
100
AcDbEntity
  8
Dimensions
  6
ByBlock
 62
    0
370
   -2
100
AcDbTrace
 10
-3.5
 20
33.33014354066986
 30
0
 11
-2.75
 21
33.45502893800171
 31
0
 12
-2.75
 22
33.20525814333801
 32
0
 13
-2.75
 23
33.20525814333801
 33
0
  0
SOLID
  5
96
100
AcDbEntity
  8
Dimensions
  6
ByBlock
 62
    0
370
   -2
100
AcDbTrace
 10
83.5
 20
33.33014354066986
 30
0
 11
82.75
 21
33.20525814333801
 31
0
 12
82.75
 22
33.45502893800171
 32
0
 13
82.75
 23
33.45502893800171
 33
0
  0
MTEXT
  5
97
100
AcDbEntity
  8
Dimensions
  6
CONTINUOUS
 62
    0
370
   -2
100
AcDbMText
 10
40
 20
34.33014354066986
 30
0
 40
1.5
 41
4.750000000000092
 71
    5
 72
    1
  1
7'-3"
  7
standard
210
0
220
0
230
1
 50
0
 73
    2
 44
1
  0
LINE
  5
98
100
AcDbEntity
  8
Dimensions
  6
ByBlock
 62
    0
370
   -2
100
AcDbLine
 10
-3.5
 20
29.75
 11
-3.5
 21
33.38014354066986
  0
LINE
  5
99
100
AcDbEntity
  8
Dimensions
  6
ByBlock
 62
    0
370
   -2
100
AcDbLine
 10
83.5
 20
29.75
 11
83.5
 21
33.38014354066986
  0
ENDBLK
  5
63
330
61
100
AcDbEntity
  8
0
100
AcDbBlockEnd
  0
BLOCK
  5
65
330
64
100
AcDbEntity
  8
0
100
AcDbBlockBegin
  2
*D5
 70
    1
 10
0
 20
0
  3
*D5
  1

  0
LINE
  5
9A
100
AcDbEntity
  8
Dimensions
  6
ByBlock
 62
    0
370
   -2
100
AcDbLine
 10
24.99999999999999
 20
-86.25395622538834
 11
55
 21
-86.25395622538834
  0
SOLID
  5
9B
100
AcDbEntity
  8
Dimensions
  6
ByBlock
 62
    0
370
   -2
100
AcDbTrace
 10
24.99999999999999
 20
-86.25395622538834
 30
0
 11
25.74999999999999
 21
-86.12907082805648
 31
0
 12
25.74999999999999
 22
-86.37884162272019
 32
0
 13
25.74999999999999
 23
-86.37884162272019
 33
0
  0
SOLID
  5
9C
100
AcDbEntity
  8
Dimensions
  6
ByBlock
 62
    0
370
   -2
100
AcDbTrace
 10
55
 20
-86.25395622538834
 30
0
 11
54.25
 21
-86.37884162272019
 31
0
 12
54.25
 22
-86.12907082805648
 32
0
 13
54.25
 23
-86.12907082805648
 33
0
  0
MTEXT
  5
9D
100
AcDbEntity
  8
Dimensions
  6
CONTINUOUS
 62
    0
370
   -2
100
AcDbMText
 10
39.99999999999999
 20
-85.25395622538834
 30
0
 40
1.5
 41
4.750000000000092
 71
    5
 72
    1
  1
2'-6"
  7
standard
210
0
220
0
230
1
 50
0
 73
    2
 44
1
  0
LINE
  5
9E
100
AcDbEntity
  8
Dimensions
  6
ByBlock
 62
    0
370
   -2
100
AcDbLine
 10
24.99999999999999
 20
-79
 11
24.99999999999999
 21
-86.30395622538833
  0
LINE
  5
9F
100
AcDbEntity
  8
Dimensions
  6
ByBlock
 62
    0
370
   -2
100
AcDbLine
 10
55
 20
-79
 11
55
 21
-86.30395622538833
  0
ENDBLK
  5
66
330
64
100
AcDbEntity
  8
0
100
AcDbBlockEnd
  0
BLOCK
  5
68
330
67
100
AcDbEntity
  8
0
100
AcDbBlockBegin
  2
*D10
 70
    1
 10
0
 20
0
  3
*D10
  1

  0
LINE
  5
A0
100
AcDbEntity
  8
Dimensions
  6
ByBlock
 62
    0
370
   -2
100
AcDbLine
 10
-9.999999999999998
 20
-105.75
 11
-10
 21
-148
  0
SOLID
  5
A1
100
AcDbEntity
  8
Dimensions
  6
ByBlock
 62
    0
370
   -2
100
AcDbTrace
 10
-9.999999999999998
 20
-105.75
 30
0
 11
-9.875114602668146
 21
-106.5
 31
0
 12
-10.12488539733185
 22
-106.5
 32
0
 13
-10.12488539733185
 23
-106.5
 33
0
  0
SOLID
  5
A2
100
AcDbEntity
  8
Dimensions
  6
ByBlock
 62
    0
370
   -2
100
AcDbTrace
 10
-10
 20
-148
 30
0
 11
-10.12488539733185
 21
-147.25
 31
0
 12
-9.875114602668148
 22
-147.25
 32
0
 13
-9.875114602668148
 23
-147.25
 33
0
  0
MTEXT
  5
A3
100
AcDbEntity
  8
Dimensions
  6
CONTINUOUS
 62
    0
370
   -2
100
AcDbMText
 10
-11
 20
-126.875
 30
0
 40
1.5
 41
9.208333333333519
 71
    5
 72
    1
  1
3'-6 1/4"
  7
standard
210
0
220
0
230
1
 50
90
 73
    2
 44
1
  0
LINE
  5
A4
100
AcDbEntity
  8
Dimensions
  6
ByBlock
 62
    0
370
   -2
100
AcDbLine
 10
-2.250000000000011
 20
-105.75
 11
-10.05
 21
-105.75
  0
LINE
  5
A5
100
AcDbEntity
  8
Dimensions
  6
ByBlock
 62
    0
370
   -2
100
AcDbLine
 10
-2.250000000000016
 20
-148
 11
-10.05
 21
-148
  0
ENDBLK
  5
69
330
67
100
AcDbEntity
  8
0
100
AcDbBlockEnd
  0
BLOCK
  5
6B
330
6A
100
AcDbEntity
  8
0
100
AcDbBlockBegin
  2
*D11
 70
    1
 10
0
 20
0
  3
*D11
  1

  0
LINE
  5
A6
100
AcDbEntity
  8
Dimensions
  6
ByBlock
 62
    0
370
   -2
100
AcDbLine
 10
-2.000000000000014
 20
-160
 11
81.99999999999999
 21
-160
  0
SOLID
  5
A7
100
AcDbEntity
  8
Dimensions
  6
ByBlock
 62
    0
370
   -2
100
AcDbTrace
 10
-2.000000000000014
 20
-160
 30
0
 11
-1.250000000000014
 21
-159.8751146026681
 31
0
 12
-1.250000000000014
 22
-160.1248853973319
 32
0
 13
-1.250000000000014
 23
-160.1248853973319
 33
0
  0
SOLID
  5
A8
100
AcDbEntity
  8
Dimensions
  6
ByBlock
 62
    0
370
   -2
100
AcDbTrace
 10
81.99999999999999
 20
-160
 30
0
 11
81.24999999999999
 21
-160.1248853973319
 31
0
 12
81.24999999999999
 22
-159.8751146026681
 32
0
 13
81.24999999999999
 23
-159.8751146026681
 33
0
  0
MTEXT
  5
A9
100
AcDbEntity
  8
Dimensions
  6
CONTINUOUS
 62
    0
370
   -2
100
AcDbMText
 10
39.99999999999999
 20
-159
 30
0
 40
1.5
 41
4.75
 71
    5
 72
    1
  1
7'-0"
  7
standard
210
0
220
0
230
1
 50
0
 73
    2
 44
1
  0
LINE
  5
AA
100
AcDbEntity
  8
Dimensions
  6
ByBlock
 62
    0
370
   -2
100
AcDbLine
 10
-2.000000000000016
 20
-149.75
 11
-2.000000000000014
 21
-160.05
  0
LINE
  5
AB
100
AcDbEntity
  8
Dimensions
  6
ByBlock
 62
    0
370
   -2
100
AcDbLine
 10
81.99999999999999
 20
-149.75
 11
81.99999999999999
 21
-160.05
  0
ENDBLK
  5
6C
330
6A
100
AcDbEntity
  8
0
100
AcDbBlockEnd
  0
BLOCK
  5
6E
330
6D
100
AcDbEntity
  8
0
100
AcDbBlockBegin
  2
*D7
 70
    1
 10
0
 20
0
  3
*D7
  1

  0
LINE
  5
AC
100
AcDbEntity
  8
Dimensions
  6
ByBlock
 62
    0
370
   -2
100
AcDbLine
 10
107.5
 20
-11
 11
140.5
 21
-11
  0
SOLID
  5
AD
100
AcDbEntity
  8
Dimensions
  6
ByBlock
 62
    0
370
   -2
100
AcDbTrace
 10
107.5
 20
-11
 30
0
 11
108.25
 21
-10.87511460266815
 31
0
 12
108.25
 22
-11.12488539733185
 32
0
 13
108.25
 23
-11.12488539733185
 33
0
  0
SOLID
  5
AE
100
AcDbEntity
  8
Dimensions
  6
ByBlock
 62
    0
370
   -2
100
AcDbTrace
 10
140.5
 20
-11
 30
0
 11
139.75
 21
-11.12488539733185
 31
0
 12
139.75
 22
-10.87511460266815
 32
0
 13
139.75
 23
-10.87511460266815
 33
0
  0
MTEXT
  5
AF
100
AcDbEntity
  8
Dimensions
  6
CONTINUOUS
 62
    0
370
   -2
100
AcDbMText
 10
124
 20
-10
 30
0
 40
1.5
 41
4.75
 71
    5
 72
    1
  1
2'-9"
  7
standard
210
0
220
0
230
1
 50
0
 73
    2
 44
1
  0
LINE
  5
B0
100
AcDbEntity
  8
Dimensions
  6
ByBlock
 62
    0
370
   -2
100
AcDbLine
 10
107.5
 20
-15
 11
107.5
 21
-10.95
  0
LINE
  5
B1
100
AcDbEntity
  8
Dimensions
  6
ByBlock
 62
    0
370
   -2
100
AcDbLine
 10
140.5
 20
-15
 11
140.5
 21
-10.95
  0
ENDBLK
  5
6F
330
6D
100
AcDbEntity
  8
0
100
AcDbBlockEnd
  0
BLOCK
  5
71
330
70
100
AcDbEntity
  8
0
100
AcDbBlockBegin
  2
*D6
 70
    1
 10
0
 20
0
  3
*D6
  1

  0
LINE
  5
B2
100
AcDbEntity
  8
Dimensions
  6
ByBlock
 62
    0
370
   -2
100
AcDbLine
 10
-9.999999999999998
 20
-15.25
 11
-10
 21
-62.25
  0
SOLID
  5
B3
100
AcDbEntity
  8
Dimensions
  6
ByBlock
 62
    0
370
   -2
100
AcDbTrace
 10
-9.999999999999998
 20
-15.25
 30
0
 11
-9.875114602668146
 21
-16
 31
0
 12
-10.12488539733185
 22
-16
 32
0
 13
-10.12488539733185
 23
-16
 33
0
  0
SOLID
  5
B4
100
AcDbEntity
  8
Dimensions
  6
ByBlock
 62
    0
370
   -2
100
AcDbTrace
 10
-10
 20
-62.25
 30
0
 11
-10.12488539733185
 21
-61.5
 31
0
 12
-9.875114602668148
 22
-61.5
 32
0
 13
-9.875114602668148
 23
-61.5
 33
0
  0
MTEXT
  5
B5
100
AcDbEntity
  8
Dimensions
  6
CONTINUOUS
 62
    0
370
   -2
100
AcDbMText
 10
-11
 20
-38.75
 30
0
 40
1.5
 41
5.250000000000092
 71
    5
 72
    1
  1
3'-11"
  7
standard
210
0
220
0
230
1
 50
90
 73
    2
 44
1
  0
LINE
  5
B6
100
AcDbEntity
  8
Dimensions
  6
ByBlock
 62
    0
370
   -2
100
AcDbLine
 10
-3.75
 20
-15.25
 11
-10.05
 21
-15.25
  0
LINE
  5
B7
100
AcDbEntity
  8
Dimensions
  6
ByBlock
 62
    0
370
   -2
100
AcDbLine
 10
-3.750000000000003
 20
-62.25
 11
-10.05
 21
-62.25
  0
ENDBLK
  5
72
330
70
100
AcDbEntity
  8
0
100
AcDbBlockEnd
  0
BLOCK
  5
74
330
73
100
AcDbEntity
  8
0
100
AcDbBlockBegin
  2
*D4
 70
    1
 10
0
 20
0
  3
*D4
  1

  0
LINE
  5
B8
100
AcDbEntity
  8
Dimensions
  6
ByBlock
 62
    0
370
   -2
100
AcDbLine
 10
56.49999999999999
 20
-86.15003579620112
 11
83.5
 21
-86.15003579620112
  0
SOLID
  5
B9
100
AcDbEntity
  8
Dimensions
  6
ByBlock
 62
    0
370
   -2
100
AcDbTrace
 10
56.49999999999999
 20
-86.15003579620112
 30
0
 11
57.24999999999999
 21
-86.02515039886927
 31
0
 12
57.24999999999999
 22
-86.27492119353298
 32
0
 13
57.24999999999999
 23
-86.27492119353298
 33
0
  0
SOLID
  5
BA
100
AcDbEntity
  8
Dimensions
  6
ByBlock
 62
    0
370
   -2
100
AcDbTrace
 10
83.5
 20
-86.15003579620112
 30
0
 11
82.75
 21
-86.27492119353298
 31
0
 12
82.75
 22
-86.02515039886927
 32
0
 13
82.75
 23
-86.02515039886927
 33
0
  0
MTEXT
  5
BB
100
AcDbEntity
  8
Dimensions
  6
CONTINUOUS
 62
    0
370
   -2
100
AcDbMText
 10
70
 20
-85.15003579620112
 30
0
 40
1.5
 41
4.750000000000092
 71
    5
 72
    1
  1
2'-3"
  7
standard
210
0
220
0
230
1
 50
0
 73
    2
 44
1
  0
LINE
  5
BC
100
AcDbEntity
  8
Dimensions
  6
ByBlock
 62
    0
370
   -2
100
AcDbLine
 10
56.49999999999999
 20
-80.5
 11
56.49999999999999
 21
-86.20003579620112
  0
LINE
  5
BD
100
AcDbEntity
  8
Dimensions
  6
ByBlock
 62
    0
370
   -2
100
AcDbLine
 10
83.5
 20
-80.5
 11
83.5
 21
-86.20003579620112
  0
ENDBLK
  5
75
330
73
100
AcDbEntity
  8
0
100
AcDbBlockEnd
  0
ENDSEC
  0
SECTION
  2
ENTITIES
  0
LINE
  5
BE
100
AcDbEntity
  8
construction
  6
ByLayer
 62
  256
370
   -1
100
AcDbLine
 10
0
 20
0
 11
80
 21
0
  0
LINE
  5
BF
100
AcDbEntity
  8
construction
  6
ByLayer
 62
  256
370
   -1
100
AcDbLine
 10
1.59204083889e-15
 20
26
 11
80
 21
26
  0
LINE
  5
C0
100
AcDbEntity
  8
plumbing
  6
ByLayer
 62
  256
370
   -1
100
AcDbLine
 10
0
 20
0
 11
80
 21
0
  0
LINE
  5
C1
100
AcDbEntity
  8
plumbing
  6
ByLayer
 62
  256
370
   -1
100
AcDbLine
 10
80
 20
0
 11
80
 21
26
  0
LINE
  5
C2
100
AcDbEntity
  8
plumbing
  6
ByLayer
 62
  256
370
   -1
100
AcDbLine
 10
80
 20
26
 11
0
 21
26
  0
LINE
  5
C3
100
AcDbEntity
  8
plumbing
  6
ByLayer
 62
  256
370
   -1
100
AcDbLine
 10
0
 20
26
 11
0
 21
0
  0
LINE
  5
C4
100
AcDbEntity
  8
plumbing
  6
ByLayer
 62
  256
370
   -1
100
AcDbLine
 10
2.375
 20
23.625
 11
2.375
 21
2.375
  0
LINE
  5
C5
100
AcDbEntity
  8
plumbing
  6
ByLayer
 62
  256
370
   -1
100
AcDbLine
 10
2.375
 20
23.625
 11
77.625
 21
23.625
  0
LINE
  5
C6
100
AcDbEntity
  8
plumbing
  6
ByLayer
 62
  256
370
   -1
100
AcDbLine
 10
2.375
 20
2.375
 11
77.625
 21
2.375
  0
LINE
  5
C7
100
AcDbEntity
  8
plumbing
  6
ByLayer
 62
  256
370
   -1
100
AcDbLine
 10
77.625
 20
2.375
 11
77.625
 21
23.625
  0
LINE
  5
C8
100
AcDbEntity
  8
construction
  6
ByLayer
 62
  256
370
   -1
100
AcDbLine
 10
10
 20
26
 11
10
 21
-2.44929359829e-15
  0
LINE
  5
C9
100
AcDbEntity
  8
construction
  6
ByLayer
 62
  256
370
   -1
100
AcDbLine
 10
22
 20
26
 11
22
 21
-5.38844591625e-15
  0
LINE
  5
CA
100
AcDbEntity
  8
construction
  6
ByLayer
 62
  256
370
   -1
100
AcDbLine
 10
34
 20
26
 11
34
 21
-8.327598234200001e-15
  0
LINE
  5
CB
100
AcDbEntity
  8
construction
  6
ByLayer
 62
  256
370
   -1
100
AcDbLine
 10
46
 20
26
 11
46
 21
-1.12667505522e-14
  0
LINE
  5
CC
100
AcDbEntity
  8
construction
  6
ByLayer
 62
  256
370
   -1
100
AcDbLine
 10
58
 20
26
 11
58
 21
-1.42059028701e-14
  0
LINE
  5
CD
100
AcDbEntity
  8
construction
  6
ByLayer
 62
  256
370
   -1
100
AcDbLine
 10
70
 20
26
 11
70
 21
-1.71450551881e-14
  0
LINE
  5
CE
100
AcDbEntity
  8
construction
  6
ByLayer
 62
  256
370
   -1
100
AcDbLine
 10
7.27134036994e-17
 20
1.1875
 11
80
 21
1.1875
  0
LINE
  5
CF
100
AcDbEntity
  8
construction
  6
ByLayer
 62
  256
370
   -1
100
AcDbLine
 10
2.375
 20
24.8125
 11
77.625
 21
24.8125
  0
CIRCLE
  5
D0
100
AcDbEntity
  8
plumbing
  6
ByLayer
 62
  256
370
   -1
100
AcDbCircle
 10
10
 20
24.8125
 40
0.5
  0
CIRCLE
  5
D1
100
AcDbEntity
  8
plumbing
  6
ByLayer
 62
  256
370
   -1
100
AcDbCircle
 10
22
 20
24.8125
 40
0.5
  0
CIRCLE
  5
D2
100
AcDbEntity
  8
plumbing
  6
ByLayer
 62
  256
370
   -1
100
AcDbCircle
 10
34
 20
24.8125
 40
0.5
  0
CIRCLE
  5
D3
100
AcDbEntity
  8
plumbing
  6
ByLayer
 62
  256
370
   -1
100
AcDbCircle
 10
46
 20
24.8125
 40
0.5
  0
CIRCLE
  5
D4
100
AcDbEntity
  8
plumbing
  6
ByLayer
 62
  256
370
   -1
100
AcDbCircle
 10
58
 20
24.8125
 40
0.5
  0
CIRCLE
  5
D5
100
AcDbEntity
  8
plumbing
  6
ByLayer
 62
  256
370
   -1
100
AcDbCircle
 10
70
 20
24.8125
 40
0.5
  0
CIRCLE
  5
D6
100
AcDbEntity
  8
plumbing
  6
ByLayer
 62
  256
370
   -1
100
AcDbCircle
 10
10
 20
1.1875
 40
0.5
  0
CIRCLE
  5
D7
100
AcDbEntity
  8
plumbing
  6
ByLayer
 62
  256
370
   -1
100
AcDbCircle
 10
22
 20
1.1875
 40
0.5
  0
CIRCLE
  5
D8
100
AcDbEntity
  8
plumbing
  6
ByLayer
 62
  256
370
   -1
100
AcDbCircle
 10
34
 20
1.1875
 40
0.5
  0
CIRCLE
  5
D9
100
AcDbEntity
  8
plumbing
  6
ByLayer
 62
  256
370
   -1
100
AcDbCircle
 10
46
 20
1.1875
 40
0.5
  0
CIRCLE
  5
DA
100
AcDbEntity
  8
plumbing
  6
ByLayer
 62
  256
370
   -1
100
AcDbCircle
 10
58
 20
1.1875
 40
0.5
  0
CIRCLE
  5
DB
100
AcDbEntity
  8
plumbing
  6
ByLayer
 62
  256
370
   -1
100
AcDbCircle
 10
70
 20
1.1875
 40
0.5
  0
LINE
  5
DC
100
AcDbEntity
  8
buckets
  6
ByLayer
 62
  256
370
   -1
100
AcDbLine
 10
5
 20
-6.12323399574e-16
 11
5
 21
11.75
  0
LINE
  5
DD
100
AcDbEntity
  8
buckets
  6
ByLayer
 62
  256
370
   -1
100
AcDbLine
 10
15
 20
0
 11
15
 21
11.75
  0
LINE
  5
DE
100
AcDbEntity
  8
buckets
  6
ByLayer
 62
  256
370
   -1
100
AcDbLine
 10
17
 20
-3.55147571753e-15
 11
17
 21
11.75
  0
LINE
  5
DF
100
AcDbEntity
  8
buckets
  6
ByLayer
 62
  256
370
   -1
100
AcDbLine
 10
27
 20
-6.6130927154e-15
 11
27
 21
11.75
  0
LINE
  5
E0
100
AcDbEntity
  8
buckets
  6
ByLayer
 62
  256
370
   -1
100
AcDbLine
 10
29
 20
-6.49062803548e-15
 11
29
 21
11.75
  0
LINE
  5
E1
100
AcDbEntity
  8
buckets
  6
ByLayer
 62
  256
370
   -1
100
AcDbLine
 10
39
 20
0
 11
39
 21
11.75
  0
LINE
  5
E2
100
AcDbEntity
  8
buckets
  6
ByLayer
 62
  256
370
   -1
100
AcDbLine
 10
41
 20
0
 11
41
 21
11.75
  0
LINE
  5
E3
100
AcDbEntity
  8
buckets
  6
ByLayer
 62
  256
370
   -1
100
AcDbLine
 10
51
 20
-1.24913973513e-14
 11
51
 21
11.75
  0
LINE
  5
E4
100
AcDbEntity
  8
buckets
  6
ByLayer
 62
  256
370
   -1
100
AcDbLine
 10
53
 20
-1.23689326714e-14
 11
53
 21
11.75
  0
LINE
  5
E5
100
AcDbEntity
  8
buckets
  6
ByLayer
 62
  256
370
   -1
100
AcDbLine
 10
63
 20
-1.54305496693e-14
 11
63
 21
11.75
  0
LINE
  5
E6
100
AcDbEntity
  8
buckets
  6
ByLayer
 62
  256
370
   -1
100
AcDbLine
 10
65
 20
0
 11
65
 21
11.75
  0
LINE
  5
E7
100
AcDbEntity
  8
buckets
  6
ByLayer
 62
  256
370
   -1
100
AcDbLine
 10
75
 20
-1.83697019872e-14
 11
75
 21
11.75
  0
LINE
  5
E8
100
AcDbEntity
  8
buckets
  6
ByLayer
 62
  256
370
   -1
100
AcDbLine
 10
5
 20
26
 11
5
 21
14.25
  0
LINE
  5
E9
100
AcDbEntity
  8
buckets
  6
ByLayer
 62
  256
370
   -1
100
AcDbLine
 10
15
 20
26
 11
15
 21
14.25
  0
LINE
  5
EA
100
AcDbEntity
  8
buckets
  6
ByLayer
 62
  256
370
   -1
100
AcDbLine
 10
17
 20
26
 11
17
 21
14.25
  0
LINE
  5
EB
100
AcDbEntity
  8
buckets
  6
ByLayer
 62
  256
370
   -1
100
AcDbLine
 10
27
 20
26
 11
27
 21
14.25
  0
LINE
  5
EC
100
AcDbEntity
  8
buckets
  6
ByLayer
 62
  256
370
   -1
100
AcDbLine
 10
29
 20
26
 11
29
 21
14.25
  0
LINE
  5
ED
100
AcDbEntity
  8
buckets
  6
ByLayer
 62
  256
370
   -1
100
AcDbLine
 10
39
 20
26
 11
39
 21
14.25
  0
LINE
  5
EE
100
AcDbEntity
  8
buckets
  6
ByLayer
 62
  256
370
   -1
100
AcDbLine
 10
41
 20
26
 11
41
 21
14.25
  0
LINE
  5
EF
100
AcDbEntity
  8
buckets
  6
ByLayer
 62
  256
370
   -1
100
AcDbLine
 10
51
 20
26
 11
51
 21
14.25
  0
LINE
  5
F0
100
AcDbEntity
  8
buckets
  6
ByLayer
 62
  256
370
   -1
100
AcDbLine
 10
53
 20
26
 11
53
 21
14.25
  0
LINE
  5
F1
100
AcDbEntity
  8
buckets
  6
ByLayer
 62
  256
370
   -1
100
AcDbLine
 10
63
 20
26
 11
63
 21
14.25
  0
LINE
  5
F2
100
AcDbEntity
  8
buckets
  6
ByLayer
 62
  256
370
   -1
100
AcDbLine
 10
65
 20
26
 11
65
 21
14.25
  0
LINE
  5
F3
100
AcDbEntity
  8
buckets
  6
ByLayer
 62
  256
370
   -1
100
AcDbLine
 10
75
 20
26
 11
75
 21
14.25
  0
LINE
  5
F4
100
AcDbEntity
  8
buckets
  6
ByLayer
 62
  256
370
   -1
100
AcDbLine
 10
5
 20
0
 11
15
 21
-3.67394039744e-15
  0
LINE
  5
F5
100
AcDbEntity
  8
buckets
  6
ByLayer
 62
  256
370
   -1
100
AcDbLine
 10
15
 20
11.75
 11
5
 21
11.75
  0
LINE
  5
F6
100
AcDbEntity
  8
buckets
  6
ByLayer
 62
  256
370
   -1
100
AcDbLine
 10
5
 20
14.25
 11
15
 21
14.25
  0
LINE
  5
F7
100
AcDbEntity
  8
buckets
  6
ByLayer
 62
  256
370
   -1
100
AcDbLine
 10
15
 20
26
 11
5
 21
26
  0
LINE
  5
F8
100
AcDbEntity
  8
buckets
  6
ByLayer
 62
  256
370
   -1
100
AcDbLine
 10
17
 20
26
 11
27
 21
26
  0
LINE
  5
F9
100
AcDbEntity
  8
buckets
  6
ByLayer
 62
  256
370
   -1
100
AcDbLine
 10
27
 20
14.25
 11
17
 21
14.25
  0
LINE
  5
FA
100
AcDbEntity
  8
buckets
  6
ByLayer
 62
  256
370
   -1
100
AcDbLine
 10
17
 20
11.75
 11
27
 21
11.75
  0
LINE
  5
FB
100
AcDbEntity
  8
buckets
  6
ByLayer
 62
  256
370
   -1
100
AcDbLine
 10
27
 20
-6.6130927154e-15
 11
17
 21
-3.55147571753e-15
  0
LINE
  5
FC
100
AcDbEntity
  8
buckets
  6
ByLayer
 62
  256
370
   -1
100
AcDbLine
 10
29
 20
-6.49062803548e-15
 11
39
 21
0
  0
LINE
  5
FD
100
AcDbEntity
  8
buckets
  6
ByLayer
 62
  256
370
   -1
100
AcDbLine
 10
39
 20
11.75
 11
29
 21
11.75
  0
LINE
  5
FE
100
AcDbEntity
  8
buckets
  6
ByLayer
 62
  256
370
   -1
100
AcDbLine
 10
29
 20
14.25
 11
39
 21
14.25
  0
LINE
  5
FF
100
AcDbEntity
  8
buckets
  6
ByLayer
 62
  256
370
   -1
100
AcDbLine
 10
39
 20
26
 11
29
 21
26
  0
LINE
  5
100
100
AcDbEntity
  8
buckets
  6
ByLayer
 62
  256
370
   -1
100
AcDbLine
 10
41
 20
26
 11
51
 21
26
  0
LINE
  5
101
100
AcDbEntity
  8
buckets
  6
ByLayer
 62
  256
370
   -1
100
AcDbLine
 10
51
 20
14.25
 11
41
 21
14.25
  0
LINE
  5
102
100
AcDbEntity
  8
buckets
  6
ByLayer
 62
  256
370
   -1
100
AcDbLine
 10
41
 20
11.75
 11
51
 21
11.75
  0
LINE
  5
103
100
AcDbEntity
  8
buckets
  6
ByLayer
 62
  256
370
   -1
100
AcDbLine
 10
51
 20
0
 11
41
 21
-9.429780353429999e-15
  0
LINE
  5
104
100
AcDbEntity
  8
buckets
  6
ByLayer
 62
  256
370
   -1
100
AcDbLine
 10
53
 20
-1.23689326714e-14
 11
63
 21
-1.54305496693e-14
  0
LINE
  5
105
100
AcDbEntity
  8
buckets
  6
ByLayer
 62
  256
370
   -1
100
AcDbLine
 10
63
 20
11.75
 11
53
 21
11.75
  0
LINE
  5
106
100
AcDbEntity
  8
buckets
  6
ByLayer
 62
  256
370
   -1
100
AcDbLine
 10
53
 20
14.25
 11
63
 21
14.25
  0
LINE
  5
107
100
AcDbEntity
  8
buckets
  6
ByLayer
 62
  256
370
   -1
100
AcDbLine
 10
63
 20
26
 11
53
 21
26
  0
LINE
  5
108
100
AcDbEntity
  8
buckets
  6
ByLayer
 62
  256
370
   -1
100
AcDbLine
 10
65
 20
26
 11
75
 21
26
  0
LINE
  5
109
100
AcDbEntity
  8
buckets
  6
ByLayer
 62
  256
370
   -1
100
AcDbLine
 10
75
 20
14.25
 11
65
 21
14.25
  0
LINE
  5
10A
100
AcDbEntity
  8
buckets
  6
ByLayer
 62
  256
370
   -1
100
AcDbLine
 10
65
 20
11.75
 11
75
 21
11.75
  0
LINE
  5
10B
100
AcDbEntity
  8
buckets
  6
ByLayer
 62
  256
370
   -1
100
AcDbLine
 10
75
 20
-1.83697019872e-14
 11
65
 21
0
  0
LINE
  5
10C
100
AcDbEntity
  8
construction
  6
ByLayer
 62
  256
370
   -1
100
AcDbLine
 10
-2
 20
28
 11
82
 21
28
  0
LINE
  5
10D
100
AcDbEntity
  8
construction
  6
ByLayer
 62
  256
370
   -1
100
AcDbLine
 10
-2
 20
-2
 11
82
 21
-2
  0
LINE
  5
10E
100
AcDbEntity
  8
framing
  6
ByLayer
 62
  256
370
   -1
100
AcDbLine
 10
-2
 20
28
 11
-2
 21
-2
  0
LINE
  5
10F
100
AcDbEntity
  8
framing
  6
ByLayer
 62
  256
370
   -1
100
AcDbLine
 10
83.5
 20
-3.5
 11
83.5
 21
29.5
  0
LINE
  5
110
100
AcDbEntity
  8
framing
  6
ByLayer
 62
  256
370
   -1
100
AcDbLine
 10
-3.5
 20
-3.5
 11
83.5
 21
-3.5
  0
LINE
  5
111
100
AcDbEntity
  8
framing
  6
ByLayer
 62
  256
370
   -1
100
AcDbLine
 10
-3.5
 20
29.5
 11
-3.5
 21
-3.5
  0
LINE
  5
112
100
AcDbEntity
  8
framing
  6
ByLayer
 62
  256
370
   -1
100
AcDbLine
 10
83.5
 20
29.5
 11
-3.5
 21
29.5
  0
LINE
  5
113
100
AcDbEntity
  8
construction
  6
ByLayer
 62
  256
370
   -1
100
AcDbLine
 10
5
 20
26
 11
4.999999999999982
 21
-96
  0
LINE
  5
114
100
AcDbEntity
  8
construction
  6
ByLayer
 62
  256
370
   -1
100
AcDbLine
 10
15
 20
26
 11
14.99999999999998
 21
-96
  0
LINE
  5
115
100
AcDbEntity
  8
construction
  6
ByLayer
 62
  256
370
   -1
100
AcDbLine
 10
17
 20
26
 11
16.99999999999998
 21
-96
  0
LINE
  5
116
100
AcDbEntity
  8
construction
  6
ByLayer
 62
  256
370
   -1
100
AcDbLine
 10
27
 20
26
 11
26.99999999999998
 21
-96
  0
LINE
  5
117
100
AcDbEntity
  8
construction
  6
ByLayer
 62
  256
370
   -1
100
AcDbLine
 10
29
 20
26
 11
28.99999999999998
 21
-96
  0
LINE
  5
118
100
AcDbEntity
  8
construction
  6
ByLayer
 62
  256
370
   -1
100
AcDbLine
 10
39
 20
26
 11
38.99999999999999
 21
-96.00000000000001
  0
LINE
  5
119
100
AcDbEntity
  8
construction
  6
ByLayer
 62
  256
370
   -1
100
AcDbLine
 10
41
 20
26
 11
40.99999999999999
 21
-96.00000000000001
  0
LINE
  5
11A
100
AcDbEntity
  8
construction
  6
ByLayer
 62
  256
370
   -1
100
AcDbLine
 10
51
 20
26
 11
50.99999999999999
 21
-96.00000000000001
  0
LINE
  5
11B
100
AcDbEntity
  8
construction
  6
ByLayer
 62
  256
370
   -1
100
AcDbLine
 10
53
 20
26
 11
52.99999999999999
 21
-96.00000000000001
  0
LINE
  5
11C
100
AcDbEntity
  8
construction
  6
ByLayer
 62
  256
370
   -1
100
AcDbLine
 10
63
 20
26
 11
62.99999999999999
 21
-96.00000000000001
  0
LINE
  5
11D
100
AcDbEntity
  8
construction
  6
ByLayer
 62
  256
370
   -1
100
AcDbLine
 10
65
 20
26
 11
64.99999999999999
 21
-96.00000000000001
  0
LINE
  5
11E
100
AcDbEntity
  8
construction
  6
ByLayer
 62
  256
370
   -1
100
AcDbLine
 10
75
 20
26
 11
74.99999999999999
 21
-96.00000000000001
  0
LWPOLYLINE
  5
11F
100
AcDbEntity
  8
buckets
  6
ByLayer
 62
  256
370
   -1
100
AcDbPolyline
 90
    4
 70
    1
 43
0
 10
4.999999999999988
 20
-62
 10
14.99999999999999
 20
-62
 10
14.99999999999999
 20
-53
 10
4.999999999999988
 20
-53
  0
LWPOLYLINE
  5
120
100
AcDbEntity
  8
buckets
  6
ByLayer
 62
  256
370
   -1
100
AcDbPolyline
 90
    4
 70
    1
 43
0
 10
16.99999999999999
 20
-62
 10
26.99999999999999
 20
-62
 10
26.99999999999999
 20
-53
 10
16.99999999999999
 20
-53
  0
LWPOLYLINE
  5
121
100
AcDbEntity
  8
buckets
  6
ByLayer
 62
  256
370
   -1
100
AcDbPolyline
 90
    4
 70
    1
 43
0
 10
28.99999999999999
 20
-62
 10
38.99999999999999
 20
-62
 10
38.99999999999999
 20
-53
 10
28.99999999999999
 20
-53
  0
LWPOLYLINE
  5
122
100
AcDbEntity
  8
buckets
  6
ByLayer
 62
  256
370
   -1
100
AcDbPolyline
 90
    4
 70
    1
 43
0
 10
40.99999999999999
 20
-62
 10
50.99999999999999
 20
-62
 10
50.99999999999999
 20
-53
 10
40.99999999999999
 20
-53
  0
LWPOLYLINE
  5
123
100
AcDbEntity
  8
buckets
  6
ByLayer
 62
  256
370
   -1
100
AcDbPolyline
 90
    4
 70
    1
 43
0
 10
52.99999999999999
 20
-62
 10
62.99999999999999
 20
-62
 10
62.99999999999999
 20
-53
 10
52.99999999999999
 20
-53
  0
LWPOLYLINE
  5
124
100
AcDbEntity
  8
buckets
  6
ByLayer
 62
  256
370
   -1
100
AcDbPolyline
 90
    4
 70
    1
 43
0
 10
64.99999999999999
 20
-62
 10
75
 20
-62
 10
75
 20
-53
 10
64.99999999999999
 20
-53
  0
LINE
  5
125
100
AcDbEntity
  8
construction
  6
ByLayer
 62
  256
370
   -1
100
AcDbLine
 10
1.59204083889e-15
 20
26
 11
-1.756220050402249e-14
 21
-94.8125
  0
LINE
  5
126
100
AcDbEntity
  8
construction
  6
ByLayer
 62
  256
370
   -1
100
AcDbLine
 10
80
 20
26
 11
79.99999999999999
 21
-94.8125
  0
LWPOLYLINE
  5
127
100
AcDbEntity
  8
plumbing
  6
ByLayer
 62
  256
370
   -1
100
AcDbPolyline
 90
    4
 70
    1
 43
0
 10
-1.235993630069654e-14
 20
-62
 10
80
 20
-62
 10
80
 20
-59.625
 10
-1.235993630069654e-14
 20
-59.625
  0
LINE
  5
128
100
AcDbEntity
  8
framing
  6
ByLayer
 62
  256
370
   -1
100
AcDbLine
 10
82
 20
-2
 11
82
 21
28
  0
LINE
  5
129
100
AcDbEntity
  8
framing
  6
ByLayer
 62
  256
370
   -1
100
AcDbLine
 10
83.5
 20
28
 11
-3.5
 21
28
  0
LINE
  5
12A
100
AcDbEntity
  8
framing
  6
ByLayer
 62
  256
370
   -1
100
AcDbLine
 10
-3.5
 20
-2
 11
83.5
 21
-2
  0
LINE
  5
12B
100
AcDbEntity
  8
construction
  6
ByLayer
 62
  256
370
   -1
100
AcDbLine
 10
-3.5
 20
-3.5
 11
-3.500000000000006
 21
-99.5
  0
LINE
  5
12C
100
AcDbEntity
  8
construction
  6
ByLayer
 62
  256
370
   -1
100
AcDbLine
 10
83.5
 20
-3.5
 11
83.5
 21
-99.5
  0
LWPOLYLINE
  5
12D
100
AcDbEntity
  8
framing
  6
ByLayer
 62
  256
370
   -1
100
AcDbPolyline
 90
    4
 70
    1
 43
0
 10
-2.000000000000004
 20
-62.25
 10
82
 20
-62.25
 10
82
 20
-63.75
 10
-2.000000000000004
 20
-63.75
  0
LWPOLYLINE
  5
12E
100
AcDbEntity
  8
framing
  6
ByLayer
 62
  256
370
   -1
100
AcDbPolyline
 90
    4
 70
    1
 43
0
 10
-2.000000000000004
 20
-62
 10
82
 20
-62
 10
82
 20
-62.25
 10
-2.000000000000004
 20
-62.25
  0
LINE
  5
12F
100
AcDbEntity
  8
construction
  6
ByLayer
 62
  256
370
   -1
100
AcDbLine
 10
40
 20
-12.75
 11
40
 21
-36.75
  0
LINE
  5
130
100
AcDbEntity
  8
construction
  6
ByLayer
 62
  256
370
   -1
100
AcDbLine
 10
39.99999999999999
 20
-63.75
 11
39.99999999999999
 21
-87.75
  0
LINE
  5
131
100
AcDbEntity
  8
construction
  6
ByLayer
 62
  256
370
   -1
100
AcDbLine
 10
54.99999999999999
 20
-63.75000000000001
 11
54.99999999999999
 21
-87.75
  0
LINE
  5
132
100
AcDbEntity
  8
construction
  6
ByLayer
 62
  256
370
   -1
100
AcDbLine
 10
24.99999999999999
 20
-63.74999999999999
 11
24.99999999999999
 21
-87.75
  0
LINE
  5
133
100
AcDbEntity
  8
construction
  6
ByLayer
 62
  256
370
   -1
100
AcDbLine
 10
23.49999999999999
 20
-63.74999999999999
 11
23.49999999999999
 21
-87.75
  0
LINE
  5
134
100
AcDbEntity
  8
construction
  6
ByLayer
 62
  256
370
   -1
100
AcDbLine
 10
56.49999999999999
 20
-63.75000000000001
 11
56.49999999999999
 21
-87.75
  0
LINE
  5
135
100
AcDbEntity
  8
framing
  6
ByLayer
 62
  256
370
   -1
100
AcDbLine
 10
-3.500000000000004
 20
-80.25
 11
-2.000000000000004
 21
-80.25
  0
LINE
  5
136
100
AcDbEntity
  8
framing
  6
ByLayer
 62
  256
370
   -1
100
AcDbLine
 10
82
 20
-80.25
 11
83.5
 21
-80.25
  0
LINE
  5
137
100
AcDbEntity
  8
framing
  6
ByLayer
 62
  256
370
   -1
100
AcDbLine
 10
-2.000000000000004
 20
-78.75
 11
82
 21
-78.75
  0
LINE
  5
138
100
AcDbEntity
  8
framing
  6
ByLayer
 62
  256
370
   -1
100
AcDbLine
 10
82
 20
-80.25
 11
-2.000000000000005
 21
-80.25
  0
LINE
  5
139
100
AcDbEntity
  8
framing
  6
ByLayer
 62
  256
370
   -1
100
AcDbLine
 10
23.49999999999999
 20
-63.75
 11
24.99999999999999
 21
-63.75
  0
LINE
  5
13A
100
AcDbEntity
  8
framing
  6
ByLayer
 62
  256
370
   -1
100
AcDbLine
 10
24.99999999999999
 20
-80.25
 11
23.49999999999999
 21
-80.25
  0
LINE
  5
13B
100
AcDbEntity
  8
framing
  6
ByLayer
 62
  256
370
   -1
100
AcDbLine
 10
55
 20
-63.75
 11
56.49999999999999
 21
-63.75
  0
LINE
  5
13C
100
AcDbEntity
  8
framing
  6
ByLayer
 62
  256
370
   -1
100
AcDbLine
 10
56.49999999999999
 20
-80.25
 11
55
 21
-80.25
  0
LINE
  5
13D
100
AcDbEntity
  8
framing
  6
ByLayer
 62
  256
370
   -1
100
AcDbLine
 10
23.49999999999999
 20
-78.75
 11
23.49999999999999
 21
-63.75
  0
LINE
  5
13E
100
AcDbEntity
  8
framing
  6
ByLayer
 62
  256
370
   -1
100
AcDbLine
 10
24.99999999999999
 20
-63.75
 11
24.99999999999999
 21
-78.75
  0
LINE
  5
13F
100
AcDbEntity
  8
framing
  6
ByLayer
 62
  256
370
   -1
100
AcDbLine
 10
55
 20
-78.75
 11
55
 21
-63.75
  0
LINE
  5
140
100
AcDbEntity
  8
framing
  6
ByLayer
 62
  256
370
   -1
100
AcDbLine
 10
56.49999999999999
 20
-63.75
 11
56.49999999999999
 21
-78.75
  0
LINE
  5
141
100
AcDbEntity
  8
construction
  6
ByLayer
 62
  256
370
   -1
100
AcDbLine
 10
-3.500000000000007
 20
-80.25
 11
83.5
 21
-80.25
  0
LINE
  5
142
100
AcDbEntity
  8
construction
  6
ByLayer
 62
  256
370
   -1
100
AcDbLine
 10
-3.500000000000007
 20
-78.75
 11
83.5
 21
-78.75
  0
LINE
  5
143
100
AcDbEntity
  8
construction
  6
ByLayer
 62
  256
370
   -1
100
AcDbLine
 10
83.5
 20
-78.75
 11
143.5
 21
-78.75
  0
LINE
  5
144
100
AcDbEntity
  8
construction
  6
ByLayer
 62
  256
370
   -1
100
AcDbLine
 10
83.5
 20
-80.25
 11
143.5
 21
-80.25
  0
LINE
  5
145
100
AcDbEntity
  8
construction
  6
ByLayer
 62
  256
370
   -1
100
AcDbLine
 10
107.5
 20
-3.500000000000006
 11
107.5
 21
-99.5
  0
LINE
  5
146
100
AcDbEntity
  8
construction
  6
ByLayer
 62
  256
370
   -1
100
AcDbLine
 10
140.5
 20
-3.500000000000014
 11
140.5
 21
-99.50000000000001
  0
LINE
  5
147
100
AcDbEntity
  8
construction
  6
ByLayer
 62
  256
370
   -1
100
AcDbLine
 10
109
 20
-3.500000000000006
 11
109
 21
-99.5
  0
LINE
  5
148
100
AcDbEntity
  8
construction
  6
ByLayer
 62
  256
370
   -1
100
AcDbLine
 10
139
 20
-3.500000000000013
 11
139
 21
-99.50000000000001
  0
LWPOLYLINE
  5
149
100
AcDbEntity
  8
framing
  6
ByLayer
 62
  256
370
   -1
100
AcDbPolyline
 90
    4
 70
    1
 43
0
 10
109
 20
-78.75
 10
139
 20
-78.75
 10
139
 20
-80.25
 10
109
 20
-80.25
  0
LINE
  5
14A
100
AcDbEntity
  8
construction
  6
ByLayer
 62
  256
370
   -1
100
AcDbLine
 10
-3.500000000000004
 20
-63.75
 11
140.5
 21
-63.75
  0
LINE
  5
14B
100
AcDbEntity
  8
construction
  6
ByLayer
 62
  256
370
   -1
100
AcDbLine
 10
-3.500000000000004
 20
-62.25
 11
140.5
 21
-62.25
  0
LINE
  5
14C
100
AcDbEntity
  8
construction
  6
ByLayer
 62
  256
370
   -1
100
AcDbLine
 10
-3.500000000000004
 20
-62
 11
140.5
 21
-62
  0
LWPOLYLINE
  5
14D
100
AcDbEntity
  8
framing
  6
ByLayer
 62
  256
370
   -1
100
AcDbPolyline
 90
    4
 70
    1
 43
0
 10
109
 20
-62.25
 10
139
 20
-62.25
 10
139
 20
-63.75
 10
109
 20
-63.75
  0
LINE
  5
14E
100
AcDbEntity
  8
framing
  6
ByLayer
 62
  256
370
   -1
100
AcDbLine
 10
109
 20
-62
 11
139
 21
-62
  0
LINE
  5
14F
100
AcDbEntity
  8
construction
  6
ByLayer
 62
  256
370
   -1
100
AcDbLine
 10
-2.000000000000011
 20
-59.625
 11
140.5
 21
-59.625
  0
LINE
  5
150
100
AcDbEntity
  8
construction
  6
ByLayer
 62
  256
370
   -1
100
AcDbLine
 10
111
 20
-3.500000000000007
 11
111
 21
-99.5
  0
LINE
  5
151
100
AcDbEntity
  8
construction
  6
ByLayer
 62
  256
370
   -1
100
AcDbLine
 10
137
 20
-3.500000000000012
 11
137
 21
-99.50000000000001
  0
LWPOLYLINE
  5
152
100
AcDbEntity
  8
plumbing
  6
ByLayer
 62
  256
370
   -1
100
AcDbPolyline
 90
    4
 70
    1
 43
0
 10
111
 20
-59.625
 10
137
 20
-59.625
 10
137
 20
-62
 10
111
 20
-62
  0
LINE
  5
153
100
AcDbEntity
  8
construction
  6
ByLayer
 62
  256
370
   -1
100
AcDbLine
 10
122.75
 20
-3.500000000000009
 11
122.75
 21
-99.5
  0
LINE
  5
154
100
AcDbEntity
  8
construction
  6
ByLayer
 62
  256
370
   -1
100
AcDbLine
 10
125.25
 20
-3.500000000000008
 11
125.25
 21
-99.50000000000001
  0
LINE
  5
155
100
AcDbEntity
  8
construction
  6
ByLayer
 62
  256
370
   -1
100
AcDbLine
 10
-2.000000000000011
 20
-53
 11
140.5
 21
-53
  0
LWPOLYLINE
  5
156
100
AcDbEntity
  8
buckets
  6
ByLayer
 62
  256
370
   -1
100
AcDbPolyline
 90
    4
 70
    1
 43
0
 10
111
 20
-53
 10
122.75
 20
-53
 10
122.75
 20
-62
 10
111
 20
-62
  0
LWPOLYLINE
  5
157
100
AcDbEntity
  8
buckets
  6
ByLayer
 62
  256
370
   -1
100
AcDbPolyline
 90
    4
 70
    1
 43
0
 10
125.25
 20
-53
 10
137
 20
-53
 10
137
 20
-62
 10
125.25
 20
-62
  0
DIMENSION
  5
158
100
AcDbEntity
  8
Dimensions
  6
ByLayer
 62
  256
370
   -1
100
AcDbDimension
  2
*D1
 10
105.570806714317
 20
-80.25
 30
0
 11
104.570806714317
 21
-71.25
 31
0
 70
   32
 71
    5
  3
Standard
 53
0
210
0
220
0
230
1
100
AcDbAlignedDimension
 13
107.5
 23
-62.25
 33
0
 14
107.5
 24
-80.25
 34
0
 50
90
100
AcDbRotatedDimension
  0
DIMENSION
  5
159
100
AcDbEntity
  8
Dimensions
  6
ByLayer
 62
  256
370
   -1
100
AcDbDimension
  2
*D2
 10
83.5
 20
33.33014354066986
 30
0
 11
40
 21
34.33014354066986
 31
0
 70
   32
 71
    5
  3
Standard
 53
0
210
0
220
0
230
1
100
AcDbAlignedDimension
 13
-3.5
 23
29.5
 33
0
 14
83.5
 24
29.5
 34
0
100
AcDbRotatedDimension
  0
DIMENSION
  5
15A
100
AcDbEntity
  8
Dimensions
  6
ByLayer
 62
  256
370
   -1
100
AcDbDimension
  2
*D3
 10
23.49999999999999
 20
-86.15003579620112
 30
0
 11
9.999999999999993
 21
-85.15003579620112
 31
0
 70
   32
 71
    5
  3
Standard
 53
0
210
0
220
0
230
1
100
AcDbAlignedDimension
 13
-3.500000000000007
 23
-80.25
 33
0
 14
23.49999999999999
 24
-80.25
 34
0
100
AcDbRotatedDimension
  0
DIMENSION
  5
15B
100
AcDbEntity
  8
Dimensions
  6
ByLayer
 62
  256
370
   -1
100
AcDbDimension
  2
*D4
 10
83.5
 20
-86.15003579620112
 30
0
 11
70
 21
-85.15003579620112
 31
0
 70
   32
 71
    5
  3
Standard
 53
0
210
0
220
0
230
1
100
AcDbAlignedDimension
 13
56.49999999999999
 23
-80.25
 33
0
 14
83.5
 24
-80.25
 34
0
100
AcDbRotatedDimension
  0
DIMENSION
  5
15C
100
AcDbEntity
  8
Dimensions
  6
ByLayer
 62
  256
370
   -1
100
AcDbDimension
  2
*D5
 10
55
 20
-86.25395622538834
 30
0
 11
39.99999999999999
 21
-85.25395622538834
 31
0
 70
   32
 71
    5
  3
Standard
 53
0
210
0
220
0
230
1
100
AcDbAlignedDimension
 13
24.99999999999999
 23
-78.75
 33
0
 14
55
 24
-78.75
 34
0
100
AcDbRotatedDimension
  0
LINE
  5
15D
100
AcDbEntity
  8
construction
  6
ByLayer
 62
  256
370
   -1
100
AcDbLine
 10
-3.5
 20
-15.25
 11
143.5
 21
-15.25
  0
LINE
  5
15E
100
AcDbEntity
  8
construction
  6
ByLayer
 62
  256
370
   -1
100
AcDbLine
 10
-3.5
 20
-16.75
 11
143.5
 21
-16.75
  0
LINE
  5
15F
100
AcDbEntity
  8
framing
  6
ByLayer
 62
  256
370
   -1
100
AcDbLine
 10
-3.5
 20
-15.25
 11
83.5
 21
-15.25
  0
LINE
  5
160
100
AcDbEntity
  8
framing
  6
ByLayer
 62
  256
370
   -1
100
AcDbLine
 10
-2
 20
-16.75
 11
82
 21
-16.75
  0
DIMENSION
  5
161
100
AcDbEntity
  8
Dimensions
  6
ByLayer
 62
  256
370
   -1
100
AcDbDimension
  2
*D6
 10
-10
 20
-62.25
 30
0
 11
-11
 21
-38.75
 31
0
 70
   32
 71
    5
  3
Standard
 53
0
210
0
220
0
230
1
100
AcDbAlignedDimension
 13
-3.5
 23
-15.25
 33
0
 14
-3.500000000000003
 24
-62.25
 34
0
 50
90
100
AcDbRotatedDimension
  0
LINE
  5
162
100
AcDbEntity
  8
framing
  6
ByLayer
 62
  256
370
   -1
100
AcDbLine
 10
-3.5
 20
-15.25
 11
-3.500000000000004
 21
-80.25
  0
LINE
  5
163
100
AcDbEntity
  8
framing
  6
ByLayer
 62
  256
370
   -1
100
AcDbLine
 10
-2
 20
-15.25
 11
-2.000000000000004
 21
-80.25
  0
LINE
  5
164
100
AcDbEntity
  8
framing
  6
ByLayer
 62
  256
370
   -1
100
AcDbLine
 10
82
 20
-15.25
 11
82
 21
-80.25
  0
LINE
  5
165
100
AcDbEntity
  8
framing
  6
ByLayer
 62
  256
370
   -1
100
AcDbLine
 10
83.5
 20
-15.25
 11
83.5
 21
-80.25
  0
LWPOLYLINE
  5
166
100
AcDbEntity
  8
framing
  6
ByLayer
 62
  256
370
   -1
100
AcDbPolyline
 90
    4
 70
    1
 43
0
 10
109
 20
-15.25
 10
139
 20
-15.25
 10
139
 20
-16.75
 10
109
 20
-16.75
  0
LINE
  5
167
100
AcDbEntity
  8
framing
  6
ByLayer
 62
  256
370
   -1
100
AcDbLine
 10
109
 20
-80.25
 11
107.5
 21
-80.25
  0
LINE
  5
168
100
AcDbEntity
  8
framing
  6
ByLayer
 62
  256
370
   -1
100
AcDbLine
 10
140.5
 20
-80.25
 11
139
 21
-80.25
  0
LINE
  5
169
100
AcDbEntity
  8
framing
  6
ByLayer
 62
  256
370
   -1
100
AcDbLine
 10
107.5
 20
-80.25
 11
107.5
 21
-15.25
  0
LINE
  5
16A
100
AcDbEntity
  8
framing
  6
ByLayer
 62
  256
370
   -1
100
AcDbLine
 10
109
 20
-15.25
 11
109
 21
-80.25
  0
LINE
  5
16B
100
AcDbEntity
  8
framing
  6
ByLayer
 62
  256
370
   -1
100
AcDbLine
 10
107.5
 20
-15.25
 11
109
 21
-15.25
  0
LINE
  5
16C
100
AcDbEntity
  8
framing
  6
ByLayer
 62
  256
370
   -1
100
AcDbLine
 10
139
 20
-80.25
 11
139
 21
-15.25
  0
LINE
  5
16D
100
AcDbEntity
  8
framing
  6
ByLayer
 62
  256
370
   -1
100
AcDbLine
 10
140.5
 20
-15.25
 11
140.5
 21
-80.25
  0
LINE
  5
16E
100
AcDbEntity
  8
framing
  6
ByLayer
 62
  256
370
   -1
100
AcDbLine
 10
139
 20
-15.25
 11
140.5
 21
-15.25
  0
DIMENSION
  5
16F
100
AcDbEntity
  8
Dimensions
  6
ByLayer
 62
  256
370
   -1
100
AcDbDimension
  2
*D7
 10
140.5
 20
-11
 30
0
 11
124
 21
-10
 31
0
 70
   32
 71
    5
  3
Standard
 53
0
210
0
220
0
230
1
100
AcDbAlignedDimension
 13
107.5
 23
-15.25
 33
0
 14
140.5
 24
-15.25
 34
0
100
AcDbRotatedDimension
  0
DIMENSION
  5
170
100
AcDbEntity
  8
Dimensions
  6
ByLayer
 62
  256
370
   -1
100
AcDbDimension
  2
*D8
 10
150
 20
-80.25
 30
0
 11
149
 21
-47.75
 31
0
 70
   32
 71
    5
  3
Standard
 53
0
210
0
220
0
230
1
100
AcDbAlignedDimension
 13
140.5
 23
-15.25
 33
0
 14
140.5
 24
-80.25
 34
0
 50
90
100
AcDbRotatedDimension
  0
LINE
  5
171
100
AcDbEntity
  8
construction
  6
ByLayer
 62
  256
370
   -1
100
AcDbLine
 10
-3.500000000000012
 20
-104.25
 11
83.5
 21
-104.25
  0
LINE
  5
172
100
AcDbEntity
  8
construction
  6
ByLayer
 62
  256
370
   -1
100
AcDbLine
 10
-2
 20
-3.5
 11
-2.000000000000017
 21
-159.5
  0
LINE
  5
173
100
AcDbEntity
  8
construction
  6
ByLayer
 62
  256
370
   -1
100
AcDbLine
 10
82
 20
-3.5
 11
81.99999999999999
 21
-159.5
  0
LINE
  5
174
100
AcDbEntity
  8
construction
  6
ByLayer
 62
  256
370
   -1
100
AcDbLine
 10
-3.50000000000002
 20
-149.5
 11
83.49999999999999
 21
-149.5
  0
LINE
  5
175
100
AcDbEntity
  8
construction
  6
ByLayer
 62
  256
370
   -1
100
AcDbLine
 10
-0.5
 20
-3.5
 11
-0.5000000000000173
 21
-159.5
  0
LINE
  5
176
100
AcDbEntity
  8
construction
  6
ByLayer
 62
  256
370
   -1
100
AcDbLine
 10
-3.500000000000012
 20
-105.75
 11
83.5
 21
-105.75
  0
LINE
  5
177
100
AcDbEntity
  8
construction
  6
ByLayer
 62
  256
370
   -1
100
AcDbLine
 10
-3.50000000000002
 20
-148
 11
83.49999999999999
 21
-148
  0
LINE
  5
178
100
AcDbEntity
  8
construction
  6
ByLayer
 62
  256
370
   -1
100
AcDbLine
 10
80.5
 20
-3.5
 11
80.49999999999999
 21
-159.5
  0
LWPOLYLINE
  5
179
100
AcDbEntity
  8
framing
  6
ByLayer
 62
  256
370
   -1
100
AcDbPolyline
 90
    4
 70
    1
 43
0
 10
-2.000000000000011
 20
-104.25
 10
81.99999999999999
 20
-104.25
 10
81.99999999999999
 20
-105.75
 10
-2.000000000000011
 20
-105.75
  0
LWPOLYLINE
  5
17A
100
AcDbEntity
  8
framing
  6
ByLayer
 62
  256
370
   -1
100
AcDbPolyline
 90
    4
 70
    1
 43
0
 10
-2.000000000000016
 20
-148
 10
81.99999999999999
 20
-148
 10
81.99999999999999
 20
-149.5
 10
-2.000000000000016
 20
-149.5
  0
LINE
  5
17B
100
AcDbEntity
  8
framing
  6
ByLayer
 62
  256
370
   -1
100
AcDbLine
 10
-2.000000000000011
 20
-105.75
 11
-2.000000000000016
 21
-148
  0
LINE
  5
17C
100
AcDbEntity
  8
framing
  6
ByLayer
 62
  256
370
   -1
100
AcDbLine
 10
-0.500000000000016
 20
-148
 11
-0.5000000000000113
 21
-105.75
  0
LINE
  5
17D
100
AcDbEntity
  8
framing
  6
ByLayer
 62
  256
370
   -1
100
AcDbLine
 10
80.49999999999999
 20
-105.75
 11
80.49999999999999
 21
-148
  0
LINE
  5
17E
100
AcDbEntity
  8
framing
  6
ByLayer
 62
  256
370
   -1
100
AcDbLine
 10
81.99999999999999
 20
-148
 11
81.99999999999999
 21
-105.75
  0
MTEXT
  5
17F
100
AcDbEntity
  8
framing
  6
ByLayer
 62
  256
370
   -1
100
AcDbMText
 10
30
 20
-120
 30
0
 40
2.5
 41
17.70833333333345
 71
    1
 72
    1
  1
Front door
  7
standard
210
0
220
0
230
1
 50
0
 73
    2
 44
1
  0
DIMENSION
  5
180
100
AcDbEntity
  8
Dimensions
  6
ByLayer
 62
  256
370
   -1
100
AcDbDimension
  2
*D9
 10
90
 20
-149.5
 30
0
 11
89
 21
-126.875
 31
0
 70
   32
 71
    5
  3
Standard
 53
0
210
0
220
0
230
1
100
AcDbAlignedDimension
 13
81.99999999999999
 23
-104.25
 33
0
 14
81.99999999999999
 24
-149.5
 34
0
 50
90
100
AcDbRotatedDimension
  0
DIMENSION
  5
181
100
AcDbEntity
  8
Dimensions
  6
ByLayer
 62
  256
370
   -1
100
AcDbDimension
  2
*D10
 10
-10
 20
-148
 30
0
 11
-11
 21
-126.875
 31
0
 70
   32
 71
    5
  3
Standard
 53
0
210
0
220
0
230
1
100
AcDbAlignedDimension
 13
-2.000000000000011
 23
-105.75
 33
0
 14
-2.000000000000016
 24
-148
 34
0
 50
90
100
AcDbRotatedDimension
  0
DIMENSION
  5
182
100
AcDbEntity
  8
Dimensions
  6
ByLayer
 62
  256
370
   -1
100
AcDbDimension
  2
*D11
 10
81.99999999999999
 20
-160
 30
0
 11
39.99999999999999
 21
-159
 31
0
 70
   32
 71
    5
  3
Standard
 53
0
210
0
220
0
230
1
100
AcDbAlignedDimension
 13
-2.000000000000016
 23
-149.5
 33
0
 14
81.99999999999999
 24
-149.5
 34
0
100
AcDbRotatedDimension
  0
DIMENSION
  5
183
100
AcDbEntity
  8
Dimensions
  6
ByLayer
 62
  256
370
   -1
100
AcDbDimension
  2
*D12
 10
90
 20
-62
 30
0
 11
89
 21
-39.375
 31
0
 70
   32
 71
    5
  3
Standard
 53
0
210
0
220
0
230
1
100
AcDbAlignedDimension
 13
83.5
 23
-16.75
 33
0
 14
83.5
 24
-62
 34
0
 50
90
100
AcDbRotatedDimension
  0
ENDSEC
  0
SECTION
  2
OBJECTS
  0
DICTIONARY
  5
C
330
0
100
AcDbDictionary
281
    1
  3
ACAD_GROUP
350
D
  0
DICTIONARY
  5
D
330
C
100
AcDbDictionary
281
    1
  0
ENDSEC
  0
EOF
