999
dxfrw 0.6.3
  0
SECTION
  2
HEADER
  9
$ACADVER
  1
AC1021
  9
$DWGCODEPAGE
  3
ANSI_1252
  9
$INSBASE
 10
0
 20
0
 30
0
  9
$EXTMIN
 10
-12.75000000000002
 20
-360
 30
0
  9
$EXTMAX
 10
206
 20
52.25
 30
0
  9
$LIMMIN
 10
0
 20
0
  9
$LIMMAX
 10
420
 20
297
  9
$ORTHOMODE
 70
    0
  9
$REGENMODE
 70
    1
  9
$FILLMODE
 70
    1
  9
$QTEXTMODE
 70
    0
  9
$MIRRTEXT
 70
    0
  9
$LTSCALE
 40
1
  9
$ATTMODE
 70
    0
  9
$TEXTSIZE
 40
2.5
  9
$TRACEWID
 40
15.68
  9
$TEXTSTYLE
  7
STANDARD
  9
$CLAYER
  8
Dimension
  9
$CELTYPE
  6
BYLAYER
  9
$CECOLOR
 62
  256
  9
$CELTSCALE
 40
1
  9
$DISPSILH
 70
    0
  9
$DIMSCALE
 40
1
  9
$DIMASZ
 40
0.75
  9
$DIMEXO
 40
0.625
  9
$DIMDLI
 40
3.75
  9
$DIMRND
 40
0
  9
$DIMDLE
 40
0
  9
$DIMEXE
 40
1.25
  9
$DIMTP
 40
0
  9
$DIMTM
 40
0
  9
$DIMTXT
 40
2.5
  9
$DIMCEN
 40
2.5
  9
$DIMTSZ
 40
0
  9
$DIMTOL
 70
    0
  9
$DIMLIM
 70
    0
  9
$DIMTIH
 70
    0
  9
$DIMTOH
 70
    0
  9
$DIMSE1
 70
    0
  9
$DIMSE2
 70
    0
  9
$DIMTAD
 70
    1
  9
$DIMZIN
 70
    8
  9
$DIMBLK
  1

  9
$DIMASO
 70
    1
  9
$DIMSHO
 70
    1
  9
$DIMPOST
  1

  9
$DIMAPOST
  1

  9
$DIMALT
 70
    0
  9
$DIMALTD
 70
    3
  9
$DIMALTF
 40
0.03937
  9
$DIMLFAC
 40
1
  9
$DIMTOFL
 70
    1
  9
$DIMTVP
 40
0
  9
$DIMTIX
 70
    0
  9
$DIMSOXD
 70
    0
  9
$DIMSAH
 70
    0
  9
$DIMBLK1
  1

  9
$DIMBLK2
  1

  9
$DIMSTYLE
  2
STANDARD
  9
$DIMCLRD
 70
    0
  9
$DIMCLRE
 70
    0
  9
$DIMCLRT
 70
    0
  9
$DIMTFAC
 40
1
  9
$DIMGAP
 40
0.25
  9
$DIMJUST
 70
    0
  9
$DIMSD1
 70
    0
  9
$DIMSD2
 70
    0
  9
$DIMTOLJ
 70
    0
  9
$DIMTZIN
 70
    8
  9
$DIMALTZ
 70
    0
  9
$DIMALTTZ
 70
    0
  9
$DIMUPT
 70
    0
  9
$DIMDEC
 70
    4
  9
$DIMTDEC
 70
    2
  9
$DIMALTU
 70
    2
  9
$DIMALTTD
 70
    3
  9
$DIMTXSTY
  7
standard
  9
$DIMAUNIT
 70
    0
  9
$DIMADEC
 70
    2
  9
$DIMALTRND
 40
0
  9
$DIMAZIN
 70
    0
  9
$DIMDSEP
 70
   44
  9
$DIMATFIT
 70
    3
  9
$DIMFRAC
 70
    0
  9
$DIMLDRBLK
  1
STANDARD
  9
$DIMLUNIT
 70
    4
  9
$DIMLWD
 70
   -2
  9
$DIMLWE
 70
   -2
  9
$DIMTMOVE
 70
    0
  9
$DIMFXL
 40
0.04
  9
$DIMFXLON
 70
    0
  9
$DIMJOGANG
 40
0.7854
  9
$DIMTFILL
 70
    0
  9
$DIMTFILLCLR
 70
    0
  9
$DIMARCSYM
 70
    0
  9
$DIMLTYPE
  6

  9
$DIMLTEX1
  6

  9
$DIMLTEX2
  6

  9
$LUNITS
 70
    2
  9
$LUPREC
 70
    4
  9
$SKETCHINC
 40
1
  9
$FILLETRAD
 40
0
  9
$AUNITS
 70
    0
  9
$AUPREC
 70
    2
  9
$MENU
  1
.
  9
$ELEVATION
 40
0
  9
$PELEVATION
 40
0
  9
$THICKNESS
 40
0
  9
$LIMCHECK
 70
    0
  9
$CHAMFERA
 40
0
  9
$CHAMFERB
 40
0
  9
$CHAMFERC
 40
0
  9
$CHAMFERD
 40
0
  9
$SKPOLY
 70
    0
  9
$USRTIMER
 70
    1
  9
$ANGBASE
 50
0
  9
$ANGDIR
 70
    0
  9
$PDMODE
 70
   34
  9
$PDSIZE
 40
0
  9
$PLINEWID
 40
0
  9
$SPLFRAME
 70
    0
  9
$SPLINETYPE
 70
    2
  9
$SPLINESEGS
 70
    8
  9
$HANDSEED
  5
20000
  9
$SURFTAB1
 70
    6
  9
$SURFTAB2
 70
    6
  9
$SURFTYPE
 70
    6
  9
$SURFU
 70
    6
  9
$SURFV
 70
    6
  9
$UCSBASE
  2

  9
$UCSNAME
  2

  9
$UCSORG
 10
0
 20
0
 30
0
  9
$UCSXDIR
 10
1
 20
0
 30
0
  9
$UCSYDIR
 10
0
 20
1
 30
0
  9
$UCSORTHOREF
  2

  9
$UCSORTHOVIEW
 70
    0
  9
$UCSORGTOP
 10
0
 20
0
 30
0
  9
$UCSORGBOTTOM
 10
0
 20
0
 30
0
  9
$UCSORGLEFT
 10
0
 20
0
 30
0
  9
$UCSORGRIGHT
 10
0
 20
0
 30
0
  9
$UCSORGFRONT
 10
0
 20
0
 30
0
  9
$UCSORGBACK
 10
0
 20
0
 30
0
  9
$PUCSBASE
  2

  9
$PUCSNAME
  2

  9
$PUCSORG
 10
0
 20
0
 30
0
  9
$PUCSXDIR
 10
1
 20
0
 30
0
  9
$PUCSYDIR
 10
0
 20
1
 30
0
  9
$PUCSORTHOREF
  2

  9
$PUCSORTHOVIEW
 70
    0
  9
$PUCSORGTOP
 10
0
 20
0
 30
0
  9
$PUCSORGBOTTOM
 10
0
 20
0
 30
0
  9
$PUCSORGLEFT
 10
0
 20
0
 30
0
  9
$PUCSORGRIGHT
 10
0
 20
0
 30
0
  9
$PUCSORGFRONT
 10
0
 20
0
 30
0
  9
$PUCSORGBACK
 10
0
 20
0
 30
0
  9
$USERI1
 70
    0
  9
$USERI2
 70
    0
  9
$USERI3
 70
    0
  9
$USERI4
 70
    0
  9
$USERI5
 70
    0
  9
$USERR1
 40
0
  9
$USERR2
 40
0
  9
$USERR3
 40
0
  9
$USERR4
 40
0
  9
$USERR5
 40
0
  9
$WORLDVIEW
 70
    1
  9
$SHADEDGE
 70
    3
  9
$SHADEDIF
 70
   70
  9
$TILEMODE
 70
    1
  9
$MAXACTVP
 70
   64
  9
$PINSBASE
 10
0
 20
0
 30
0
  9
$PLIMCHECK
 70
    0
  9
$PEXTMIN
 10
0
 20
0
 30
0
  9
$PEXTMAX
 10
0
 20
0
 30
0
  9
$GRIDMODE
 70
    1
  9
$SNAPSTYLE
 70
    0
  9
$PLIMMIN
 10
0
 20
0
  9
$PLIMMAX
 10
3.078734e-08
 20
4.354322e-08
  9
$UNITMODE
 70
    0
  9
$VISRETAIN
 70
    1
  9
$PLINEGEN
 70
    0
  9
$PSLTSCALE
 70
    1
  9
$TREEDEPTH
 70
 3020
  9
$CMLSTYLE
  2
Standard
  9
$CMLJUST
 70
    0
  9
$CMLSCALE
 40
20
  9
$PROXYGRAPHICS
 70
    1
  9
$MEASUREMENT
 70
    1
  9
$CELWEIGHT
370
   -1
  9
$ENDCAPS
280
    0
  9
$JOINSTYLE
280
    0
  9
$LWDISPLAY
290
    0
  9
$INSUNITS
 70
    0
  9
$HYPERLINKBASE
  1

  9
$STYLESHEET
  1

  9
$XEDIT
290
    1
  9
$CEPSNTYPE
380
    0
  9
$PSTYLEMODE
290
    1
  9
$EXTNAMES
290
    1
  9
$PSVPSCALE
 40
0
  9
$OLESTARTUP
290
    0
  9
$SORTENTS
280
  127
  9
$INDEXCTL
280
    0
  9
$HIDETEXT
280
    1
  9
$XCLIPFRAME
290
    0
  9
$HALOGAP
280
    0
  9
$OBSCOLOR
 70
  257
  9
$OBSLTYPE
280
    0
  9
$INTERSECTIONDISPLAY
280
    0
  9
$INTERSECTIONCOLOR
 70
  257
  9
$DIMASSOC
280
    1
  9
$PROJECTNAME
  1

  9
$CAMERADISPLAY
290
    0
  9
$LENSLENGTH
 40
50
  9
$CAMERAHEIGHT
 40
0
  9
$STEPSPERSEC
 40
2
  9
$STEPSIZE
 40
50
  9
$3DDWFPREC
 40
2
  9
$PSOLWIDTH
 40
5
  9
$PSOLHEIGHT
 40
80
  9
$LOFTANG1
 40
1.570796326794897
  9
$LOFTANG2
 40
1.570796326794897
  9
$LOFTMAG1
 40
0
  9
$LOFTMAG2
 40
0
  9
$LOFTPARAM
 70
    7
  9
$LOFTNORMALS
280
    1
  9
$LATITUDE
 40
1
  9
$LONGITUDE
 40
1
  9
$NORTHDIRECTION
 40
0
  9
$TIMEZONE
 70
-8000
  9
$LIGHTGLYPHDISPLAY
280
    1
  9
$TILEMODELIGHTSYNCH
280
    1
  9
$SOLIDHIST
280
    1
  9
$SHOWHIST
280
    1
  9
$DWFFRAME
280
    2
  9
$DGNFRAME
280
    0
  9
$REALWORLDSCALE
290
    1
  9
$INTERFERECOLOR
 62
    1
  9
$CSHADOW
280
    0
  9
$SHADOWPLANELOCATION
 40
0
  0
ENDSEC
  0
SECTION
  2
CLASSES
  0
ENDSEC
  0
SECTION
  2
TABLES
  0
TABLE
  2
VPORT
  5
8
330
0
100
AcDbSymbolTable
 70
    1
  0
VPORT
  5
31
330
2
100
AcDbSymbolTableRecord
100
AcDbViewportTableRecord
  2
*ACTIVE
 70
    0
 10
0
 20
0
 11
1
 21
1
 12
305.1259236453202
 22
31.47721674876847
 13
0
 23
0
 14
10
 24
10
 15
10
 25
10
 16
0
 26
0
 36
1
 17
0
 27
0
 37
0
 40
432.557881773399
 41
2.370892018779343
 42
50
 43
0
 44
0
 50
0
 51
0
 71
    0
 72
  100
 73
    1
 74
    3
 75
    0
 76
    1
 77
    0
 78
    0
281
    0
 65
    1
110
0
120
0
130
0
111
1
121
0
131
0
112
0
122
1
132
0
 79
    0
146
0
348
10020
 60
    7
 61
    5
292
1
282
    1
141
0
142
0
 63
  250
421
3358443
  0
ENDTAB
  0
TABLE
  2
LTYPE
  5
5
330
0
100
AcDbSymbolTable
 70
    4
  0
LTYPE
  5
14
330
5
100
AcDbSymbolTableRecord
100
AcDbLinetypeTableRecord
  2
ByBlock
 70
    0
  3

 72
   65
 73
    0
 40
0
  0
LTYPE
  5
15
330
5
100
AcDbSymbolTableRecord
100
AcDbLinetypeTableRecord
  2
ByLayer
 70
    0
  3

 72
   65
 73
    0
 40
0
  0
LTYPE
  5
16
330
5
100
AcDbSymbolTableRecord
100
AcDbLinetypeTableRecord
  2
Continuous
 70
    0
  3
Solid line
 72
   65
 73
    0
 40
0
  0
LTYPE
  5
32
330
5
100
AcDbSymbolTableRecord
100
AcDbLinetypeTableRecord
  2
DOT
 70
    0
  3
Dot . . . . . . . . . . . . . . . . . . . . . .
 72
   65
 73
    2
 40
6.35
 49
0
 74
    0
 49
-6.35
 74
    0
  0
LTYPE
  5
33
330
5
100
AcDbSymbolTableRecord
100
AcDbLinetypeTableRecord
  2
DOTTINY
 70
    0
  3
Dot (.15x) .....................................
 72
   65
 73
    2
 40
0.9525
 49
0
 74
    0
 49
-0.9525
 74
    0
  0
LTYPE
  5
34
330
5
100
AcDbSymbolTableRecord
100
AcDbLinetypeTableRecord
  2
DOT2
 70
    0
  3
Dot (.5x) .....................................
 72
   65
 73
    2
 40
3.175
 49
0
 74
    0
 49
-3.175
 74
    0
  0
LTYPE
  5
35
330
5
100
AcDbSymbolTableRecord
100
AcDbLinetypeTableRecord
  2
DOTX2
 70
    0
  3
Dot (2x) .  .  .  .  .  .  .  .  .  .  .  .  .
 72
   65
 73
    2
 40
12.7
 49
0
 74
    0
 49
-12.7
 74
    0
  0
LTYPE
  5
36
330
5
100
AcDbSymbolTableRecord
100
AcDbLinetypeTableRecord
  2
DASHED
 70
    0
  3
Dashed _ _ _ _ _ _ _ _ _ _ _ _ _ _ _ _ _
 72
   65
 73
    2
 40
19.05
 49
12.7
 74
    0
 49
-6.35
 74
    0
  0
LTYPE
  5
37
330
5
100
AcDbSymbolTableRecord
100
AcDbLinetypeTableRecord
  2
DASHEDTINY
 70
    0
  3
Dashed (.15x) _ _ _ _ _ _ _ _ _ _ _ _ _ _ _ _ _
 72
   65
 73
    2
 40
2.8575
 49
1.905
 74
    0
 49
-0.9525
 74
    0
  0
LTYPE
  5
38
330
5
100
AcDbSymbolTableRecord
100
AcDbLinetypeTableRecord
  2
DASHED2
 70
    0
  3
Dashed (.5x) _ _ _ _ _ _ _ _ _ _ _ _ _ _ _ _ _
 72
   65
 73
    2
 40
9.524999999999999
 49
6.35
 74
    0
 49
-3.175
 74
    0
  0
LTYPE
  5
39
330
5
100
AcDbSymbolTableRecord
100
AcDbLinetypeTableRecord
  2
DASHEDX2
 70
    0
  3
Dashed (2x) ____  ____  ____  ____  ____  ___
 72
   65
 73
    2
 40
38.09999999999999
 49
25.4
 74
    0
 49
-12.7
 74
    0
  0
LTYPE
  5
3A
330
5
100
AcDbSymbolTableRecord
100
AcDbLinetypeTableRecord
  2
DASHDOT
 70
    0
  3
Dash dot __ . __ . __ . __ . __ . __ . __ . __
 72
   65
 73
    4
 40
25.4
 49
12.7
 74
    0
 49
-6.35
 74
    0
 49
0
 74
    0
 49
-6.35
 74
    0
  0
LTYPE
  5
3B
330
5
100
AcDbSymbolTableRecord
100
AcDbLinetypeTableRecord
  2
DASHDOTTINY
 70
    0
  3
Dash dot (.15x) _._._._._._._._._._._._._._._.
 72
   65
 73
    4
 40
3.81
 49
1.905
 74
    0
 49
-0.9525
 74
    0
 49
0
 74
    0
 49
-0.9525
 74
    0
  0
LTYPE
  5
3C
330
5
100
AcDbSymbolTableRecord
100
AcDbLinetypeTableRecord
  2
DASHDOT2
 70
    0
  3
Dash dot (.5x) _._._._._._._._._._._._._._._.
 72
   65
 73
    4
 40
12.7
 49
6.35
 74
    0
 49
-3.175
 74
    0
 49
0
 74
    0
 49
-3.175
 74
    0
  0
LTYPE
  5
3D
330
5
100
AcDbSymbolTableRecord
100
AcDbLinetypeTableRecord
  2
DASHDOTX2
 70
    0
  3
Dash dot (2x) ____  .  ____  .  ____  .  ___
 72
   65
 73
    4
 40
50.8
 49
25.4
 74
    0
 49
-12.7
 74
    0
 49
0
 74
    0
 49
-12.7
 74
    0
  0
LTYPE
  5
3E
330
5
100
AcDbSymbolTableRecord
100
AcDbLinetypeTableRecord
  2
DIVIDE
 70
    0
  3
Divide ____ . . ____ . . ____ . . ____ . . ____
 72
   65
 73
    6
 40
31.75
 49
12.7
 74
    0
 49
-6.35
 74
    0
 49
0
 74
    0
 49
-6.35
 74
    0
 49
0
 74
    0
 49
-6.35
 74
    0
  0
LTYPE
  5
3F
330
5
100
AcDbSymbolTableRecord
100
AcDbLinetypeTableRecord
  2
DIVIDETINY
 70
    0
  3
Divide (.15x) __..__..__..__..__..__..__..__.._
 72
   65
 73
    6
 40
4.7625
 49
1.905
 74
    0
 49
-0.9525
 74
    0
 49
0
 74
    0
 49
-0.9525
 74
    0
 49
0
 74
    0
 49
-0.9525
 74
    0
  0
LTYPE
  5
40
330
5
100
AcDbSymbolTableRecord
100
AcDbLinetypeTableRecord
  2
DIVIDE2
 70
    0
  3
Divide (.5x) __..__..__..__..__..__..__..__.._
 72
   65
 73
    6
 40
15.875
 49
6.35
 74
    0
 49
-3.175
 74
    0
 49
0
 74
    0
 49
-3.175
 74
    0
 49
0
 74
    0
 49
-3.175
 74
    0
  0
LTYPE
  5
41
330
5
100
AcDbSymbolTableRecord
100
AcDbLinetypeTableRecord
  2
DIVIDEX2
 70
    0
  3
Divide (2x) ________  .  .  ________  .  .  _
 72
   65
 73
    6
 40
63.5
 49
25.4
 74
    0
 49
-12.7
 74
    0
 49
0
 74
    0
 49
-12.7
 74
    0
 49
0
 74
    0
 49
-12.7
 74
    0
  0
LTYPE
  5
42
330
5
100
AcDbSymbolTableRecord
100
AcDbLinetypeTableRecord
  2
BORDER
 70
    0
  3
Border __ __ . __ __ . __ __ . __ __ . __ __ .
 72
   65
 73
    6
 40
44.45
 49
12.7
 74
    0
 49
-6.35
 74
    0
 49
12.7
 74
    0
 49
-6.35
 74
    0
 49
0
 74
    0
 49
-6.35
 74
    0
  0
LTYPE
  5
43
330
5
100
AcDbSymbolTableRecord
100
AcDbLinetypeTableRecord
  2
BORDERTINY
 70
    0
  3
Border (.15x) __.__.__.__.__.__.__.__.__.__.__.
 72
   65
 73
    6
 40
6.6675
 49
1.905
 74
    0
 49
-0.9525
 74
    0
 49
1.905
 74
    0
 49
-0.9525
 74
    0
 49
0
 74
    0
 49
-0.9525
 74
    0
  0
LTYPE
  5
44
330
5
100
AcDbSymbolTableRecord
100
AcDbLinetypeTableRecord
  2
BORDER2
 70
    0
  3
Border (.5x) __.__.__.__.__.__.__.__.__.__.__.
 72
   65
 73
    6
 40
22.225
 49
6.35
 74
    0
 49
-3.175
 74
    0
 49
6.35
 74
    0
 49
-3.175
 74
    0
 49
0
 74
    0
 49
-3.175
 74
    0
  0
LTYPE
  5
45
330
5
100
AcDbSymbolTableRecord
100
AcDbLinetypeTableRecord
  2
BORDERX2
 70
    0
  3
Border (2x) ____  ____  .  ____  ____  .  ___
 72
   65
 73
    6
 40
88.89999999999999
 49
25.4
 74
    0
 49
-12.7
 74
    0
 49
25.4
 74
    0
 49
-12.7
 74
    0
 49
0
 74
    0
 49
-12.7
 74
    0
  0
LTYPE
  5
46
330
5
100
AcDbSymbolTableRecord
100
AcDbLinetypeTableRecord
  2
CENTER
 70
    0
  3
Center ____ _ ____ _ ____ _ ____ _ ____ _ ____
 72
   65
 73
    4
 40
50.8
 49
31.75
 74
    0
 49
-6.35
 74
    0
 49
6.35
 74
    0
 49
-6.35
 74
    0
  0
LTYPE
  5
47
330
5
100
AcDbSymbolTableRecord
100
AcDbLinetypeTableRecord
  2
CENTERTINY
 70
    0
  3
Center (.15x) ___ _ ___ _ ___ _ ___ _ ___ _ ___
 72
   65
 73
    4
 40
7.619999999999999
 49
4.7625
 74
    0
 49
-0.9525
 74
    0
 49
0.9525
 74
    0
 49
-0.9525
 74
    0
  0
LTYPE
  5
48
330
5
100
AcDbSymbolTableRecord
100
AcDbLinetypeTableRecord
  2
CENTER2
 70
    0
  3
Center (.5x) ___ _ ___ _ ___ _ ___ _ ___ _ ___
 72
   65
 73
    4
 40
28.575
 49
19.05
 74
    0
 49
-3.175
 74
    0
 49
3.175
 74
    0
 49
-3.175
 74
    0
  0
LTYPE
  5
49
330
5
100
AcDbSymbolTableRecord
100
AcDbLinetypeTableRecord
  2
CENTERX2
 70
    0
  3
Center (2x) ________  __  ________  __  _____
 72
   65
 73
    4
 40
101.6
 49
63.5
 74
    0
 49
-12.7
 74
    0
 49
12.7
 74
    0
 49
-12.7
 74
    0
  0
ENDTAB
  0
TABLE
  2
LAYER
  5
2
330
0
100
AcDbSymbolTable
 70
    1
  0
LAYER
  5
10
330
2
100
AcDbSymbolTableRecord
100
AcDbLayerTableRecord
  2
0
 70
    0
 62
    7
  6
CONTINUOUS
370
    0
390
F
  0
LAYER
  5
4A
330
2
100
AcDbSymbolTableRecord
100
AcDbLayerTableRecord
  2
Cut
 70
    0
 62
    4
  6
CONTINUOUS
370
    0
390
F
  0
LAYER
  5
4B
330
2
100
AcDbSymbolTableRecord
100
AcDbLayerTableRecord
  2
Dimension
 70
    0
 62
    3
  6
CONTINUOUS
370
    0
390
F
  0
LAYER
  5
4C
330
2
100
AcDbSymbolTableRecord
100
AcDbLayerTableRecord
  2
construction
 70
    0
 62
    1
  6
DASHDOT2
370
    0
390
F
  0
ENDTAB
  0
TABLE
  2
STYLE
  5
3
330
0
100
AcDbSymbolTable
 70
    3
  0
STYLE
  5
4D
330
2
100
AcDbSymbolTableRecord
100
AcDbTextStyleTableRecord
  2
STANDARD
 70
    0
 40
0
 41
1
 50
0
 71
    0
 42
1
  3
STANDARD
  4

  0
ENDTAB
  0
TABLE
  2
VIEW
  5
6
330
0
100
AcDbSymbolTable
 70
    0
  0
ENDTAB
  0
TABLE
  2
UCS
  5
7
330
0
100
AcDbSymbolTable
 70
    0
  0
ENDTAB
  0
TABLE
  2
APPID
  5
9
330
0
100
AcDbSymbolTable
 70
    1
  0
APPID
  5
12
330
9
100
AcDbSymbolTableRecord
100
AcDbRegAppTableRecord
  2
ACAD
 70
    0
  0
APPID
  5
4E
330
9
100
AcDbSymbolTableRecord
100
AcDbRegAppTableRecord
  2
LibreCad
 70
    0
  0
ENDTAB
  0
TABLE
  2
DIMSTYLE
  5
A
330
0
100
AcDbSymbolTable
 70
    1
100
AcDbDimStyleTable
 71
    1
  0
DIMSTYLE
105
4F
330
A
100
AcDbSymbolTableRecord
100
AcDbDimStyleTableRecord
  2
Standard
 70
    0
 40
1
 41
0.75
 42
0.625
 43
0.38
 44
1.25
 45
0
 46
0
 47
0
 48
0
 49
0.04
140
2.5
141
0.09
142
0
143
25.4
144
1
145
0
146
1
147
0.25
148
0
 71
    0
 72
    0
 73
    0
 74
    1
 75
    0
 76
    0
 77
    0
 78
    8
 79
    0
170
    0
171
    2
172
    0
173
    0
174
    0
175
    0
176
    0
177
    0
178
    0
179
    2
271
    4
272
    4
273
    2
274
    2
275
    0
276
    0
277
    4
278
   44
279
    0
280
    0
281
    0
282
    0
283
    1
284
    0
285
    0
286
    0
288
    0
289
    3
340
standard
341

371
   -2
372
   -2
  0
ENDTAB
  0
TABLE
  2
BLOCK_RECORD
  5
1
330
0
100
AcDbSymbolTable
 70
    2
  0
BLOCK_RECORD
  5
1F
330
1
100
AcDbSymbolTableRecord
100
AcDbBlockTableRecord
  2
*Model_Space
 70
    0
280
    1
281
    0
  0
BLOCK_RECORD
  5
1E
330
1
100
AcDbSymbolTableRecord
100
AcDbBlockTableRecord
  2
*Paper_Space
 70
    0
280
    1
281
    0
  0
BLOCK_RECORD
  5
50
330
1
100
AcDbSymbolTableRecord
100
AcDbBlockTableRecord
  2
*D27
 70
    0
280
    1
281
    0
  0
BLOCK_RECORD
  5
53
330
1
100
AcDbSymbolTableRecord
100
AcDbBlockTableRecord
  2
*D15
 70
    0
280
    1
281
    0
  0
BLOCK_RECORD
  5
56
330
1
100
AcDbSymbolTableRecord
100
AcDbBlockTableRecord
  2
*D16
 70
    0
280
    1
281
    0
  0
BLOCK_RECORD
  5
59
330
1
100
AcDbSymbolTableRecord
100
AcDbBlockTableRecord
  2
*D7
 70
    0
280
    1
281
    0
  0
BLOCK_RECORD
  5
5C
330
1
100
AcDbSymbolTableRecord
100
AcDbBlockTableRecord
  2
*D19
 70
    0
280
    1
281
    0
  0
BLOCK_RECORD
  5
5F
330
1
100
AcDbSymbolTableRecord
100
AcDbBlockTableRecord
  2
*D23
 70
    0
280
    1
281
    0
  0
BLOCK_RECORD
  5
62
330
1
100
AcDbSymbolTableRecord
100
AcDbBlockTableRecord
  2
*D8
 70
    0
280
    1
281
    0
  0
BLOCK_RECORD
  5
65
330
1
100
AcDbSymbolTableRecord
100
AcDbBlockTableRecord
  2
*D13
 70
    0
280
    1
281
    0
  0
BLOCK_RECORD
  5
68
330
1
100
AcDbSymbolTableRecord
100
AcDbBlockTableRecord
  2
*D22
 70
    0
280
    1
281
    0
  0
BLOCK_RECORD
  5
6B
330
1
100
AcDbSymbolTableRecord
100
AcDbBlockTableRecord
  2
*D29
 70
    0
280
    1
281
    0
  0
BLOCK_RECORD
  5
6E
330
1
100
AcDbSymbolTableRecord
100
AcDbBlockTableRecord
  2
*D3
 70
    0
280
    1
281
    0
  0
BLOCK_RECORD
  5
71
330
1
100
AcDbSymbolTableRecord
100
AcDbBlockTableRecord
  2
*D17
 70
    0
280
    1
281
    0
  0
BLOCK_RECORD
  5
74
330
1
100
AcDbSymbolTableRecord
100
AcDbBlockTableRecord
  2
*D32
 70
    0
280
    1
281
    0
  0
BLOCK_RECORD
  5
77
330
1
100
AcDbSymbolTableRecord
100
AcDbBlockTableRecord
  2
*D4
 70
    0
280
    1
281
    0
  0
BLOCK_RECORD
  5
7A
330
1
100
AcDbSymbolTableRecord
100
AcDbBlockTableRecord
  2
*D21
 70
    0
280
    1
281
    0
  0
BLOCK_RECORD
  5
7D
330
1
100
AcDbSymbolTableRecord
100
AcDbBlockTableRecord
  2
*D9
 70
    0
280
    1
281
    0
  0
BLOCK_RECORD
  5
80
330
1
100
AcDbSymbolTableRecord
100
AcDbBlockTableRecord
  2
*D1
 70
    0
280
    1
281
    0
  0
BLOCK_RECORD
  5
83
330
1
100
AcDbSymbolTableRecord
100
AcDbBlockTableRecord
  2
*D6
 70
    0
280
    1
281
    0
  0
BLOCK_RECORD
  5
86
330
1
100
AcDbSymbolTableRecord
100
AcDbBlockTableRecord
  2
*D25
 70
    0
280
    1
281
    0
  0
BLOCK_RECORD
  5
89
330
1
100
AcDbSymbolTableRecord
100
AcDbBlockTableRecord
  2
*D5
 70
    0
280
    1
281
    0
  0
BLOCK_RECORD
  5
8C
330
1
100
AcDbSymbolTableRecord
100
AcDbBlockTableRecord
  2
*D14
 70
    0
280
    1
281
    0
  0
BLOCK_RECORD
  5
8F
330
1
100
AcDbSymbolTableRecord
100
AcDbBlockTableRecord
  2
*D24
 70
    0
280
    1
281
    0
  0
BLOCK_RECORD
  5
92
330
1
100
AcDbSymbolTableRecord
100
AcDbBlockTableRecord
  2
*D20
 70
    0
280
    1
281
    0
  0
BLOCK_RECORD
  5
95
330
1
100
AcDbSymbolTableRecord
100
AcDbBlockTableRecord
  2
*D30
 70
    0
280
    1
281
    0
  0
BLOCK_RECORD
  5
98
330
1
100
AcDbSymbolTableRecord
100
AcDbBlockTableRecord
  2
*D12
 70
    0
280
    1
281
    0
  0
BLOCK_RECORD
  5
9B
330
1
100
AcDbSymbolTableRecord
100
AcDbBlockTableRecord
  2
*D18
 70
    0
280
    1
281
    0
  0
BLOCK_RECORD
  5
9E
330
1
100
AcDbSymbolTableRecord
100
AcDbBlockTableRecord
  2
*D26
 70
    0
280
    1
281
    0
  0
BLOCK_RECORD
  5
A1
330
1
100
AcDbSymbolTableRecord
100
AcDbBlockTableRecord
  2
*D28
 70
    0
280
    1
281
    0
  0
BLOCK_RECORD
  5
A4
330
1
100
AcDbSymbolTableRecord
100
AcDbBlockTableRecord
  2
*D10
 70
    0
280
    1
281
    0
  0
BLOCK_RECORD
  5
A7
330
1
100
AcDbSymbolTableRecord
100
AcDbBlockTableRecord
  2
*D2
 70
    0
280
    1
281
    0
  0
BLOCK_RECORD
  5
AA
330
1
100
AcDbSymbolTableRecord
100
AcDbBlockTableRecord
  2
*D11
 70
    0
280
    1
281
    0
  0
BLOCK_RECORD
  5
AD
330
1
100
AcDbSymbolTableRecord
100
AcDbBlockTableRecord
  2
*D31
 70
    0
280
    1
281
    0
  0
ENDTAB
  0
ENDSEC
  0
SECTION
  2
BLOCKS
  0
BLOCK
  5
20
330
1F
100
AcDbEntity
  8
0
100
AcDbBlockBegin
  2
*Model_Space
 70
    0
 10
0
 20
0
 30
0
  3
*Model_Space
  1

  0
ENDBLK
  5
21
330
1F
100
AcDbEntity
  8
0
100
AcDbBlockEnd
  0
BLOCK
  5
1C
330
1B
100
AcDbEntity
  8
0
100
AcDbBlockBegin
  2
*Paper_Space
 70
    0
 10
0
 20
0
 30
0
  3
*Paper_Space
  1

  0
ENDBLK
  5
1D
330
1F
100
AcDbEntity
  8
0
100
AcDbBlockEnd
  0
BLOCK
  5
51
330
50
100
AcDbEntity
  8
0
100
AcDbBlockBegin
  2
*D27
 70
    1
 10
0
 20
0
  3
*D27
  1

  0
LINE
  5
B0
100
AcDbEntity
  8
Dimension
  6
ByBlock
 62
    0
370
   -2
100
AcDbLine
 10
-5.684341886080801e-14
 20
-310
 11
32.99999999999994
 21
-310
  0
SOLID
  5
B1
100
AcDbEntity
  8
Dimension
  6
ByBlock
 62
    0
370
   -2
100
AcDbTrace
 10
-5.684341886080801e-14
 20
-310
 30
0
 11
0.7499999999999432
 21
-309.8751146026681
 31
0
 12
0.7499999999999432
 22
-310.1248853973319
 32
0
 13
0.7499999999999432
 23
-310.1248853973319
 33
0
  0
SOLID
  5
B2
100
AcDbEntity
  8
Dimension
  6
ByBlock
 62
    0
370
   -2
100
AcDbTrace
 10
32.99999999999994
 20
-310
 30
0
 11
32.24999999999994
 21
-310.1248853973319
 31
0
 12
32.24999999999994
 22
-309.8751146026681
 32
0
 13
32.24999999999994
 23
-309.8751146026681
 33
0
  0
MTEXT
  5
B3
100
AcDbEntity
  8
Dimension
  6
CONTINUOUS
 62
    0
370
   -2
100
AcDbMText
 10
16.49999999999994
 20
-308.5
 30
0
 40
2.5
 41
7.916666666666666
 71
    5
 72
    1
  1
2'-9"
  7
standard
210
0
220
0
230
1
 50
0
 73
    2
 44
1
  0
LINE
  5
B4
100
AcDbEntity
  8
Dimension
  6
ByBlock
 62
    0
370
   -2
100
AcDbLine
 10
-5.713642210954463e-14
 20
-311.375
 11
-5.648932267970501e-14
 21
-308.75
  0
LINE
  5
B5
100
AcDbEntity
  8
Dimension
  6
ByBlock
 62
    0
370
   -2
100
AcDbLine
 10
32.99999999999994
 20
-311.375
 11
32.99999999999994
 21
-308.75
  0
ENDBLK
  5
52
330
50
100
AcDbEntity
  8
0
100
AcDbBlockEnd
  0
BLOCK
  5
54
330
53
100
AcDbEntity
  8
0
100
AcDbBlockBegin
  2
*D15
 70
    1
 10
0
 20
0
  3
*D15
  1

  0
LINE
  5
B6
100
AcDbEntity
  8
Dimension
  6
ByBlock
 62
    0
370
   -2
100
AcDbLine
 10
100
 20
-192
 11
100
 21
-225
  0
SOLID
  5
B7
100
AcDbEntity
  8
Dimension
  6
ByBlock
 62
    0
370
   -2
100
AcDbTrace
 10
100
 20
-192
 30
0
 11
100.1248853973319
 21
-192.75
 31
0
 12
99.87511460266815
 22
-192.75
 32
0
 13
99.87511460266815
 23
-192.75
 33
0
  0
SOLID
  5
B8
100
AcDbEntity
  8
Dimension
  6
ByBlock
 62
    0
370
   -2
100
AcDbTrace
 10
100
 20
-225
 30
0
 11
99.87511460266815
 21
-224.25
 31
0
 12
100.1248853973319
 22
-224.25
 32
0
 13
100.1248853973319
 23
-224.25
 33
0
  0
MTEXT
  5
B9
100
AcDbEntity
  8
Dimension
  6
CONTINUOUS
 62
    0
370
   -2
100
AcDbMText
 10
98.5
 20
-208.5
 30
0
 40
2.5
 41
7.916666666666666
 71
    5
 72
    1
  1
2'-9"
  7
standard
210
0
220
0
230
1
 50
90
 73
    2
 44
1
  0
LINE
  5
BA
100
AcDbEntity
  8
Dimension
  6
ByBlock
 62
    0
370
   -2
100
AcDbLine
 10
96.62499999999996
 20
-192
 11
101.25
 21
-192
  0
LINE
  5
BB
100
AcDbEntity
  8
Dimension
  6
ByBlock
 62
    0
370
   -2
100
AcDbLine
 10
96.62499999999994
 20
-225
 11
101.25
 21
-225
  0
ENDBLK
  5
55
330
53
100
AcDbEntity
  8
0
100
AcDbBlockEnd
  0
BLOCK
  5
57
330
56
100
AcDbEntity
  8
0
100
AcDbBlockBegin
  2
*D16
 70
    1
 10
0
 20
0
  3
*D16
  1

  0
LINE
  5
BC
100
AcDbEntity
  8
Dimension
  6
ByBlock
 62
    0
370
   -2
100
AcDbLine
 10
100
 20
-225
 11
100
 21
-240
  0
SOLID
  5
BD
100
AcDbEntity
  8
Dimension
  6
ByBlock
 62
    0
370
   -2
100
AcDbTrace
 10
100
 20
-225
 30
0
 11
100.1248853973319
 21
-225.75
 31
0
 12
99.87511460266815
 22
-225.75
 32
0
 13
99.87511460266815
 23
-225.75
 33
0
  0
SOLID
  5
BE
100
AcDbEntity
  8
Dimension
  6
ByBlock
 62
    0
370
   -2
100
AcDbTrace
 10
100
 20
-240
 30
0
 11
99.87511460266815
 21
-239.25
 31
0
 12
100.1248853973319
 22
-239.25
 32
0
 13
100.1248853973319
 23
-239.25
 33
0
  0
MTEXT
  5
BF
100
AcDbEntity
  8
Dimension
  6
CONTINUOUS
 62
    0
370
   -2
100
AcDbMText
 10
98.5
 20
-232.5
 30
0
 40
2.5
 41
7.361111111111265
 71
    5
 72
    1
  1
1'-3"
  7
standard
210
0
220
0
230
1
 50
90
 73
    2
 44
1
  0
LINE
  5
C0
100
AcDbEntity
  8
Dimension
  6
ByBlock
 62
    0
370
   -2
100
AcDbLine
 10
96.62499999999996
 20
-225
 11
101.25
 21
-225
  0
LINE
  5
C1
100
AcDbEntity
  8
Dimension
  6
ByBlock
 62
    0
370
   -2
100
AcDbLine
 10
96.62499999999994
 20
-240
 11
101.25
 21
-240
  0
ENDBLK
  5
58
330
56
100
AcDbEntity
  8
0
100
AcDbBlockEnd
  0
BLOCK
  5
5A
330
59
100
AcDbEntity
  8
0
100
AcDbBlockBegin
  2
*D7
 70
    1
 10
0
 20
0
  3
*D7
  1

  0
LINE
  5
C2
100
AcDbEntity
  8
Dimension
  6
ByBlock
 62
    0
370
   -2
100
AcDbLine
 10
-1.4210854715202e-14
 20
-70
 11
65.24999999999999
 21
-70
  0
SOLID
  5
C3
100
AcDbEntity
  8
Dimension
  6
ByBlock
 62
    0
370
   -2
100
AcDbTrace
 10
-1.4210854715202e-14
 20
-70
 30
0
 11
0.7499999999999858
 21
-69.87511460266815
 31
0
 12
0.7499999999999858
 22
-70.12488539733185
 32
0
 13
0.7499999999999858
 23
-70.12488539733185
 33
0
  0
SOLID
  5
C4
100
AcDbEntity
  8
Dimension
  6
ByBlock
 62
    0
370
   -2
100
AcDbTrace
 10
65.24999999999999
 20
-70
 30
0
 11
64.49999999999999
 21
-70.12488539733185
 31
0
 12
64.49999999999999
 22
-69.87511460266815
 32
0
 13
64.49999999999999
 23
-69.87511460266815
 33
0
  0
MTEXT
  5
C5
100
AcDbEntity
  8
Dimension
  6
CONTINUOUS
 62
    0
370
   -2
100
AcDbMText
 10
32.62499999999999
 20
-68.5
 30
0
 40
2.5
 41
15.34722222222253
 71
    5
 72
    1
  1
5'-5 1/4"
  7
standard
210
0
220
0
230
1
 50
0
 73
    2
 44
1
  0
LINE
  5
C6
100
AcDbEntity
  8
Dimension
  6
ByBlock
 62
    0
370
   -2
100
AcDbLine
 10
-1.346547097447434e-14
 20
-71.375
 11
-1.468942580256787e-14
 21
-68.75
  0
LINE
  5
C7
100
AcDbEntity
  8
Dimension
  6
ByBlock
 62
    0
370
   -2
100
AcDbLine
 10
65.24999999999999
 20
-71.375
 11
65.24999999999999
 21
-68.75
  0
ENDBLK
  5
5B
330
59
100
AcDbEntity
  8
0
100
AcDbBlockEnd
  0
BLOCK
  5
5D
330
5C
100
AcDbEntity
  8
0
100
AcDbBlockBegin
  2
*D19
 70
    1
 10
0
 20
0
  3
*D19
  1

  0
LINE
  5
C8
100
AcDbEntity
  8
Dimension
  6
ByBlock
 62
    0
370
   -2
100
AcDbLine
 10
100
 20
-252
 11
100
 21
-270.75
  0
SOLID
  5
C9
100
AcDbEntity
  8
Dimension
  6
ByBlock
 62
    0
370
   -2
100
AcDbTrace
 10
100
 20
-252
 30
0
 11
100.1248853973319
 21
-252.75
 31
0
 12
99.87511460266815
 22
-252.75
 32
0
 13
99.87511460266815
 23
-252.75
 33
0
  0
SOLID
  5
CA
100
AcDbEntity
  8
Dimension
  6
ByBlock
 62
    0
370
   -2
100
AcDbTrace
 10
100
 20
-270.75
 30
0
 11
99.87511460266815
 21
-270
 31
0
 12
100.1248853973319
 22
-270
 32
0
 13
100.1248853973319
 23
-270
 33
0
  0
MTEXT
  5
CB
100
AcDbEntity
  8
Dimension
  6
CONTINUOUS
 62
    0
370
   -2
100
AcDbMText
 10
98.5
 20
-261.375
 30
0
 40
2.5
 41
15.34722222222253
 71
    5
 72
    1
  1
1'-6 3/4"
  7
standard
210
0
220
0
230
1
 50
90
 73
    2
 44
1
  0
LINE
  5
CC
100
AcDbEntity
  8
Dimension
  6
ByBlock
 62
    0
370
   -2
100
AcDbLine
 10
96.62499999999994
 20
-252
 11
101.25
 21
-252
  0
LINE
  5
CD
100
AcDbEntity
  8
Dimension
  6
ByBlock
 62
    0
370
   -2
100
AcDbLine
 10
96.62499999999994
 20
-270.75
 11
101.25
 21
-270.75
  0
ENDBLK
  5
5E
330
5C
100
AcDbEntity
  8
0
100
AcDbBlockEnd
  0
BLOCK
  5
60
330
5F
100
AcDbEntity
  8
0
100
AcDbBlockBegin
  2
*D23
 70
    1
 10
0
 20
0
  3
*D23
  1

  0
LINE
  5
CE
100
AcDbEntity
  8
Dimension
  6
ByBlock
 62
    0
370
   -2
100
AcDbLine
 10
77.99999999999997
 20
-70
 11
95.99999999999999
 21
-70
  0
SOLID
  5
CF
100
AcDbEntity
  8
Dimension
  6
ByBlock
 62
    0
370
   -2
100
AcDbTrace
 10
77.99999999999997
 20
-70
 30
0
 11
78.74999999999997
 21
-69.87511460266815
 31
0
 12
78.74999999999997
 22
-70.12488539733185
 32
0
 13
78.74999999999997
 23
-70.12488539733185
 33
0
  0
SOLID
  5
D0
100
AcDbEntity
  8
Dimension
  6
ByBlock
 62
    0
370
   -2
100
AcDbTrace
 10
95.99999999999999
 20
-70
 30
0
 11
95.24999999999999
 21
-70.12488539733185
 31
0
 12
95.24999999999999
 22
-69.87511460266815
 32
0
 13
95.24999999999999
 23
-69.87511460266815
 33
0
  0
MTEXT
  5
D1
100
AcDbEntity
  8
Dimension
  6
CONTINUOUS
 62
    0
370
   -2
100
AcDbMText
 10
86.99999999999997
 20
-68.5
 30
0
 40
2.5
 41
7.361111111111265
 71
    5
 72
    1
  1
1'-6"
  7
standard
210
0
220
0
230
1
 50
0
 73
    2
 44
1
  0
LINE
  5
D2
100
AcDbEntity
  8
Dimension
  6
ByBlock
 62
    0
370
   -2
100
AcDbLine
 10
77.99999999999997
 20
-71.375
 11
77.99999999999997
 21
-68.75
  0
LINE
  5
D3
100
AcDbEntity
  8
Dimension
  6
ByBlock
 62
    0
370
   -2
100
AcDbLine
 10
95.99999999999999
 20
-71.375
 11
95.99999999999999
 21
-68.75
  0
ENDBLK
  5
61
330
5F
100
AcDbEntity
  8
0
100
AcDbBlockEnd
  0
BLOCK
  5
63
330
62
100
AcDbEntity
  8
0
100
AcDbBlockBegin
  2
*D8
 70
    1
 10
0
 20
0
  3
*D8
  1

  0
LINE
  5
D4
100
AcDbEntity
  8
Dimension
  6
ByBlock
 62
    0
370
   -2
100
AcDbLine
 10
100
 20
-72
 11
100
 21
-105
  0
SOLID
  5
D5
100
AcDbEntity
  8
Dimension
  6
ByBlock
 62
    0
370
   -2
100
AcDbTrace
 10
100
 20
-72
 30
0
 11
100.1248853973319
 21
-72.75
 31
0
 12
99.87511460266815
 22
-72.75
 32
0
 13
99.87511460266815
 23
-72.75
 33
0
  0
SOLID
  5
D6
100
AcDbEntity
  8
Dimension
  6
ByBlock
 62
    0
370
   -2
100
AcDbTrace
 10
100
 20
-105
 30
0
 11
99.87511460266815
 21
-104.25
 31
0
 12
100.1248853973319
 22
-104.25
 32
0
 13
100.1248853973319
 23
-104.25
 33
0
  0
MTEXT
  5
D7
100
AcDbEntity
  8
Dimension
  6
CONTINUOUS
 62
    0
370
   -2
100
AcDbMText
 10
98.5
 20
-88.5
 30
0
 40
2.5
 41
7.916666666666666
 71
    5
 72
    1
  1
2'-9"
  7
standard
210
0
220
0
230
1
 50
90
 73
    2
 44
1
  0
LINE
  5
D8
100
AcDbEntity
  8
Dimension
  6
ByBlock
 62
    0
370
   -2
100
AcDbLine
 10
96.62499999999996
 20
-72
 11
101.25
 21
-72
  0
LINE
  5
D9
100
AcDbEntity
  8
Dimension
  6
ByBlock
 62
    0
370
   -2
100
AcDbLine
 10
96.62499999999999
 20
-105
 11
101.25
 21
-105
  0
ENDBLK
  5
64
330
62
100
AcDbEntity
  8
0
100
AcDbBlockEnd
  0
BLOCK
  5
66
330
65
100
AcDbEntity
  8
0
100
AcDbBlockBegin
  2
*D13
 70
    1
 10
0
 20
0
  3
*D13
  1

  0
LINE
  5
DA
100
AcDbEntity
  8
Dimension
  6
ByBlock
 62
    0
370
   -2
100
AcDbLine
 10
-2.842170943040401e-14
 20
-190
 11
86.99999999999997
 21
-190
  0
SOLID
  5
DB
100
AcDbEntity
  8
Dimension
  6
ByBlock
 62
    0
370
   -2
100
AcDbTrace
 10
-2.842170943040401e-14
 20
-190
 30
0
 11
0.7499999999999716
 21
-189.8751146026681
 31
0
 12
0.7499999999999716
 22
-190.1248853973319
 32
0
 13
0.7499999999999716
 23
-190.1248853973319
 33
0
  0
SOLID
  5
DC
100
AcDbEntity
  8
Dimension
  6
ByBlock
 62
    0
370
   -2
100
AcDbTrace
 10
86.99999999999997
 20
-190
 30
0
 11
86.24999999999997
 21
-190.1248853973319
 31
0
 12
86.24999999999997
 22
-189.8751146026681
 32
0
 13
86.24999999999997
 23
-189.8751146026681
 33
0
  0
MTEXT
  5
DD
100
AcDbEntity
  8
Dimension
  6
CONTINUOUS
 62
    0
370
   -2
100
AcDbMText
 10
43.49999999999997
 20
-188.5
 30
0
 40
2.5
 41
7.916666666666822
 71
    5
 72
    1
  1
7'-3"
  7
standard
210
0
220
0
230
1
 50
0
 73
    2
 44
1
  0
LINE
  5
DE
100
AcDbEntity
  8
Dimension
  6
ByBlock
 62
    0
370
   -2
100
AcDbLine
 10
-3.314988943179824e-14
 20
-191.375
 11
-2.418183266311296e-14
 21
-188.75
  0
LINE
  5
DF
100
AcDbEntity
  8
Dimension
  6
ByBlock
 62
    0
370
   -2
100
AcDbLine
 10
86.99999999999997
 20
-191.375
 11
86.99999999999997
 21
-188.75
  0
ENDBLK
  5
67
330
65
100
AcDbEntity
  8
0
100
AcDbBlockEnd
  0
BLOCK
  5
69
330
68
100
AcDbEntity
  8
0
100
AcDbBlockBegin
  2
*D22
 70
    1
 10
0
 20
0
  3
*D22
  1

  0
LINE
  5
E0
100
AcDbEntity
  8
Dimension
  6
ByBlock
 62
    0
370
   -2
100
AcDbLine
 10
-10
 20
-281.25
 11
-10
 21
-270.75
  0
SOLID
  5
E1
100
AcDbEntity
  8
Dimension
  6
ByBlock
 62
    0
370
   -2
100
AcDbTrace
 10
-10
 20
-281.25
 30
0
 11
-10.12488539733185
 21
-280.5
 31
0
 12
-9.875114602668148
 22
-280.5
 32
0
 13
-9.875114602668148
 23
-280.5
 33
0
  0
SOLID
  5
E2
100
AcDbEntity
  8
Dimension
  6
ByBlock
 62
    0
370
   -2
100
AcDbTrace
 10
-10
 20
-270.75
 30
0
 11
-9.875114602668148
 21
-271.5
 31
0
 12
-10.12488539733185
 22
-271.5
 32
0
 13
-10.12488539733185
 23
-271.5
 33
0
  0
MTEXT
  5
E3
100
AcDbEntity
  8
Dimension
  6
CONTINUOUS
 62
    0
370
   -2
100
AcDbMText
 10
-11.5
 20
-262.2708333333333
 30
0
 40
2.5
 41
16.45833333333334
 71
    5
 72
    1
  1
0'-10 1/2"
  7
standard
210
0
220
0
230
1
 50
90
 73
    2
 44
1
  0
LINE
  5
E4
100
AcDbEntity
  8
Dimension
  6
ByBlock
 62
    0
370
   -2
100
AcDbLine
 10
-0.6250000000000463
 20
-281.25
 11
-11.25
 21
-281.25
  0
LINE
  5
E5
100
AcDbEntity
  8
Dimension
  6
ByBlock
 62
    0
370
   -2
100
AcDbLine
 10
-0.6250000000000497
 20
-270.75
 11
-11.25
 21
-270.75
  0
ENDBLK
  5
6A
330
68
100
AcDbEntity
  8
0
100
AcDbBlockEnd
  0
BLOCK
  5
6C
330
6B
100
AcDbEntity
  8
0
100
AcDbBlockBegin
  2
*D29
 70
    1
 10
0
 20
0
  3
*D29
  1

  0
LINE
  5
E6
100
AcDbEntity
  8
Dimension
  6
ByBlock
 62
    0
370
   -2
100
AcDbLine
 10
110
 20
-4
 11
175
 21
-4
  0
SOLID
  5
E7
100
AcDbEntity
  8
Dimension
  6
ByBlock
 62
    0
370
   -2
100
AcDbTrace
 10
110
 20
-4
 30
0
 11
110.75
 21
-3.875114602668148
 31
0
 12
110.75
 22
-4.124885397331853
 32
0
 13
110.75
 23
-4.124885397331853
 33
0
  0
SOLID
  5
E8
100
AcDbEntity
  8
Dimension
  6
ByBlock
 62
    0
370
   -2
100
AcDbTrace
 10
175
 20
-4
 30
0
 11
174.25
 21
-4.124885397331852
 31
0
 12
174.25
 22
-3.875114602668148
 32
0
 13
174.25
 23
-3.875114602668148
 33
0
  0
MTEXT
  5
E9
100
AcDbEntity
  8
Dimension
  6
CONTINUOUS
 62
    0
370
   -2
100
AcDbMText
 10
142.5
 20
-2.5
 30
0
 40
2.5
 41
7.916666666666977
 71
    5
 72
    1
  1
5'-5"
  7
standard
210
0
220
0
230
1
 50
0
 73
    2
 44
1
  0
LINE
  5
EA
100
AcDbEntity
  8
Dimension
  6
ByBlock
 62
    0
370
   -2
100
AcDbLine
 10
110
 20
-0.625
 11
110
 21
-5.25
  0
LINE
  5
EB
100
AcDbEntity
  8
Dimension
  6
ByBlock
 62
    0
370
   -2
100
AcDbLine
 10
175
 20
-0.6250000000000159
 11
175
 21
-5.25
  0
ENDBLK
  5
6D
330
6B
100
AcDbEntity
  8
0
100
AcDbBlockEnd
  0
BLOCK
  5
6F
330
6E
100
AcDbEntity
  8
0
100
AcDbBlockBegin
  2
*D3
 70
    1
 10
0
 20
0
  3
*D3
  1

  0
LINE
  5
EC
100
AcDbEntity
  8
Dimension
  6
ByBlock
 62
    0
370
   -2
100
AcDbLine
 10
0
 20
-10
 11
87.5
 21
-10
  0
SOLID
  5
ED
100
AcDbEntity
  8
Dimension
  6
ByBlock
 62
    0
370
   -2
100
AcDbTrace
 10
0
 20
-10
 30
0
 11
0.75
 21
-9.875114602668148
 31
0
 12
0.75
 22
-10.12488539733185
 32
0
 13
0.75
 23
-10.12488539733185
 33
0
  0
SOLID
  5
EE
100
AcDbEntity
  8
Dimension
  6
ByBlock
 62
    0
370
   -2
100
AcDbTrace
 10
87.5
 20
-10
 30
0
 11
86.75
 21
-10.12488539733185
 31
0
 12
86.75
 22
-9.875114602668148
 32
0
 13
86.75
 23
-9.875114602668148
 33
0
  0
MTEXT
  5
EF
100
AcDbEntity
  8
Dimension
  6
CONTINUOUS
 62
    0
370
   -2
100
AcDbMText
 10
43.75
 20
-8.5
 30
0
 40
2.5
 41
15.0694444444446
 71
    5
 72
    1
  1
7'-3 1/2"
  7
standard
210
0
220
0
230
1
 50
0
 73
    2
 44
1
  0
LINE
  5
F0
100
AcDbEntity
  8
Dimension
  6
ByBlock
 62
    0
370
   -2
100
AcDbLine
 10
-1.472204635601158e-15
 20
-11.375
 11
1.464319205728155e-15
 21
-8.75
  0
LINE
  5
F1
100
AcDbEntity
  8
Dimension
  6
ByBlock
 62
    0
370
   -2
100
AcDbLine
 10
87.5
 20
-11.37500000000002
 11
87.5
 21
-8.75
  0
ENDBLK
  5
70
330
6E
100
AcDbEntity
  8
0
100
AcDbBlockEnd
  0
BLOCK
  5
72
330
71
100
AcDbEntity
  8
0
100
AcDbBlockBegin
  2
*D17
 70
    1
 10
0
 20
0
  3
*D17
  1

  0
LINE
  5
F2
100
AcDbEntity
  8
Dimension
  6
ByBlock
 62
    0
370
   -2
100
AcDbLine
 10
-4.263256414560601e-14
 20
-250
 11
86.99999999999996
 21
-250
  0
SOLID
  5
F3
100
AcDbEntity
  8
Dimension
  6
ByBlock
 62
    0
370
   -2
100
AcDbTrace
 10
-4.263256414560601e-14
 20
-250
 30
0
 11
0.7499999999999574
 21
-249.8751146026681
 31
0
 12
0.7499999999999574
 22
-250.1248853973319
 32
0
 13
0.7499999999999574
 23
-250.1248853973319
 33
0
  0
SOLID
  5
F4
100
AcDbEntity
  8
Dimension
  6
ByBlock
 62
    0
370
   -2
100
AcDbTrace
 10
86.99999999999996
 20
-250
 30
0
 11
86.24999999999996
 21
-250.1248853973319
 31
0
 12
86.24999999999996
 22
-249.8751146026681
 32
0
 13
86.24999999999996
 23
-249.8751146026681
 33
0
  0
MTEXT
  5
F5
100
AcDbEntity
  8
Dimension
  6
CONTINUOUS
 62
    0
370
   -2
100
AcDbMText
 10
43.49999999999996
 20
-248.5
 30
0
 40
2.5
 41
7.916666666666822
 71
    5
 72
    1
  1
7'-3"
  7
standard
210
0
220
0
230
1
 50
0
 73
    2
 44
1
  0
LINE
  5
F6
100
AcDbEntity
  8
Dimension
  6
ByBlock
 62
    0
370
   -2
100
AcDbLine
 10
-4.514315577067144e-14
 20
-251.375
 11
-4.033557767140899e-14
 21
-248.75
  0
LINE
  5
F7
100
AcDbEntity
  8
Dimension
  6
ByBlock
 62
    0
370
   -2
100
AcDbLine
 10
86.99999999999996
 20
-251.375
 11
86.99999999999996
 21
-248.75
  0
ENDBLK
  5
73
330
71
100
AcDbEntity
  8
0
100
AcDbBlockEnd
  0
BLOCK
  5
75
330
74
100
AcDbEntity
  8
0
100
AcDbBlockBegin
  2
*D32
 70
    1
 10
0
 20
0
  3
*D32
  1

  0
LINE
  5
F8
100
AcDbEntity
  8
Dimension
  6
ByBlock
 62
    0
370
   -2
100
AcDbLine
 10
194
 20
30
 11
206
 21
30
  0
SOLID
  5
F9
100
AcDbEntity
  8
Dimension
  6
ByBlock
 62
    0
370
   -2
100
AcDbTrace
 10
194
 20
30
 30
0
 11
194.75
 21
30.12488539733185
 31
0
 12
194.75
 22
29.87511460266815
 32
0
 13
194.75
 23
29.87511460266815
 33
0
  0
SOLID
  5
FA
100
AcDbEntity
  8
Dimension
  6
ByBlock
 62
    0
370
   -2
100
AcDbTrace
 10
206
 20
30
 30
0
 11
205.25
 21
29.87511460266815
 31
0
 12
205.25
 22
30.12488539733185
 32
0
 13
205.25
 23
30.12488539733185
 33
0
  0
MTEXT
  5
FB
100
AcDbEntity
  8
Dimension
  6
CONTINUOUS
 62
    0
370
   -2
100
AcDbMText
 10
200
 20
31.5
 30
0
 40
2.5
 41
7.361111111111112
 71
    5
 72
    1
  1
1'-0"
  7
standard
210
0
220
0
230
1
 50
0
 73
    2
 44
1
  0
LINE
  5
FC
100
AcDbEntity
  8
Dimension
  6
ByBlock
 62
    0
370
   -2
100
AcDbLine
 10
194
 20
29.125
 11
194
 21
31.25
  0
LINE
  5
FD
100
AcDbEntity
  8
Dimension
  6
ByBlock
 62
    0
370
   -2
100
AcDbLine
 10
206
 20
29.125
 11
206
 21
31.25
  0
ENDBLK
  5
76
330
74
100
AcDbEntity
  8
0
100
AcDbBlockEnd
  0
BLOCK
  5
78
330
77
100
AcDbEntity
  8
0
100
AcDbBlockBegin
  2
*D4
 70
    1
 10
0
 20
0
  3
*D4
  1

  0
LINE
  5
FE
100
AcDbEntity
  8
Dimension
  6
ByBlock
 62
    0
370
   -2
100
AcDbLine
 10
87.5
 20
-10
 11
95.99999999999999
 21
-10
  0
SOLID
  5
FF
100
AcDbEntity
  8
Dimension
  6
ByBlock
 62
    0
370
   -2
100
AcDbTrace
 10
87.5
 20
-10
 30
0
 11
88.25
 21
-9.875114602668148
 31
0
 12
88.25
 22
-10.12488539733185
 32
0
 13
88.25
 23
-10.12488539733185
 33
0
  0
SOLID
  5
100
100
AcDbEntity
  8
Dimension
  6
ByBlock
 62
    0
370
   -2
100
AcDbTrace
 10
95.99999999999999
 20
-10
 30
0
 11
95.24999999999999
 21
-10.12488539733185
 31
0
 12
95.24999999999999
 22
-9.875114602668148
 32
0
 13
95.24999999999999
 23
-9.875114602668148
 33
0
  0
MTEXT
  5
101
100
AcDbEntity
  8
Dimension
  6
CONTINUOUS
 62
    0
370
   -2
100
AcDbMText
 10
103.7847222222222
 20
-8.5
 30
0
 40
2.5
 41
15.06944444444444
 71
    5
 72
    1
  1
0'-8 1/2"
  7
standard
210
0
220
0
230
1
 50
0
 73
    2
 44
1
  0
LINE
  5
102
100
AcDbEntity
  8
Dimension
  6
ByBlock
 62
    0
370
   -2
100
AcDbLine
 10
87.5
 20
-11.375
 11
87.5
 21
-8.75
  0
LINE
  5
103
100
AcDbEntity
  8
Dimension
  6
ByBlock
 62
    0
370
   -2
100
AcDbLine
 10
95.99999999999999
 20
-11.375
 11
95.99999999999999
 21
-8.75
  0
ENDBLK
  5
79
330
77
100
AcDbEntity
  8
0
100
AcDbBlockEnd
  0
BLOCK
  5
7B
330
7A
100
AcDbEntity
  8
0
100
AcDbBlockBegin
  2
*D21
 70
    1
 10
0
 20
0
  3
*D21
  1

  0
LINE
  5
104
100
AcDbEntity
  8
Dimension
  6
ByBlock
 62
    0
370
   -2
100
AcDbLine
 10
-10
 20
-300
 11
-10
 21
-281.25
  0
SOLID
  5
105
100
AcDbEntity
  8
Dimension
  6
ByBlock
 62
    0
370
   -2
100
AcDbTrace
 10
-10
 20
-300
 30
0
 11
-10.12488539733185
 21
-299.25
 31
0
 12
-9.87511460266815
 22
-299.25
 32
0
 13
-9.87511460266815
 23
-299.25
 33
0
  0
SOLID
  5
106
100
AcDbEntity
  8
Dimension
  6
ByBlock
 62
    0
370
   -2
100
AcDbTrace
 10
-10
 20
-281.25
 30
0
 11
-9.875114602668148
 21
-282
 31
0
 12
-10.12488539733185
 22
-282
 32
0
 13
-10.12488539733185
 23
-282
 33
0
  0
MTEXT
  5
107
100
AcDbEntity
  8
Dimension
  6
CONTINUOUS
 62
    0
370
   -2
100
AcDbMText
 10
-11.5
 20
-290.625
 30
0
 40
2.5
 41
15.34722222222253
 71
    5
 72
    1
  1
1'-6 3/4"
  7
standard
210
0
220
0
230
1
 50
90
 73
    2
 44
1
  0
LINE
  5
108
100
AcDbEntity
  8
Dimension
  6
ByBlock
 62
    0
370
   -2
100
AcDbLine
 10
-0.6250000000000551
 20
-300
 11
-11.25
 21
-300
  0
LINE
  5
109
100
AcDbEntity
  8
Dimension
  6
ByBlock
 62
    0
370
   -2
100
AcDbLine
 10
-0.625000000000054
 20
-281.25
 11
-11.25
 21
-281.25
  0
ENDBLK
  5
7C
330
7A
100
AcDbEntity
  8
0
100
AcDbBlockEnd
  0
BLOCK
  5
7E
330
7D
100
AcDbEntity
  8
0
100
AcDbBlockBegin
  2
*D9
 70
    1
 10
0
 20
0
  3
*D9
  1

  0
LINE
  5
10A
100
AcDbEntity
  8
Dimension
  6
ByBlock
 62
    0
370
   -2
100
AcDbLine
 10
100
 20
-105
 11
100
 21
-120
  0
SOLID
  5
10B
100
AcDbEntity
  8
Dimension
  6
ByBlock
 62
    0
370
   -2
100
AcDbTrace
 10
100
 20
-105
 30
0
 11
100.1248853973319
 21
-105.75
 31
0
 12
99.87511460266815
 22
-105.75
 32
0
 13
99.87511460266815
 23
-105.75
 33
0
  0
SOLID
  5
10C
100
AcDbEntity
  8
Dimension
  6
ByBlock
 62
    0
370
   -2
100
AcDbTrace
 10
100
 20
-120
 30
0
 11
99.87511460266815
 21
-119.25
 31
0
 12
100.1248853973319
 22
-119.25
 32
0
 13
100.1248853973319
 23
-119.25
 33
0
  0
MTEXT
  5
10D
100
AcDbEntity
  8
Dimension
  6
CONTINUOUS
 62
    0
370
   -2
100
AcDbMText
 10
98.5
 20
-112.5
 30
0
 40
2.5
 41
7.361111111111265
 71
    5
 72
    1
  1
1'-3"
  7
standard
210
0
220
0
230
1
 50
90
 73
    2
 44
1
  0
LINE
  5
10E
100
AcDbEntity
  8
Dimension
  6
ByBlock
 62
    0
370
   -2
100
AcDbLine
 10
96.62499999999999
 20
-105
 11
101.25
 21
-105
  0
LINE
  5
10F
100
AcDbEntity
  8
Dimension
  6
ByBlock
 62
    0
370
   -2
100
AcDbLine
 10
96.62499999999997
 20
-120
 11
101.25
 21
-120
  0
ENDBLK
  5
7F
330
7D
100
AcDbEntity
  8
0
100
AcDbBlockEnd
  0
BLOCK
  5
81
330
80
100
AcDbEntity
  8
0
100
AcDbBlockBegin
  2
*D1
 70
    1
 10
0
 20
0
  3
*D1
  1

  0
LINE
  5
110
100
AcDbEntity
  8
Dimension
  6
ByBlock
 62
    0
370
   -2
100
AcDbLine
 10
0
 20
50
 11
87.5
 21
50
  0
SOLID
  5
111
100
AcDbEntity
  8
Dimension
  6
ByBlock
 62
    0
370
   -2
100
AcDbTrace
 10
0
 20
50
 30
0
 11
0.75
 21
50.12488539733185
 31
0
 12
0.75
 22
49.87511460266815
 32
0
 13
0.75
 23
49.87511460266815
 33
0
  0
SOLID
  5
112
100
AcDbEntity
  8
Dimension
  6
ByBlock
 62
    0
370
   -2
100
AcDbTrace
 10
87.5
 20
50
 30
0
 11
86.75
 21
49.87511460266815
 31
0
 12
86.75
 22
50.12488539733185
 32
0
 13
86.75
 23
50.12488539733185
 33
0
  0
MTEXT
  5
113
100
AcDbEntity
  8
Dimension
  6
CONTINUOUS
 62
    0
370
   -2
100
AcDbMText
 10
43.75
 20
51
 30
0
 40
2.5
 41
15.0694444444446
 71
    5
 72
    1
  1
7'-3 1/2"
  7
standard
210
0
220
0
230
1
 50
0
 73
    2
 44
1
  0
LINE
  5
114
100
AcDbEntity
  8
Dimension
  6
ByBlock
 62
    0
370
   -2
100
AcDbLine
 10
2.005977383879991e-15
 20
48.625
 11
-1.866349868147314e-15
 21
51.25
  0
LINE
  5
115
100
AcDbEntity
  8
Dimension
  6
ByBlock
 62
    0
370
   -2
100
AcDbLine
 10
87.5
 20
48.625
 11
87.5
 21
51.25
  0
ENDBLK
  5
82
330
80
100
AcDbEntity
  8
0
100
AcDbBlockEnd
  0
BLOCK
  5
84
330
83
100
AcDbEntity
  8
0
100
AcDbBlockBegin
  2
*D6
 70
    1
 10
0
 20
0
  3
*D6
  1

  0
LINE
  5
116
100
AcDbEntity
  8
Dimension
  6
ByBlock
 62
    0
370
   -2
100
AcDbLine
 10
110
 20
-56.75
 11
110
 21
-61.5
  0
SOLID
  5
117
100
AcDbEntity
  8
Dimension
  6
ByBlock
 62
    0
370
   -2
100
AcDbTrace
 10
110
 20
-58.25
 30
0
 11
109.8751146026681
 21
-57.5
 31
0
 12
110.1248853973319
 22
-57.5
 32
0
 13
110.1248853973319
 23
-57.5
 33
0
  0
SOLID
  5
118
100
AcDbEntity
  8
Dimension
  6
ByBlock
 62
    0
370
   -2
100
AcDbTrace
 10
110
 20
-60
 30
0
 11
110.1248853973319
 21
-60.75
 31
0
 12
109.8751146026681
 22
-60.75
 32
0
 13
109.8751146026681
 23
-60.75
 33
0
  0
MTEXT
  5
119
100
AcDbEntity
  8
Dimension
  6
CONTINUOUS
 62
    0
370
   -2
100
AcDbMText
 10
108.5
 20
-50.32638888888881
 30
0
 40
2.5
 41
15.34722222222238
 71
    5
 72
    1
  1
0'-1 3/4"
  7
standard
210
0
220
0
230
1
 50
90
 73
    2
 44
1
  0
LINE
  5
11A
100
AcDbEntity
  8
Dimension
  6
ByBlock
 62
    0
370
   -2
100
AcDbLine
 10
96.62499999999999
 20
-58.25
 11
111.25
 21
-58.25
  0
LINE
  5
11B
100
AcDbEntity
  8
Dimension
  6
ByBlock
 62
    0
370
   -2
100
AcDbLine
 10
96.62499999999999
 20
-60
 11
111.25
 21
-60
  0
ENDBLK
  5
85
330
83
100
AcDbEntity
  8
0
100
AcDbBlockEnd
  0
BLOCK
  5
87
330
86
100
AcDbEntity
  8
0
100
AcDbBlockBegin
  2
*D25
 70
    1
 10
0
 20
0
  3
*D25
  1

  0
LINE
  5
11C
100
AcDbEntity
  8
Dimension
  6
ByBlock
 62
    0
370
   -2
100
AcDbLine
 10
65.24999999999997
 20
-130
 11
77.99999999999996
 21
-130
  0
SOLID
  5
11D
100
AcDbEntity
  8
Dimension
  6
ByBlock
 62
    0
370
   -2
100
AcDbTrace
 10
65.24999999999997
 20
-130
 30
0
 11
65.99999999999997
 21
-129.8751146026681
 31
0
 12
65.99999999999997
 22
-130.1248853973319
 32
0
 13
65.99999999999997
 23
-130.1248853973319
 33
0
  0
SOLID
  5
11E
100
AcDbEntity
  8
Dimension
  6
ByBlock
 62
    0
370
   -2
100
AcDbTrace
 10
77.99999999999996
 20
-130
 30
0
 11
77.24999999999996
 21
-130.1248853973319
 31
0
 12
77.24999999999996
 22
-129.8751146026681
 32
0
 13
77.24999999999996
 23
-129.8751146026681
 33
0
  0
MTEXT
  5
11F
100
AcDbEntity
  8
Dimension
  6
CONTINUOUS
 62
    0
370
   -2
100
AcDbMText
 10
71.62499999999997
 20
-128.5
 30
0
 40
2.5
 41
11.52777777777793
 71
    5
 72
    1
  1
1'-3/4"
  7
standard
210
0
220
0
230
1
 50
0
 73
    2
 44
1
  0
LINE
  5
120
100
AcDbEntity
  8
Dimension
  6
ByBlock
 62
    0
370
   -2
100
AcDbLine
 10
65.24999999999997
 20
-131.375
 11
65.24999999999997
 21
-128.75
  0
LINE
  5
121
100
AcDbEntity
  8
Dimension
  6
ByBlock
 62
    0
370
   -2
100
AcDbLine
 10
77.99999999999996
 20
-131.375
 11
77.99999999999996
 21
-128.75
  0
ENDBLK
  5
88
330
86
100
AcDbEntity
  8
0
100
AcDbBlockEnd
  0
BLOCK
  5
8A
330
89
100
AcDbEntity
  8
0
100
AcDbBlockBegin
  2
*D5
 70
    1
 10
0
 20
0
  3
*D5
  1

  0
LINE
  5
122
100
AcDbEntity
  8
Dimension
  6
ByBlock
 62
    0
370
   -2
100
AcDbLine
 10
100
 20
-12
 11
100
 21
-58.25
  0
SOLID
  5
123
100
AcDbEntity
  8
Dimension
  6
ByBlock
 62
    0
370
   -2
100
AcDbTrace
 10
100
 20
-12
 30
0
 11
100.1248853973319
 21
-12.75
 31
0
 12
99.87511460266815
 22
-12.75
 32
0
 13
99.87511460266815
 23
-12.75
 33
0
  0
SOLID
  5
124
100
AcDbEntity
  8
Dimension
  6
ByBlock
 62
    0
370
   -2
100
AcDbTrace
 10
100
 20
-58.25
 30
0
 11
99.87511460266815
 21
-57.5
 31
0
 12
100.1248853973319
 22
-57.5
 32
0
 13
100.1248853973319
 23
-57.5
 33
0
  0
MTEXT
  5
125
100
AcDbEntity
  8
Dimension
  6
CONTINUOUS
 62
    0
370
   -2
100
AcDbMText
 10
98.5
 20
-35.125
 30
0
 40
2.5
 41
16.73611111111126
 71
    5
 72
    1
  1
3'-10 1/4"
  7
standard
210
0
220
0
230
1
 50
90
 73
    2
 44
1
  0
LINE
  5
126
100
AcDbEntity
  8
Dimension
  6
ByBlock
 62
    0
370
   -2
100
AcDbLine
 10
96.62499999999999
 20
-12
 11
101.25
 21
-12
  0
LINE
  5
127
100
AcDbEntity
  8
Dimension
  6
ByBlock
 62
    0
370
   -2
100
AcDbLine
 10
88.125
 20
-58.25
 11
101.25
 21
-58.25
  0
ENDBLK
  5
8B
330
89
100
AcDbEntity
  8
0
100
AcDbBlockEnd
  0
BLOCK
  5
8D
330
8C
100
AcDbEntity
  8
0
100
AcDbBlockBegin
  2
*D14
 70
    1
 10
0
 20
0
  3
*D14
  1

  0
LINE
  5
128
100
AcDbEntity
  8
Dimension
  6
ByBlock
 62
    0
370
   -2
100
AcDbLine
 10
86.99999999999997
 20
-190
 11
95.99999999999994
 21
-190
  0
SOLID
  5
129
100
AcDbEntity
  8
Dimension
  6
ByBlock
 62
    0
370
   -2
100
AcDbTrace
 10
86.99999999999997
 20
-190
 30
0
 11
87.74999999999997
 21
-189.8751146026681
 31
0
 12
87.74999999999997
 22
-190.1248853973319
 32
0
 13
87.74999999999997
 23
-190.1248853973319
 33
0
  0
SOLID
  5
12A
100
AcDbEntity
  8
Dimension
  6
ByBlock
 62
    0
370
   -2
100
AcDbTrace
 10
95.99999999999994
 20
-190
 30
0
 11
95.24999999999994
 21
-190.1248853973319
 31
0
 12
95.24999999999994
 22
-189.8751146026681
 32
0
 13
95.24999999999994
 23
-189.8751146026681
 33
0
  0
MTEXT
  5
12B
100
AcDbEntity
  8
Dimension
  6
CONTINUOUS
 62
    0
370
   -2
100
AcDbMText
 10
91.49999999999996
 20
-188.5
 30
0
 40
2.5
 41
7.916666666666666
 71
    5
 72
    1
  1
0'-9"
  7
standard
210
0
220
0
230
1
 50
0
 73
    2
 44
1
  0
LINE
  5
12C
100
AcDbEntity
  8
Dimension
  6
ByBlock
 62
    0
370
   -2
100
AcDbLine
 10
86.99999999999997
 20
-191.375
 11
86.99999999999997
 21
-188.75
  0
LINE
  5
12D
100
AcDbEntity
  8
Dimension
  6
ByBlock
 62
    0
370
   -2
100
AcDbLine
 10
95.99999999999994
 20
-191.375
 11
95.99999999999994
 21
-188.75
  0
ENDBLK
  5
8E
330
8C
100
AcDbEntity
  8
0
100
AcDbBlockEnd
  0
BLOCK
  5
90
330
8F
100
AcDbEntity
  8
0
100
AcDbBlockBegin
  2
*D24
 70
    1
 10
0
 20
0
  3
*D24
  1

  0
LINE
  5
12E
100
AcDbEntity
  8
Dimension
  6
ByBlock
 62
    0
370
   -2
100
AcDbLine
 10
77.99999999999996
 20
-130
 11
95.99999999999996
 21
-130
  0
SOLID
  5
12F
100
AcDbEntity
  8
Dimension
  6
ByBlock
 62
    0
370
   -2
100
AcDbTrace
 10
77.99999999999996
 20
-130
 30
0
 11
78.74999999999996
 21
-129.8751146026681
 31
0
 12
78.74999999999996
 22
-130.1248853973319
 32
0
 13
78.74999999999996
 23
-130.1248853973319
 33
0
  0
SOLID
  5
130
100
AcDbEntity
  8
Dimension
  6
ByBlock
 62
    0
370
   -2
100
AcDbTrace
 10
95.99999999999996
 20
-130
 30
0
 11
95.24999999999996
 21
-130.1248853973319
 31
0
 12
95.24999999999996
 22
-129.8751146026681
 32
0
 13
95.24999999999996
 23
-129.8751146026681
 33
0
  0
MTEXT
  5
131
100
AcDbEntity
  8
Dimension
  6
CONTINUOUS
 62
    0
370
   -2
100
AcDbMText
 10
86.99999999999996
 20
-128.5
 30
0
 40
2.5
 41
7.361111111111265
 71
    5
 72
    1
  1
1'-6"
  7
standard
210
0
220
0
230
1
 50
0
 73
    2
 44
1
  0
LINE
  5
132
100
AcDbEntity
  8
Dimension
  6
ByBlock
 62
    0
370
   -2
100
AcDbLine
 10
77.99999999999996
 20
-131.375
 11
77.99999999999996
 21
-128.75
  0
LINE
  5
133
100
AcDbEntity
  8
Dimension
  6
ByBlock
 62
    0
370
   -2
100
AcDbLine
 10
95.99999999999996
 20
-131.375
 11
95.99999999999996
 21
-128.75
  0
ENDBLK
  5
91
330
8F
100
AcDbEntity
  8
0
100
AcDbBlockEnd
  0
BLOCK
  5
93
330
92
100
AcDbEntity
  8
0
100
AcDbBlockBegin
  2
*D20
 70
    1
 10
0
 20
0
  3
*D20
  1

  0
LINE
  5
134
100
AcDbEntity
  8
Dimension
  6
ByBlock
 62
    0
370
   -2
100
AcDbLine
 10
100
 20
-270.75
 11
100
 21
-300
  0
SOLID
  5
135
100
AcDbEntity
  8
Dimension
  6
ByBlock
 62
    0
370
   -2
100
AcDbTrace
 10
100
 20
-270.75
 30
0
 11
100.1248853973319
 21
-271.5
 31
0
 12
99.87511460266815
 22
-271.5
 32
0
 13
99.87511460266815
 23
-271.5
 33
0
  0
SOLID
  5
136
100
AcDbEntity
  8
Dimension
  6
ByBlock
 62
    0
370
   -2
100
AcDbTrace
 10
100
 20
-300
 30
0
 11
99.87511460266815
 21
-299.25
 31
0
 12
100.1248853973319
 22
-299.25
 32
0
 13
100.1248853973319
 23
-299.25
 33
0
  0
MTEXT
  5
137
100
AcDbEntity
  8
Dimension
  6
CONTINUOUS
 62
    0
370
   -2
100
AcDbMText
 10
98.5
 20
-285.375
 30
0
 40
2.5
 41
15.34722222222238
 71
    5
 72
    1
  1
2'-5 1/4"
  7
standard
210
0
220
0
230
1
 50
90
 73
    2
 44
1
  0
LINE
  5
138
100
AcDbEntity
  8
Dimension
  6
ByBlock
 62
    0
370
   -2
100
AcDbLine
 10
96.62499999999993
 20
-270.75
 11
101.25
 21
-270.75
  0
LINE
  5
139
100
AcDbEntity
  8
Dimension
  6
ByBlock
 62
    0
370
   -2
100
AcDbLine
 10
96.62499999999993
 20
-300
 11
101.25
 21
-300
  0
ENDBLK
  5
94
330
92
100
AcDbEntity
  8
0
100
AcDbBlockEnd
  0
BLOCK
  5
96
330
95
100
AcDbEntity
  8
0
100
AcDbBlockBegin
  2
*D30
 70
    1
 10
0
 20
0
  3
*D30
  1

  0
LINE
  5
13A
100
AcDbEntity
  8
Dimension
  6
ByBlock
 62
    0
370
   -2
100
AcDbLine
 10
175
 20
-4
 11
206
 21
-4
  0
SOLID
  5
13B
100
AcDbEntity
  8
Dimension
  6
ByBlock
 62
    0
370
   -2
100
AcDbTrace
 10
175
 20
-4
 30
0
 11
175.75
 21
-3.875114602668148
 31
0
 12
175.75
 22
-4.124885397331853
 32
0
 13
175.75
 23
-4.124885397331853
 33
0
  0
SOLID
  5
13C
100
AcDbEntity
  8
Dimension
  6
ByBlock
 62
    0
370
   -2
100
AcDbTrace
 10
206
 20
-4
 30
0
 11
205.25
 21
-4.124885397331852
 31
0
 12
205.25
 22
-3.875114602668148
 32
0
 13
205.25
 23
-3.875114602668148
 33
0
  0
MTEXT
  5
13D
100
AcDbEntity
  8
Dimension
  6
CONTINUOUS
 62
    0
370
   -2
100
AcDbMText
 10
190.5
 20
-2.5
 30
0
 40
2.5
 41
7.916666666666666
 71
    5
 72
    1
  1
2'-7"
  7
standard
210
0
220
0
230
1
 50
0
 73
    2
 44
1
  0
LINE
  5
13E
100
AcDbEntity
  8
Dimension
  6
ByBlock
 62
    0
370
   -2
100
AcDbLine
 10
175
 20
-0.6250000000000159
 11
175
 21
-5.25
  0
LINE
  5
13F
100
AcDbEntity
  8
Dimension
  6
ByBlock
 62
    0
370
   -2
100
AcDbLine
 10
206
 20
-0.625
 11
206
 21
-5.25
  0
ENDBLK
  5
97
330
95
100
AcDbEntity
  8
0
100
AcDbBlockEnd
  0
BLOCK
  5
99
330
98
100
AcDbEntity
  8
0
100
AcDbBlockBegin
  2
*D12
 70
    1
 10
0
 20
0
  3
*D12
  1

  0
LINE
  5
140
100
AcDbEntity
  8
Dimension
  6
ByBlock
 62
    0
370
   -2
100
AcDbLine
 10
99.99999999999999
 20
-165
 11
99.99999999999999
 21
-180
  0
SOLID
  5
141
100
AcDbEntity
  8
Dimension
  6
ByBlock
 62
    0
370
   -2
100
AcDbTrace
 10
99.99999999999999
 20
-165
 30
0
 11
100.1248853973318
 21
-165.75
 31
0
 12
99.87511460266813
 22
-165.75
 32
0
 13
99.87511460266813
 23
-165.75
 33
0
  0
SOLID
  5
142
100
AcDbEntity
  8
Dimension
  6
ByBlock
 62
    0
370
   -2
100
AcDbTrace
 10
99.99999999999999
 20
-180
 30
0
 11
99.87511460266813
 21
-179.25
 31
0
 12
100.1248853973318
 22
-179.25
 32
0
 13
100.1248853973318
 23
-179.25
 33
0
  0
MTEXT
  5
143
100
AcDbEntity
  8
Dimension
  6
CONTINUOUS
 62
    0
370
   -2
100
AcDbMText
 10
98.49999999999999
 20
-172.5
 30
0
 40
2.5
 41
7.361111111111265
 71
    5
 72
    1
  1
1'-3"
  7
standard
210
0
220
0
230
1
 50
90
 73
    2
 44
1
  0
LINE
  5
144
100
AcDbEntity
  8
Dimension
  6
ByBlock
 62
    0
370
   -2
100
AcDbLine
 10
96.62499999999997
 20
-165
 11
101.25
 21
-165
  0
LINE
  5
145
100
AcDbEntity
  8
Dimension
  6
ByBlock
 62
    0
370
   -2
100
AcDbLine
 10
96.62499999999996
 20
-180
 11
101.25
 21
-180
  0
ENDBLK
  5
9A
330
98
100
AcDbEntity
  8
0
100
AcDbBlockEnd
  0
BLOCK
  5
9C
330
9B
100
AcDbEntity
  8
0
100
AcDbBlockBegin
  2
*D18
 70
    1
 10
0
 20
0
  3
*D18
  1

  0
LINE
  5
146
100
AcDbEntity
  8
Dimension
  6
ByBlock
 62
    0
370
   -2
100
AcDbLine
 10
86.99999999999996
 20
-250
 11
95.99999999999994
 21
-250
  0
SOLID
  5
147
100
AcDbEntity
  8
Dimension
  6
ByBlock
 62
    0
370
   -2
100
AcDbTrace
 10
86.99999999999996
 20
-250
 30
0
 11
87.74999999999996
 21
-249.8751146026681
 31
0
 12
87.74999999999996
 22
-250.1248853973319
 32
0
 13
87.74999999999996
 23
-250.1248853973319
 33
0
  0
SOLID
  5
148
100
AcDbEntity
  8
Dimension
  6
ByBlock
 62
    0
370
   -2
100
AcDbTrace
 10
95.99999999999994
 20
-250
 30
0
 11
95.24999999999994
 21
-250.1248853973319
 31
0
 12
95.24999999999994
 22
-249.8751146026681
 32
0
 13
95.24999999999994
 23
-249.8751146026681
 33
0
  0
MTEXT
  5
149
100
AcDbEntity
  8
Dimension
  6
CONTINUOUS
 62
    0
370
   -2
100
AcDbMText
 10
91.49999999999994
 20
-248.5
 30
0
 40
2.5
 41
7.916666666666666
 71
    5
 72
    1
  1
0'-9"
  7
standard
210
0
220
0
230
1
 50
0
 73
    2
 44
1
  0
LINE
  5
14A
100
AcDbEntity
  8
Dimension
  6
ByBlock
 62
    0
370
   -2
100
AcDbLine
 10
86.99999999999996
 20
-251.375
 11
86.99999999999996
 21
-248.75
  0
LINE
  5
14B
100
AcDbEntity
  8
Dimension
  6
ByBlock
 62
    0
370
   -2
100
AcDbLine
 10
95.99999999999994
 20
-251.375
 11
95.99999999999994
 21
-248.75
  0
ENDBLK
  5
9D
330
9B
100
AcDbEntity
  8
0
100
AcDbBlockEnd
  0
BLOCK
  5
9F
330
9E
100
AcDbEntity
  8
0
100
AcDbBlockBegin
  2
*D26
 70
    1
 10
0
 20
0
  3
*D26
  1

  0
LINE
  5
14C
100
AcDbEntity
  8
Dimension
  6
ByBlock
 62
    0
370
   -2
100
AcDbLine
 10
65.24999999999999
 20
-70
 11
77.99999999999997
 21
-70
  0
SOLID
  5
14D
100
AcDbEntity
  8
Dimension
  6
ByBlock
 62
    0
370
   -2
100
AcDbTrace
 10
65.24999999999999
 20
-70
 30
0
 11
65.99999999999999
 21
-69.87511460266815
 31
0
 12
65.99999999999999
 22
-70.12488539733185
 32
0
 13
65.99999999999999
 23
-70.12488539733185
 33
0
  0
SOLID
  5
14E
100
AcDbEntity
  8
Dimension
  6
ByBlock
 62
    0
370
   -2
100
AcDbTrace
 10
77.99999999999997
 20
-70
 30
0
 11
77.24999999999997
 21
-70.12488539733185
 31
0
 12
77.24999999999997
 22
-69.87511460266815
 32
0
 13
77.24999999999997
 23
-69.87511460266815
 33
0
  0
MTEXT
  5
14F
100
AcDbEntity
  8
Dimension
  6
CONTINUOUS
 62
    0
370
   -2
100
AcDbMText
 10
71.62499999999997
 20
-68.5
 30
0
 40
2.5
 41
11.52777777777793
 71
    5
 72
    1
  1
1'-3/4"
  7
standard
210
0
220
0
230
1
 50
0
 73
    2
 44
1
  0
LINE
  5
150
100
AcDbEntity
  8
Dimension
  6
ByBlock
 62
    0
370
   -2
100
AcDbLine
 10
65.24999999999999
 20
-71.37500000000001
 11
65.24999999999999
 21
-68.75
  0
LINE
  5
151
100
AcDbEntity
  8
Dimension
  6
ByBlock
 62
    0
370
   -2
100
AcDbLine
 10
77.99999999999997
 20
-71.375
 11
77.99999999999997
 21
-68.75
  0
ENDBLK
  5
A0
330
9E
100
AcDbEntity
  8
0
100
AcDbBlockEnd
  0
BLOCK
  5
A2
330
A1
100
AcDbEntity
  8
0
100
AcDbBlockBegin
  2
*D28
 70
    1
 10
0
 20
0
  3
*D28
  1

  0
LINE
  5
152
100
AcDbEntity
  8
Dimension
  6
ByBlock
 62
    0
370
   -2
100
AcDbLine
 10
-9.999999999999998
 20
-312
 11
-10
 21
-342
  0
SOLID
  5
153
100
AcDbEntity
  8
Dimension
  6
ByBlock
 62
    0
370
   -2
100
AcDbTrace
 10
-9.999999999999998
 20
-312
 30
0
 11
-9.875114602668146
 21
-312.75
 31
0
 12
-10.12488539733185
 22
-312.75
 32
0
 13
-10.12488539733185
 23
-312.75
 33
0
  0
SOLID
  5
154
100
AcDbEntity
  8
Dimension
  6
ByBlock
 62
    0
370
   -2
100
AcDbTrace
 10
-10
 20
-342
 30
0
 11
-10.12488539733185
 21
-341.25
 31
0
 12
-9.875114602668148
 22
-341.25
 32
0
 13
-9.875114602668148
 23
-341.25
 33
0
  0
MTEXT
  5
155
100
AcDbEntity
  8
Dimension
  6
CONTINUOUS
 62
    0
370
   -2
100
AcDbMText
 10
-11.5
 20
-327
 30
0
 40
2.5
 41
7.916666666666822
 71
    5
 72
    1
  1
2'-6"
  7
standard
210
0
220
0
230
1
 50
90
 73
    2
 44
1
  0
LINE
  5
156
100
AcDbEntity
  8
Dimension
  6
ByBlock
 62
    0
370
   -2
100
AcDbLine
 10
-0.6250000000000573
 20
-312
 11
-11.25
 21
-312
  0
LINE
  5
157
100
AcDbEntity
  8
Dimension
  6
ByBlock
 62
    0
370
   -2
100
AcDbLine
 10
-0.6250000000000628
 20
-342
 11
-11.25
 21
-342
  0
ENDBLK
  5
A3
330
A1
100
AcDbEntity
  8
0
100
AcDbBlockEnd
  0
BLOCK
  5
A5
330
A4
100
AcDbEntity
  8
0
100
AcDbBlockBegin
  2
*D10
 70
    1
 10
0
 20
0
  3
*D10
  1

  0
LINE
  5
158
100
AcDbEntity
  8
Dimension
  6
ByBlock
 62
    0
370
   -2
100
AcDbLine
 10
-2.842170943040401e-14
 20
-130
 11
65.24999999999997
 21
-130
  0
SOLID
  5
159
100
AcDbEntity
  8
Dimension
  6
ByBlock
 62
    0
370
   -2
100
AcDbTrace
 10
-2.842170943040401e-14
 20
-130
 30
0
 11
0.7499999999999716
 21
-129.8751146026681
 31
0
 12
0.7499999999999716
 22
-130.1248853973319
 32
0
 13
0.7499999999999716
 23
-130.1248853973319
 33
0
  0
SOLID
  5
15A
100
AcDbEntity
  8
Dimension
  6
ByBlock
 62
    0
370
   -2
100
AcDbTrace
 10
65.24999999999997
 20
-130
 30
0
 11
64.49999999999997
 21
-130.1248853973319
 31
0
 12
64.49999999999997
 22
-129.8751146026681
 32
0
 13
64.49999999999997
 23
-129.8751146026681
 33
0
  0
MTEXT
  5
15B
100
AcDbEntity
  8
Dimension
  6
CONTINUOUS
 62
    0
370
   -2
100
AcDbMText
 10
32.62499999999997
 20
-128.5
 30
0
 40
2.5
 41
15.34722222222253
 71
    5
 72
    1
  1
5'-5 1/4"
  7
standard
210
0
220
0
230
1
 50
0
 73
    2
 44
1
  0
LINE
  5
15C
100
AcDbEntity
  8
Dimension
  6
ByBlock
 62
    0
370
   -2
100
AcDbLine
 10
-2.559751519142568e-14
 20
-131.375
 11
-3.112072656702019e-14
 21
-128.75
  0
LINE
  5
15D
100
AcDbEntity
  8
Dimension
  6
ByBlock
 62
    0
370
   -2
100
AcDbLine
 10
65.24999999999997
 20
-131.375
 11
65.24999999999997
 21
-128.75
  0
ENDBLK
  5
A6
330
A4
100
AcDbEntity
  8
0
100
AcDbBlockEnd
  0
BLOCK
  5
A8
330
A7
100
AcDbEntity
  8
0
100
AcDbBlockBegin
  2
*D2
 70
    1
 10
0
 20
0
  3
*D2
  1

  0
LINE
  5
15E
100
AcDbEntity
  8
Dimension
  6
ByBlock
 62
    0
370
   -2
100
AcDbLine
 10
87.5
 20
50
 11
96
 21
50
  0
SOLID
  5
15F
100
AcDbEntity
  8
Dimension
  6
ByBlock
 62
    0
370
   -2
100
AcDbTrace
 10
87.5
 20
50
 30
0
 11
88.25
 21
50.12488539733185
 31
0
 12
88.25
 22
49.87511460266815
 32
0
 13
88.25
 23
49.87511460266815
 33
0
  0
SOLID
  5
160
100
AcDbEntity
  8
Dimension
  6
ByBlock
 62
    0
370
   -2
100
AcDbTrace
 10
96
 20
50
 30
0
 11
95.25
 21
49.87511460266815
 31
0
 12
95.25
 22
50.12488539733185
 32
0
 13
95.25
 23
50.12488539733185
 33
0
  0
MTEXT
  5
161
100
AcDbEntity
  8
Dimension
  6
CONTINUOUS
 62
    0
370
   -2
100
AcDbMText
 10
103.7847222222222
 20
51
 30
0
 40
2.5
 41
15.06944444444444
 71
    5
 72
    1
  1
0'-8 1/2"
  7
standard
210
0
220
0
230
1
 50
0
 73
    2
 44
1
  0
LINE
  5
162
100
AcDbEntity
  8
Dimension
  6
ByBlock
 62
    0
370
   -2
100
AcDbLine
 10
87.5
 20
48.62499999999998
 11
87.5
 21
51.25
  0
LINE
  5
163
100
AcDbEntity
  8
Dimension
  6
ByBlock
 62
    0
370
   -2
100
AcDbLine
 10
96
 20
48.62499999999998
 11
96
 21
51.25
  0
ENDBLK
  5
A9
330
A7
100
AcDbEntity
  8
0
100
AcDbBlockEnd
  0
BLOCK
  5
AB
330
AA
100
AcDbEntity
  8
0
100
AcDbBlockBegin
  2
*D11
 70
    1
 10
0
 20
0
  3
*D11
  1

  0
LINE
  5
164
100
AcDbEntity
  8
Dimension
  6
ByBlock
 62
    0
370
   -2
100
AcDbLine
 10
99.99999999999999
 20
-132
 11
99.99999999999999
 21
-165
  0
SOLID
  5
165
100
AcDbEntity
  8
Dimension
  6
ByBlock
 62
    0
370
   -2
100
AcDbTrace
 10
99.99999999999999
 20
-132
 30
0
 11
100.1248853973318
 21
-132.75
 31
0
 12
99.87511460266813
 22
-132.75
 32
0
 13
99.87511460266813
 23
-132.75
 33
0
  0
SOLID
  5
166
100
AcDbEntity
  8
Dimension
  6
ByBlock
 62
    0
370
   -2
100
AcDbTrace
 10
99.99999999999999
 20
-165
 30
0
 11
99.87511460266813
 21
-164.25
 31
0
 12
100.1248853973318
 22
-164.25
 32
0
 13
100.1248853973318
 23
-164.25
 33
0
  0
MTEXT
  5
167
100
AcDbEntity
  8
Dimension
  6
CONTINUOUS
 62
    0
370
   -2
100
AcDbMText
 10
98.49999999999999
 20
-148.5
 30
0
 40
2.5
 41
7.916666666666666
 71
    5
 72
    1
  1
2'-9"
  7
standard
210
0
220
0
230
1
 50
90
 73
    2
 44
1
  0
LINE
  5
168
100
AcDbEntity
  8
Dimension
  6
ByBlock
 62
    0
370
   -2
100
AcDbLine
 10
96.62499999999994
 20
-132
 11
101.25
 21
-132
  0
LINE
  5
169
100
AcDbEntity
  8
Dimension
  6
ByBlock
 62
    0
370
   -2
100
AcDbLine
 10
96.62499999999997
 20
-165
 11
101.25
 21
-165
  0
ENDBLK
  5
AC
330
AA
100
AcDbEntity
  8
0
100
AcDbBlockEnd
  0
BLOCK
  5
AE
330
AD
100
AcDbEntity
  8
0
100
AcDbBlockBegin
  2
*D31
 70
    1
 10
0
 20
0
  3
*D31
  1

  0
LINE
  5
16A
100
AcDbEntity
  8
Dimension
  6
ByBlock
 62
    0
370
   -2
100
AcDbLine
 10
110
 20
30
 11
194
 21
30
  0
SOLID
  5
16B
100
AcDbEntity
  8
Dimension
  6
ByBlock
 62
    0
370
   -2
100
AcDbTrace
 10
110
 20
30
 30
0
 11
110.75
 21
30.12488539733185
 31
0
 12
110.75
 22
29.87511460266815
 32
0
 13
110.75
 23
29.87511460266815
 33
0
  0
SOLID
  5
16C
100
AcDbEntity
  8
Dimension
  6
ByBlock
 62
    0
370
   -2
100
AcDbTrace
 10
194
 20
30
 30
0
 11
193.25
 21
29.87511460266815
 31
0
 12
193.25
 22
30.12488539733185
 32
0
 13
193.25
 23
30.12488539733185
 33
0
  0
MTEXT
  5
16D
100
AcDbEntity
  8
Dimension
  6
CONTINUOUS
 62
    0
370
   -2
100
AcDbMText
 10
152
 20
31.5
 30
0
 40
2.5
 41
7.916666666666666
 71
    5
 72
    1
  1
7'-0"
  7
standard
210
0
220
0
230
1
 50
0
 73
    2
 44
1
  0
LINE
  5
16E
100
AcDbEntity
  8
Dimension
  6
ByBlock
 62
    0
370
   -2
100
AcDbLine
 10
110
 20
29.125
 11
110
 21
31.25
  0
LINE
  5
16F
100
AcDbEntity
  8
Dimension
  6
ByBlock
 62
    0
370
   -2
100
AcDbLine
 10
194
 20
29.125
 11
194
 21
31.25
  0
ENDBLK
  5
AF
330
AD
100
AcDbEntity
  8
0
100
AcDbBlockEnd
  0
ENDSEC
  0
SECTION
  2
ENTITIES
  0
LINE
  5
170
100
AcDbEntity
  8
construction
  6
ByLayer
 62
  256
370
   -1
100
AcDbLine
 10
0
 20
0
 11
96
 21
0
  0
LINE
  5
171
100
AcDbEntity
  8
construction
  6
ByLayer
 62
  256
370
   -1
100
AcDbLine
 10
96
 20
-2.351321854362918e-14
 11
96
 21
47.99999999999998
  0
LINE
  5
172
100
AcDbEntity
  8
construction
  6
ByLayer
 62
  256
370
   -1
100
AcDbLine
 10
2.939152317953648e-15
 20
48
 11
96
 21
48
  0
LWPOLYLINE
  5
173
100
AcDbEntity
  8
0
  6
ByLayer
 62
  256
370
   -1
100
AcDbPolyline
 90
    4
 70
    1
 43
0
 10
0
 20
0
 10
96
 20
0
 10
96
 20
48
 10
0
 20
48
  0
LINE
  5
174
100
AcDbEntity
  8
construction
  6
ByLayer
 62
  256
370
   -1
100
AcDbLine
 10
87.5
 20
-2.143131898507868e-14
 11
87.5
 21
47.99999999999998
  0
LINE
  5
175
100
AcDbEntity
  8
Cut
  6
ByLayer
 62
  256
370
   -1
100
AcDbLine
 10
87.5
 20
47.99999999999998
 11
87.5
 21
-2.143131898507868e-14
  0
DIMENSION
  5
176
100
AcDbEntity
  8
Dimension
  6
ByLayer
 62
  256
370
   -1
100
AcDbDimension
  2
*D1
 10
87.5
 20
50
 30
0
 11
43.75
 21
51
 31
0
 70
   32
 71
    5
  3
Standard
 53
0
210
0
220
0
230
1
100
AcDbAlignedDimension
 13
2.939152317953648e-15
 23
48
 33
0
 14
87.5
 24
48
 34
0
100
AcDbRotatedDimension
  0
DIMENSION
  5
177
100
AcDbEntity
  8
Dimension
  6
ByLayer
 62
  256
370
   -1
100
AcDbDimension
  2
*D2
 10
96
 20
50
 30
0
 11
91.75
 21
51
 31
0
 70
   32
 71
    5
  3
Standard
 53
0
210
0
220
0
230
1
100
AcDbAlignedDimension
 13
87.5
 23
47.99999999999998
 33
0
 14
96
 24
47.99999999999998
 34
0
100
AcDbRotatedDimension
  0
LINE
  5
178
100
AcDbEntity
  8
construction
  6
ByLayer
 62
  256
370
   -1
100
AcDbLine
 10
-2.204364238465236e-15
 20
-12
 11
96
 21
-12
  0
LINE
  5
179
100
AcDbEntity
  8
construction
  6
ByLayer
 62
  256
370
   -1
100
AcDbLine
 10
-1.102182119232618e-14
 20
-60
 11
95.99999999999999
 21
-60
  0
LINE
  5
17A
100
AcDbEntity
  8
construction
  6
ByLayer
 62
  256
370
   -1
100
AcDbLine
 10
0
 20
0
 11
2.939152317953648e-15
 21
48
  0
LWPOLYLINE
  5
17B
100
AcDbEntity
  8
0
  6
ByLayer
 62
  256
370
   -1
100
AcDbPolyline
 90
    4
 70
    1
 43
0
 10
-2.204364238465236e-15
 20
-12
 10
95.99999999999999
 20
-12
 10
95.99999999999999
 20
-60
 10
-2.204364238465236e-15
 20
-60
  0
LINE
  5
17C
100
AcDbEntity
  8
construction
  6
ByLayer
 62
  256
370
   -1
100
AcDbLine
 10
87.5
 20
-60.00000000000002
 11
87.5
 21
-12.00000000000002
  0
LINE
  5
17D
100
AcDbEntity
  8
Cut
  6
ByLayer
 62
  256
370
   -1
100
AcDbLine
 10
87.5
 20
-12.00000000000002
 11
87.5
 21
-60
  0
LINE
  5
17E
100
AcDbEntity
  8
construction
  6
ByLayer
 62
  256
370
   -1
100
AcDbLine
 10
-1.070035140755e-14
 20
-58.25
 11
95.99999999999999
 21
-58.25
  0
LINE
  5
17F
100
AcDbEntity
  8
Cut
  6
ByLayer
 62
  256
370
   -1
100
AcDbLine
 10
-1.070035140755e-14
 20
-58.25
 11
87.5
 21
-58.25
  0
DIMENSION
  5
180
100
AcDbEntity
  8
Dimension
  6
ByLayer
 62
  256
370
   -1
100
AcDbDimension
  2
*D3
 10
87.5
 20
-10
 30
0
 11
43.75
 21
-8.5
 31
0
 70
   32
 71
    5
 72
    0
  3
Standard
 53
0
210
0
220
0
230
1
100
AcDbAlignedDimension
 13
-2.204364238465236e-15
 23
-12
 33
0
 14
87.5
 24
-12.00000000000002
 34
0
100
AcDbRotatedDimension
  0
DIMENSION
  5
181
100
AcDbEntity
  8
Dimension
  6
ByLayer
 62
  256
370
   -1
100
AcDbDimension
  2
*D4
 10
95.99999999999999
 20
-10
 30
0
 11
91.75
 21
-8.5
 31
0
 70
   32
 71
    5
 72
    0
  3
Standard
 53
0
210
0
220
0
230
1
100
AcDbAlignedDimension
 13
87.5
 23
-12
 33
0
 14
95.99999999999999
 24
-12
 34
0
100
AcDbRotatedDimension
  0
DIMENSION
  5
182
100
AcDbEntity
  8
Dimension
  6
ByLayer
 62
  256
370
   -1
100
AcDbDimension
  2
*D5
 10
100
 20
-58.25
 30
0
 11
98.5
 21
-35.125
 31
0
 70
   32
 71
    5
 72
    0
  3
Standard
 53
0
210
0
220
0
230
1
100
AcDbAlignedDimension
 13
95.99999999999999
 23
-12
 33
0
 14
87.5
 24
-58.25
 34
0
 50
90
100
AcDbRotatedDimension
  0
DIMENSION
  5
183
100
AcDbEntity
  8
Dimension
  6
ByLayer
 62
  256
370
   -1
100
AcDbDimension
  2
*D6
 10
110
 20
-60
 30
0
 11
108.5
 21
-59.125
 31
0
 70
   32
 71
    5
 72
    0
  3
Standard
 53
0
210
0
220
0
230
1
100
AcDbAlignedDimension
 13
95.99999999999999
 23
-58.25
 33
0
 14
95.99999999999999
 24
-60
 34
0
 50
90
100
AcDbRotatedDimension
  0
MTEXT
  5
184
100
AcDbEntity
  8
Dimension
  6
ByLayer
 62
  256
370
   -1
100
AcDbMText
 10
40
 20
-30
 30
0
 40
2.5
 41
17.70833333333345
 71
    1
 72
    1
  1
Front door
  7
STANDARD
210
0
220
0
230
1
 50
0
 73
    2
 44
1
  0
LINE
  5
185
100
AcDbEntity
  8
construction
  6
ByLayer
 62
  256
370
   -1
100
AcDbLine
 10
-1.322618543079141e-14
 20
-72
 11
95.99999999999999
 21
-72
  0
LINE
  5
186
100
AcDbEntity
  8
construction
  6
ByLayer
 62
  256
370
   -1
100
AcDbLine
 10
-2.204364238465236e-14
 20
-120
 11
95.99999999999997
 21
-120
  0
LWPOLYLINE
  5
187
100
AcDbEntity
  8
0
  6
ByLayer
 62
  256
370
   -1
100
AcDbPolyline
 90
    4
 70
    1
 43
0
 10
-1.322618543079141e-14
 20
-72
 10
95.99999999999997
 20
-72
 10
95.99999999999997
 20
-120
 10
-1.322618543079141e-14
 20
-120
  0
LINE
  5
188
100
AcDbEntity
  8
construction
  6
ByLayer
 62
  256
370
   -1
100
AcDbLine
 10
65.24999999999999
 20
-120
 11
65.24999999999999
 21
-72.00000000000001
  0
LINE
  5
189
100
AcDbEntity
  8
construction
  6
ByLayer
 62
  256
370
   -1
100
AcDbLine
 10
-1.928818708657081e-14
 20
-105
 11
95.99999999999999
 21
-105
  0
LINE
  5
18A
100
AcDbEntity
  8
Cut
  6
ByLayer
 62
  256
370
   -1
100
AcDbLine
 10
-1.322618543079141e-14
 20
-105
 11
65.24999999999999
 21
-105
  0
LINE
  5
18B
100
AcDbEntity
  8
Cut
  6
ByLayer
 62
  256
370
   -1
100
AcDbLine
 10
65.24999999999999
 20
-105
 11
65.24999999999999
 21
-72
  0
DIMENSION
  5
18C
100
AcDbEntity
  8
Dimension
  6
ByLayer
 62
  256
370
   -1
100
AcDbDimension
  2
*D7
 10
65.24999999999999
 20
-70
 30
0
 11
32.62499999999999
 21
-68.5
 31
0
 70
   32
 71
    5
 72
    0
  3
Standard
 53
0
210
0
220
0
230
1
100
AcDbAlignedDimension
 13
-1.322618543079141e-14
 23
-72
 33
0
 14
65.24999999999999
 24
-72
 34
0
100
AcDbRotatedDimension
  0
DIMENSION
  5
18D
100
AcDbEntity
  8
Dimension
  6
ByLayer
 62
  256
370
   -1
100
AcDbDimension
  2
*D8
 10
100
 20
-105
 30
0
 11
98.5
 21
-88.5
 31
0
 70
   32
 71
    5
 72
    0
  3
Standard
 53
0
210
0
220
0
230
1
100
AcDbAlignedDimension
 13
95.99999999999996
 23
-72
 33
0
 14
95.99999999999999
 24
-105
 34
0
 50
90
100
AcDbRotatedDimension
  0
DIMENSION
  5
18E
100
AcDbEntity
  8
Dimension
  6
ByLayer
 62
  256
370
   -1
100
AcDbDimension
  2
*D9
 10
100
 20
-120
 30
0
 11
98.5
 21
-112.5
 31
0
 70
   32
 71
    5
 72
    0
  3
Standard
 53
0
210
0
220
0
230
1
100
AcDbAlignedDimension
 13
95.99999999999999
 23
-105
 33
0
 14
95.99999999999997
 24
-120
 34
0
 50
90
100
AcDbRotatedDimension
  0
LINE
  5
18F
100
AcDbEntity
  8
construction
  6
ByLayer
 62
  256
370
   -1
100
AcDbLine
 10
-2.424800662311759e-14
 20
-132
 11
95.99999999999997
 21
-132
  0
LINE
  5
190
100
AcDbEntity
  8
construction
  6
ByLayer
 62
  256
370
   -1
100
AcDbLine
 10
-2.424800662311759e-14
 20
-132
 11
95.99999999999997
 21
-132
  0
LINE
  5
191
100
AcDbEntity
  8
construction
  6
ByLayer
 62
  256
370
   -1
100
AcDbLine
 10
-3.306546357697854e-14
 20
-180
 11
95.99999999999996
 21
-180
  0
LINE
  5
192
100
AcDbEntity
  8
construction
  6
ByLayer
 62
  256
370
   -1
100
AcDbLine
 10
65.24999999999997
 20
-180
 11
65.24999999999997
 21
-132
  0
LINE
  5
193
100
AcDbEntity
  8
construction
  6
ByLayer
 62
  256
370
   -1
100
AcDbLine
 10
-3.031000827889699e-14
 20
-165
 11
95.99999999999997
 21
-165
  0
LINE
  5
194
100
AcDbEntity
  8
Cut
  6
ByLayer
 62
  256
370
   -1
100
AcDbLine
 10
-2.424800662311759e-14
 20
-165
 11
65.24999999999997
 21
-165
  0
LINE
  5
195
100
AcDbEntity
  8
Cut
  6
ByLayer
 62
  256
370
   -1
100
AcDbLine
 10
65.24999999999997
 20
-165
 11
65.24999999999997
 21
-132
  0
DIMENSION
  5
196
100
AcDbEntity
  8
Dimension
  6
ByLayer
 62
  256
370
   -1
100
AcDbDimension
  2
*D10
 10
65.24999999999997
 20
-130
 30
0
 11
32.62499999999997
 21
-128.5
 31
0
 70
   32
 71
    5
 72
    0
  3
Standard
 53
0
210
0
220
0
230
1
100
AcDbAlignedDimension
 13
-2.424800662311759e-14
 23
-132
 33
0
 14
65.24999999999997
 24
-132
 34
0
100
AcDbRotatedDimension
  0
DIMENSION
  5
197
100
AcDbEntity
  8
Dimension
  6
ByLayer
 62
  256
370
   -1
100
AcDbDimension
  2
*D11
 10
99.99999999999999
 20
-165
 30
0
 11
98.49999999999999
 21
-148.5
 31
0
 70
   32
 71
    5
 72
    0
  3
Standard
 53
0
210
0
220
0
230
1
100
AcDbAlignedDimension
 13
95.99999999999994
 23
-132
 33
0
 14
95.99999999999997
 24
-165
 34
0
 50
90
100
AcDbRotatedDimension
  0
DIMENSION
  5
198
100
AcDbEntity
  8
Dimension
  6
ByLayer
 62
  256
370
   -1
100
AcDbDimension
  2
*D12
 10
99.99999999999999
 20
-180
 30
0
 11
98.49999999999999
 21
-172.5
 31
0
 70
   32
 71
    5
 72
    0
  3
Standard
 53
0
210
0
220
0
230
1
100
AcDbAlignedDimension
 13
95.99999999999997
 23
-165
 33
0
 14
95.99999999999996
 24
-180
 34
0
 50
90
100
AcDbRotatedDimension
  0
MTEXT
  5
199
100
AcDbEntity
  8
Dimension
  6
ByLayer
 62
  256
370
   -1
100
AcDbMText
 10
20
 20
-90
 30
0
 40
2.5
 41
15.20833280332796
 71
    1
 72
    1
  1
Left Side
  7
STANDARD
210
0
220
0
230
1
 50
0
 73
    2
 44
1
  0
MTEXT
  5
19A
100
AcDbEntity
  8
Dimension
  6
ByLayer
 62
  256
370
   -1
100
AcDbMText
 10
20
 20
-150
 30
0
 40
2.5
 41
16.59722169221709
 71
    1
 72
    1
  1
Right Side
  7
STANDARD
210
0
220
0
230
1
 50
0
 73
    2
 44
1
  0
LWPOLYLINE
  5
19B
100
AcDbEntity
  8
0
  6
ByLayer
 62
  256
370
   -1
100
AcDbPolyline
 90
    4
 70
    1
 43
0
 10
-2.424800662311759e-14
 20
-132
 10
95.99999999999996
 20
-132
 10
95.99999999999996
 20
-180
 10
-2.424800662311759e-14
 20
-180
  0
LINE
  5
19C
100
AcDbEntity
  8
construction
  6
ByLayer
 62
  256
370
   -1
100
AcDbLine
 10
-3.526982781544377e-14
 20
-192
 11
95.99999999999996
 21
-192
  0
LINE
  5
19D
100
AcDbEntity
  8
construction
  6
ByLayer
 62
  256
370
   -1
100
AcDbLine
 10
-4.408728476930472e-14
 20
-240
 11
95.99999999999994
 21
-240
  0
LWPOLYLINE
  5
19E
100
AcDbEntity
  8
0
  6
ByLayer
 62
  256
370
   -1
100
AcDbPolyline
 90
    4
 70
    1
 43
0
 10
-3.526982781544377e-14
 20
-192
 10
95.99999999999994
 20
-192
 10
95.99999999999994
 20
-240
 10
-3.526982781544377e-14
 20
-240
  0
LINE
  5
19F
100
AcDbEntity
  8
construction
  6
ByLayer
 62
  256
370
   -1
100
AcDbLine
 10
86.99999999999997
 20
-240
 11
86.99999999999997
 21
-192
  0
LINE
  5
1A0
100
AcDbEntity
  8
construction
  6
ByLayer
 62
  256
370
   -1
100
AcDbLine
 10
-4.133182947122317e-14
 20
-225
 11
95.99999999999996
 21
-225
  0
LINE
  5
1A1
100
AcDbEntity
  8
Cut
  6
ByLayer
 62
  256
370
   -1
100
AcDbLine
 10
-4.133182947122317e-14
 20
-225
 11
86.99999999999996
 21
-225
  0
LINE
  5
1A2
100
AcDbEntity
  8
Cut
  6
ByLayer
 62
  256
370
   -1
100
AcDbLine
 10
86.99999999999996
 20
-225
 11
86.99999999999996
 21
-192
  0
DIMENSION
  5
1A3
100
AcDbEntity
  8
Dimension
  6
ByLayer
 62
  256
370
   -1
100
AcDbDimension
  2
*D13
 10
86.99999999999997
 20
-190
 30
0
 11
43.49999999999997
 21
-188.5
 31
0
 70
   32
 71
    5
 72
    0
  3
Standard
 53
0
210
0
220
0
230
1
100
AcDbAlignedDimension
 13
-3.526982781544377e-14
 23
-192
 33
0
 14
86.99999999999997
 24
-192
 34
0
100
AcDbRotatedDimension
  0
DIMENSION
  5
1A4
100
AcDbEntity
  8
Dimension
  6
ByLayer
 62
  256
370
   -1
100
AcDbDimension
  2
*D14
 10
95.99999999999994
 20
-190
 30
0
 11
91.49999999999996
 21
-188.5
 31
0
 70
   32
 71
    5
 72
    0
  3
Standard
 53
0
210
0
220
0
230
1
100
AcDbAlignedDimension
 13
86.99999999999997
 23
-192
 33
0
 14
95.99999999999994
 24
-192
 34
0
100
AcDbRotatedDimension
  0
DIMENSION
  5
1A5
100
AcDbEntity
  8
Dimension
  6
ByLayer
 62
  256
370
   -1
100
AcDbDimension
  2
*D15
 10
100
 20
-225
 30
0
 11
98.5
 21
-208.5
 31
0
 70
   32
 71
    5
 72
    0
  3
Standard
 53
0
210
0
220
0
230
1
100
AcDbAlignedDimension
 13
95.99999999999996
 23
-192
 33
0
 14
95.99999999999994
 24
-225
 34
0
 50
90
100
AcDbRotatedDimension
  0
DIMENSION
  5
1A6
100
AcDbEntity
  8
Dimension
  6
ByLayer
 62
  256
370
   -1
100
AcDbDimension
  2
*D16
 10
100
 20
-240
 30
0
 11
98.5
 21
-232.5
 31
0
 70
   32
 71
    5
 72
    0
  3
Standard
 53
0
210
0
220
0
230
1
100
AcDbAlignedDimension
 13
95.99999999999996
 23
-225
 33
0
 14
95.99999999999994
 24
-240
 34
0
 50
90
100
AcDbRotatedDimension
  0
MTEXT
  5
1A7
100
AcDbEntity
  8
Dimension
  6
ByLayer
 62
  256
370
   -1
100
AcDbMText
 10
30
 20
-210
 30
0
 40
2.5
 41
5.277777777777779
 71
    1
 72
    1
  1
Top
  7
STANDARD
210
0
220
0
230
1
 50
0
 73
    2
 44
1
  0
MTEXT
  5
1A8
100
AcDbEntity
  8
Dimension
  6
ByLayer
 62
  256
370
   -1
100
AcDbMText
 10
30
 20
30
 30
0
 40
2.5
 41
38.74999919221757
 71
    1
 72
    1
  1
Back (upper) Sheathing
  7
STANDARD
210
0
220
0
230
1
 50
0
 73
    2
 44
1
  0
LINE
  5
1A9
100
AcDbEntity
  8
construction
  6
ByLayer
 62
  256
370
   -1
100
AcDbLine
 10
-4.629164900776995e-14
 20
-252
 11
95.99999999999994
 21
-252
  0
LINE
  5
1AA
100
AcDbEntity
  8
construction
  6
ByLayer
 62
  256
370
   -1
100
AcDbLine
 10
-5.510910596163089e-14
 20
-300
 11
95.99999999999993
 21
-300
  0
LWPOLYLINE
  5
1AB
100
AcDbEntity
  8
0
  6
ByLayer
 62
  256
370
   -1
100
AcDbPolyline
 90
    4
 70
    1
 43
0
 10
-4.629164900776995e-14
 20
-252
 10
95.99999999999993
 20
-252
 10
95.99999999999993
 20
-300
 10
-4.629164900776995e-14
 20
-300
  0
LINE
  5
1AC
100
AcDbEntity
  8
construction
  6
ByLayer
 62
  256
370
   -1
100
AcDbLine
 10
86.99999999999996
 20
-300
 11
86.99999999999996
 21
-252
  0
LINE
  5
1AD
100
AcDbEntity
  8
construction
  6
ByLayer
 62
  256
370
   -1
100
AcDbLine
 10
-4.973596813037188e-14
 20
-270.75
 11
95.99999999999994
 21
-270.75
  0
LINE
  5
1AE
100
AcDbEntity
  8
Cut
  6
ByLayer
 62
  256
370
   -1
100
AcDbLine
 10
-4.973596813037188e-14
 20
-270.75
 11
86.99999999999996
 21
-270.75
  0
LINE
  5
1AF
100
AcDbEntity
  8
Cut
  6
ByLayer
 62
  256
370
   -1
100
AcDbLine
 10
86.99999999999996
 20
-270.75
 11
86.99999999999996
 21
-252
  0
DIMENSION
  5
1B0
100
AcDbEntity
  8
Dimension
  6
ByLayer
 62
  256
370
   -1
100
AcDbDimension
  2
*D17
 10
86.99999999999996
 20
-250
 30
0
 11
43.49999999999996
 21
-248.5
 31
0
 70
   32
 71
    5
 72
    0
  3
Standard
 53
0
210
0
220
0
230
1
100
AcDbAlignedDimension
 13
-4.629164900776995e-14
 23
-252
 33
0
 14
86.99999999999996
 24
-252
 34
0
100
AcDbRotatedDimension
  0
DIMENSION
  5
1B1
100
AcDbEntity
  8
Dimension
  6
ByLayer
 62
  256
370
   -1
100
AcDbDimension
  2
*D18
 10
95.99999999999994
 20
-250
 30
0
 11
91.49999999999994
 21
-248.5
 31
0
 70
   32
 71
    5
 72
    0
  3
Standard
 53
0
210
0
220
0
230
1
100
AcDbAlignedDimension
 13
86.99999999999996
 23
-252
 33
0
 14
95.99999999999994
 24
-252
 34
0
100
AcDbRotatedDimension
  0
DIMENSION
  5
1B2
100
AcDbEntity
  8
Dimension
  6
ByLayer
 62
  256
370
   -1
100
AcDbDimension
  2
*D19
 10
100
 20
-270.75
 30
0
 11
98.5
 21
-261.375
 31
0
 70
   32
 71
    5
 72
    0
  3
Standard
 53
0
210
0
220
0
230
1
100
AcDbAlignedDimension
 13
95.99999999999994
 23
-252
 33
0
 14
95.99999999999994
 24
-270.75
 34
0
 50
90
100
AcDbRotatedDimension
  0
DIMENSION
  5
1B3
100
AcDbEntity
  8
Dimension
  6
ByLayer
 62
  256
370
   -1
100
AcDbDimension
  2
*D20
 10
100
 20
-300
 30
0
 11
98.5
 21
-285.375
 31
0
 70
   32
 71
    5
 72
    0
  3
Standard
 53
0
210
0
220
0
230
1
100
AcDbAlignedDimension
 13
95.99999999999993
 23
-270.75
 33
0
 14
95.99999999999993
 24
-300
 34
0
 50
90
100
AcDbRotatedDimension
  0
MTEXT
  5
1B4
100
AcDbEntity
  8
Dimension
  6
ByLayer
 62
  256
370
   -1
100
AcDbMText
 10
30
 20
-260
 30
0
 40
2.5
 41
40.97222141444001
 71
    1
 72
    1
  1
Back (bottom) Sheathing
  7
STANDARD
210
0
220
0
230
1
 50
0
 73
    2
 44
1
  0
LINE
  5
1B5
100
AcDbEntity
  8
construction
  6
ByLayer
 62
  256
370
   -1
100
AcDbLine
 10
-5.396099958743025e-14
 20
-281.25
 11
95.99999999999993
 21
-281.25
  0
LINE
  5
1B6
100
AcDbEntity
  8
Cut
  6
ByLayer
 62
  256
370
   -1
100
AcDbLine
 10
-5.396099958743025e-14
 20
-281.25
 11
86.99999999999996
 21
-281.25
  0
LINE
  5
1B7
100
AcDbEntity
  8
Cut
  6
ByLayer
 62
  256
370
   -1
100
AcDbLine
 10
86.99999999999996
 20
-281.25
 11
86.99999999999996
 21
-300
  0
DIMENSION
  5
1B8
100
AcDbEntity
  8
Dimension
  6
ByLayer
 62
  256
370
   -1
100
AcDbDimension
  2
*D21
 10
-10
 20
-281.25
 30
0
 11
-11.5
 21
-290.625
 31
0
 70
   32
 71
    5
 72
    0
  3
Standard
 53
0
210
0
220
0
230
1
100
AcDbAlignedDimension
 13
-5.510910596163089e-14
 23
-300
 33
0
 14
-5.396099958743025e-14
 24
-281.25
 34
0
 50
90
100
AcDbRotatedDimension
  0
DIMENSION
  5
1B9
100
AcDbEntity
  8
Dimension
  6
ByLayer
 62
  256
370
   -1
100
AcDbDimension
  2
*D22
 10
-10
 20
-270.75
 30
0
 11
-11.5
 21
-276
 31
0
 70
   32
 71
    5
 72
    0
  3
Standard
 53
0
210
0
220
0
230
1
100
AcDbAlignedDimension
 13
-4.629164900776996e-14
 23
-281.25
 33
0
 14
-4.973596813037188e-14
 24
-270.75
 34
0
 50
90
100
AcDbRotatedDimension
  0
MTEXT
  5
1BA
100
AcDbEntity
  8
Dimension
  6
ByLayer
 62
  256
370
   -1
100
AcDbMText
 10
20
 20
-290
 30
0
 40
2.5
 41
42.36111030332891
 71
    1
 72
    1
  1
Front (bottom) Sheathing
  7
STANDARD
210
0
220
0
230
1
 50
0
 73
    2
 44
1
  0
LINE
  5
1BB
100
AcDbEntity
  8
construction
  6
ByLayer
 62
  256
370
   -1
100
AcDbLine
 10
77.99999999999996
 20
-132
 11
77.99999999999996
 21
-180
  0
LINE
  5
1BC
100
AcDbEntity
  8
construction
  6
ByLayer
 62
  256
370
   -1
100
AcDbLine
 10
77.99999999999997
 20
-72
 11
77.99999999999997
 21
-120
  0
LINE
  5
1BD
100
AcDbEntity
  8
Cut
  6
ByLayer
 62
  256
370
   -1
100
AcDbLine
 10
77.99999999999997
 20
-72
 11
77.99999999999997
 21
-105
  0
LINE
  5
1BE
100
AcDbEntity
  8
Cut
  6
ByLayer
 62
  256
370
   -1
100
AcDbLine
 10
77.99999999999997
 20
-105
 11
95.99999999999999
 21
-105
  0
LINE
  5
1BF
100
AcDbEntity
  8
Cut
  6
ByLayer
 62
  256
370
   -1
100
AcDbLine
 10
77.99999999999996
 20
-132
 11
77.99999999999996
 21
-165
  0
LINE
  5
1C0
100
AcDbEntity
  8
Cut
  6
ByLayer
 62
  256
370
   -1
100
AcDbLine
 10
77.99999999999996
 20
-165
 11
95.99999999999996
 21
-165
  0
DIMENSION
  5
1C1
100
AcDbEntity
  8
Dimension
  6
ByLayer
 62
  256
370
   -1
100
AcDbDimension
  2
*D23
 10
95.99999999999999
 20
-70
 30
0
 11
86.99999999999997
 21
-68.5
 31
0
 70
   32
 71
    5
 72
    0
  3
Standard
 53
0
210
0
220
0
230
1
100
AcDbAlignedDimension
 13
77.99999999999997
 23
-72
 33
0
 14
95.99999999999999
 24
-72
 34
0
100
AcDbRotatedDimension
  0
DIMENSION
  5
1C2
100
AcDbEntity
  8
Dimension
  6
ByLayer
 62
  256
370
   -1
100
AcDbDimension
  2
*D24
 10
95.99999999999996
 20
-130
 30
0
 11
86.99999999999996
 21
-128.5
 31
0
 70
   32
 71
    5
 72
    0
  3
Standard
 53
0
210
0
220
0
230
1
100
AcDbAlignedDimension
 13
77.99999999999996
 23
-132
 33
0
 14
95.99999999999996
 24
-132
 34
0
100
AcDbRotatedDimension
  0
DIMENSION
  5
1C3
100
AcDbEntity
  8
Dimension
  6
ByLayer
 62
  256
370
   -1
100
AcDbDimension
  2
*D25
 10
77.99999999999996
 20
-130
 30
0
 11
71.62499999999997
 21
-128.5
 31
0
 70
   32
 71
    5
 72
    0
  3
Standard
 53
0
210
0
220
0
230
1
100
AcDbAlignedDimension
 13
65.24999999999997
 23
-132
 33
0
 14
77.99999999999996
 24
-132
 34
0
100
AcDbRotatedDimension
  0
DIMENSION
  5
1C4
100
AcDbEntity
  8
Dimension
  6
ByLayer
 62
  256
370
   -1
100
AcDbDimension
  2
*D26
 10
77.99999999999997
 20
-70
 30
0
 11
71.62499999999997
 21
-68.5
 31
0
 70
   32
 71
    5
 72
    0
  3
Standard
 53
0
210
0
220
0
230
1
100
AcDbAlignedDimension
 13
65.24999999999999
 23
-72.00000000000001
 33
0
 14
77.99999999999997
 24
-72
 34
0
100
AcDbRotatedDimension
  0
MTEXT
  5
1C5
100
AcDbEntity
  8
Dimension
  6
ByLayer
 62
  256
370
   -1
100
AcDbMText
 10
80
 20
-100
 30
0
 40
2.5
 41
24.09722297793485
 71
    1
 72
    1
  1
Reservoir Side
  7
STANDARD
210
0
220
0
230
1
 50
90
 73
    2
 44
1
  0
MTEXT
  5
1C6
100
AcDbEntity
  8
Dimension
  6
ByLayer
 62
  256
370
   -1
100
AcDbMText
 10
80
 20
-160
 30
0
 40
2.5
 41
24.09722297793485
 71
    1
 72
    1
  1
Reservoir Side
  7
STANDARD
210
0
220
0
230
1
 50
90
 73
    2
 44
1
  0
LINE
  5
1C7
100
AcDbEntity
  8
construction
  6
ByLayer
 62
  256
370
   -1
100
AcDbLine
 10
-5.731347020009613e-14
 20
-312
 11
95.99999999999993
 21
-312
  0
LINE
  5
1C8
100
AcDbEntity
  8
construction
  6
ByLayer
 62
  256
370
   -1
100
AcDbLine
 10
-6.613092715395707e-14
 20
-360
 11
95.99999999999991
 21
-360
  0
LWPOLYLINE
  5
1C9
100
AcDbEntity
  8
0
  6
ByLayer
 62
  256
370
   -1
100
AcDbPolyline
 90
    4
 70
    1
 43
0
 10
-5.731347020009613e-14
 20
-312
 10
95.99999999999991
 20
-312
 10
95.99999999999991
 20
-360
 10
-5.731347020009613e-14
 20
-360
  0
LINE
  5
1CA
100
AcDbEntity
  8
construction
  6
ByLayer
 62
  256
370
   -1
100
AcDbLine
 10
32.99999999999994
 20
-360
 11
32.99999999999994
 21
-312
  0
LINE
  5
1CB
100
AcDbEntity
  8
construction
  6
ByLayer
 62
  256
370
   -1
100
AcDbLine
 10
-6.282438079625922e-14
 20
-342
 11
95.99999999999993
 21
-342
  0
LINE
  5
1CC
100
AcDbEntity
  8
Cut
  6
ByLayer
 62
  256
370
   -1
100
AcDbLine
 10
-5.731347020009613e-14
 20
-342
 11
32.99999999999994
 21
-342
  0
LINE
  5
1CD
100
AcDbEntity
  8
Cut
  6
ByLayer
 62
  256
370
   -1
100
AcDbLine
 10
32.99999999999994
 20
-342
 11
32.99999999999994
 21
-312
  0
MTEXT
  5
1CE
100
AcDbEntity
  8
Dimension
  6
ByLayer
 62
  256
370
   -1
100
AcDbMText
 10
10
 20
-320
 30
0
 40
2.5
 41
15.27777906349577
 71
    1
 72
    1
  1
Reservoir\PBottom
  7
STANDARD
210
0
220
0
230
1
 50
0
 73
    2
 44
1
  0
DIMENSION
  5
1CF
100
AcDbEntity
  8
Dimension
  6
ByLayer
 62
  256
370
   -1
100
AcDbDimension
  2
*D27
 10
32.99999999999994
 20
-310
 30
0
 11
16.49999999999994
 21
-308.5
 31
0
 70
   32
 71
    5
 72
    0
  3
Standard
 53
0
210
0
220
0
230
1
100
AcDbAlignedDimension
 13
-5.731347020009613e-14
 23
-312
 33
0
 14
32.99999999999994
 24
-312
 34
0
100
AcDbRotatedDimension
  0
DIMENSION
  5
1D0
100
AcDbEntity
  8
Dimension
  6
ByLayer
 62
  256
370
   -1
100
AcDbDimension
  2
*D28
 10
-10
 20
-342
 30
0
 11
-11.5
 21
-327
 31
0
 70
   32
 71
    5
 72
    0
  3
Standard
 53
0
210
0
220
0
230
1
100
AcDbAlignedDimension
 13
-5.731347020009613e-14
 23
-312
 33
0
 14
-6.282438079625922e-14
 24
-342
 34
0
 50
90
100
AcDbRotatedDimension
  0
LINE
  5
1D1
100
AcDbEntity
  8
0
  6
ByLayer
 62
  256
370
   -1
100
AcDbLine
 10
110
 20
0
 11
206
 21
0
  0
LINE
  5
1D2
100
AcDbEntity
  8
0
  6
ByLayer
 62
  256
370
   -1
100
AcDbLine
 10
110
 20
1.5
 11
206
 21
1.5
  0
LINE
  5
1D3
100
AcDbEntity
  8
0
  6
ByLayer
 62
  256
370
   -1
100
AcDbLine
 10
110
 20
3
 11
206
 21
3
  0
LINE
  5
1D4
100
AcDbEntity
  8
0
  6
ByLayer
 62
  256
370
   -1
100
AcDbLine
 10
110
 20
4.5
 11
206
 21
4.5
  0
LINE
  5
1D5
100
AcDbEntity
  8
0
  6
ByLayer
 62
  256
370
   -1
100
AcDbLine
 10
110
 20
6
 11
206
 21
6
  0
LINE
  5
1D6
100
AcDbEntity
  8
0
  6
ByLayer
 62
  256
370
   -1
100
AcDbLine
 10
110
 20
7.5
 11
206
 21
7.5
  0
LINE
  5
1D7
100
AcDbEntity
  8
0
  6
ByLayer
 62
  256
370
   -1
100
AcDbLine
 10
110
 20
9
 11
206
 21
9
  0
LINE
  5
1D8
100
AcDbEntity
  8
0
  6
ByLayer
 62
  256
370
   -1
100
AcDbLine
 10
110
 20
10.5
 11
206
 21
10.5
  0
LINE
  5
1D9
100
AcDbEntity
  8
0
  6
ByLayer
 62
  256
370
   -1
100
AcDbLine
 10
110
 20
12
 11
206
 21
12
  0
LINE
  5
1DA
100
AcDbEntity
  8
0
  6
ByLayer
 62
  256
370
   -1
100
AcDbLine
 10
110
 20
13.5
 11
206
 21
13.5
  0
LINE
  5
1DB
100
AcDbEntity
  8
0
  6
ByLayer
 62
  256
370
   -1
100
AcDbLine
 10
110
 20
0
 11
110
 21
1.5
  0
LINE
  5
1DC
100
AcDbEntity
  8
0
  6
ByLayer
 62
  256
370
   -1
100
AcDbLine
 10
110
 20
3
 11
110
 21
4.5
  0
LINE
  5
1DD
100
AcDbEntity
  8
0
  6
ByLayer
 62
  256
370
   -1
100
AcDbLine
 10
110
 20
6
 11
110
 21
7.5
  0
LINE
  5
1DE
100
AcDbEntity
  8
0
  6
ByLayer
 62
  256
370
   -1
100
AcDbLine
 10
110
 20
9
 11
110
 21
10.5
  0
LINE
  5
1DF
100
AcDbEntity
  8
0
  6
ByLayer
 62
  256
370
   -1
100
AcDbLine
 10
110
 20
12
 11
110
 21
13.5
  0
LINE
  5
1E0
100
AcDbEntity
  8
0
  6
ByLayer
 62
  256
370
   -1
100
AcDbLine
 10
206
 20
0
 11
206
 21
1.5
  0
LINE
  5
1E1
100
AcDbEntity
  8
0
  6
ByLayer
 62
  256
370
   -1
100
AcDbLine
 10
206
 20
3
 11
206
 21
4.5
  0
LINE
  5
1E2
100
AcDbEntity
  8
0
  6
ByLayer
 62
  256
370
   -1
100
AcDbLine
 10
206
 20
6
 11
206
 21
7.5
  0
LINE
  5
1E3
100
AcDbEntity
  8
0
  6
ByLayer
 62
  256
370
   -1
100
AcDbLine
 10
206
 20
9
 11
206
 21
10.5
  0
LINE
  5
1E4
100
AcDbEntity
  8
0
  6
ByLayer
 62
  256
370
   -1
100
AcDbLine
 10
206
 20
12
 11
206
 21
13.5
  0
LINE
  5
1E5
100
AcDbEntity
  8
Cut
  6
ByLayer
 62
  256
370
   -1
100
AcDbLine
 10
175
 20
-1.592040838891559e-14
 11
175
 21
1.499999999999984
  0
LINE
  5
1E6
100
AcDbEntity
  8
Cut
  6
ByLayer
 62
  256
370
   -1
100
AcDbLine
 10
175
 20
2.999999999999984
 11
175
 21
4.499999999999984
  0
LINE
  5
1E7
100
AcDbEntity
  8
Cut
  6
ByLayer
 62
  256
370
   -1
100
AcDbLine
 10
175
 20
5.999999999999984
 11
175
 21
7.499999999999984
  0
LINE
  5
1E8
100
AcDbEntity
  8
Cut
  6
ByLayer
 62
  256
370
   -1
100
AcDbLine
 10
175
 20
8.999999999999984
 11
175
 21
10.49999999999998
  0
DIMENSION
  5
1E9
100
AcDbEntity
  8
Dimension
  6
ByLayer
 62
  256
370
   -1
100
AcDbDimension
  2
*D29
 10
175
 20
-4
 30
0
 11
142.5
 21
-2.5
 31
0
 70
   32
 71
    5
  3
Standard
 53
0
210
0
220
0
230
1
100
AcDbAlignedDimension
 13
110
 23
0
 33
0
 14
175
 24
-1.592040838891559e-14
 34
0
100
AcDbRotatedDimension
  0
LINE
  5
1EA
100
AcDbEntity
  8
Cut
  6
ByLayer
 62
  256
370
   -1
100
AcDbLine
 10
194
 20
11.99999999999998
 11
194
 21
13.49999999999998
  0
DIMENSION
  5
1EB
100
AcDbEntity
  8
Dimension
  6
ByLayer
 62
  256
370
   -1
100
AcDbDimension
  2
*D30
 10
206
 20
-4
 30
0
 11
190.5
 21
-2.5
 31
0
 70
   32
 71
    5
  3
Standard
 53
0
210
0
220
0
230
1
100
AcDbAlignedDimension
 13
175
 23
-1.592040838891559e-14
 33
0
 14
206
 24
0
 34
0
100
AcDbRotatedDimension
  0
LINE
  5
1EC
100
AcDbEntity
  8
construction
  6
ByLayer
 62
  256
370
   -1
100
AcDbLine
 10
110
 20
15
 11
206
 21
15
  0
LINE
  5
1ED
100
AcDbEntity
  8
0
  6
ByLayer
 62
  256
370
   -1
100
AcDbLine
 10
110
 20
15
 11
206
 21
15
  0
LINE
  5
1EE
100
AcDbEntity
  8
0
  6
ByLayer
 62
  256
370
   -1
100
AcDbLine
 10
110
 20
16.5
 11
206
 21
16.5
  0
LINE
  5
1EF
100
AcDbEntity
  8
0
  6
ByLayer
 62
  256
370
   -1
100
AcDbLine
 10
110
 20
15
 11
110
 21
16.5
  0
LINE
  5
1F0
100
AcDbEntity
  8
0
  6
ByLayer
 62
  256
370
   -1
100
AcDbLine
 10
206
 20
15
 11
206
 21
16.5
  0
LINE
  5
1F1
100
AcDbEntity
  8
Cut
  6
ByLayer
 62
  256
370
   -1
100
AcDbLine
 10
194
 20
14.99999999999998
 11
194
 21
16.49999999999998
  0
LINE
  5
1F2
100
AcDbEntity
  8
0
  6
ByLayer
 62
  256
370
   -1
100
AcDbLine
 10
110
 20
18
 11
206
 21
18
  0
LINE
  5
1F3
100
AcDbEntity
  8
0
  6
ByLayer
 62
  256
370
   -1
100
AcDbLine
 10
110
 20
19.5
 11
206
 21
19.5
  0
LINE
  5
1F4
100
AcDbEntity
  8
0
  6
ByLayer
 62
  256
370
   -1
100
AcDbLine
 10
110
 20
18
 11
110
 21
19.5
  0
LINE
  5
1F5
100
AcDbEntity
  8
0
  6
ByLayer
 62
  256
370
   -1
100
AcDbLine
 10
206
 20
18
 11
206
 21
19.5
  0
LINE
  5
1F6
100
AcDbEntity
  8
Cut
  6
ByLayer
 62
  256
370
   -1
100
AcDbLine
 10
194
 20
17.99999999999998
 11
194
 21
19.49999999999998
  0
LINE
  5
1F7
100
AcDbEntity
  8
0
  6
ByLayer
 62
  256
370
   -1
100
AcDbLine
 10
110
 20
21
 11
206
 21
21
  0
LINE
  5
1F8
100
AcDbEntity
  8
0
  6
ByLayer
 62
  256
370
   -1
100
AcDbLine
 10
110
 20
22.5
 11
206
 21
22.5
  0
LINE
  5
1F9
100
AcDbEntity
  8
0
  6
ByLayer
 62
  256
370
   -1
100
AcDbLine
 10
110
 20
21
 11
110
 21
22.5
  0
LINE
  5
1FA
100
AcDbEntity
  8
0
  6
ByLayer
 62
  256
370
   -1
100
AcDbLine
 10
206
 20
21
 11
206
 21
22.5
  0
LINE
  5
1FB
100
AcDbEntity
  8
Cut
  6
ByLayer
 62
  256
370
   -1
100
AcDbLine
 10
194
 20
20.99999999999998
 11
194
 21
22.49999999999998
  0
LINE
  5
1FC
100
AcDbEntity
  8
0
  6
ByLayer
 62
  256
370
   -1
100
AcDbLine
 10
110
 20
24
 11
206
 21
24
  0
LINE
  5
1FD
100
AcDbEntity
  8
0
  6
ByLayer
 62
  256
370
   -1
100
AcDbLine
 10
110
 20
25.5
 11
206
 21
25.5
  0
LINE
  5
1FE
100
AcDbEntity
  8
0
  6
ByLayer
 62
  256
370
   -1
100
AcDbLine
 10
110
 20
24
 11
110
 21
25.5
  0
LINE
  5
1FF
100
AcDbEntity
  8
0
  6
ByLayer
 62
  256
370
   -1
100
AcDbLine
 10
206
 20
24
 11
206
 21
25.5
  0
LINE
  5
200
100
AcDbEntity
  8
Cut
  6
ByLayer
 62
  256
370
   -1
100
AcDbLine
 10
194
 20
23.99999999999998
 11
194
 21
25.49999999999998
  0
LINE
  5
201
100
AcDbEntity
  8
0
  6
ByLayer
 62
  256
370
   -1
100
AcDbLine
 10
110
 20
27
 11
206
 21
27
  0
LINE
  5
202
100
AcDbEntity
  8
0
  6
ByLayer
 62
  256
370
   -1
100
AcDbLine
 10
110
 20
28.5
 11
206
 21
28.5
  0
LINE
  5
203
100
AcDbEntity
  8
0
  6
ByLayer
 62
  256
370
   -1
100
AcDbLine
 10
110
 20
27
 11
110
 21
28.5
  0
LINE
  5
204
100
AcDbEntity
  8
0
  6
ByLayer
 62
  256
370
   -1
100
AcDbLine
 10
206
 20
27
 11
206
 21
28.5
  0
LINE
  5
205
100
AcDbEntity
  8
Cut
  6
ByLayer
 62
  256
370
   -1
100
AcDbLine
 10
194
 20
26.99999999999998
 11
194
 21
28.49999999999998
  0
DIMENSION
  5
206
100
AcDbEntity
  8
Dimension
  6
ByLayer
 62
  256
370
   -1
100
AcDbDimension
  2
*D31
 10
194
 20
30
 30
0
 11
152
 21
31.5
 31
0
 70
   32
 71
    5
  3
Standard
 53
0
210
0
220
0
230
1
100
AcDbAlignedDimension
 13
110
 23
28.5
 33
0
 14
194
 24
28.5
 34
0
100
AcDbRotatedDimension
  0
DIMENSION
  5
207
100
AcDbEntity
  8
Dimension
  6
ByLayer
 62
  256
370
   -1
100
AcDbDimension
  2
*D32
 10
206
 20
30
 30
0
 11
200
 21
31.5
 31
0
 70
   32
 71
    5
  3
Standard
 53
0
210
0
220
0
230
1
100
AcDbAlignedDimension
 13
194
 23
28.5
 33
0
 14
206
 24
28.5
 34
0
100
AcDbRotatedDimension
  0
ENDSEC
  0
SECTION
  2
OBJECTS
  0
DICTIONARY
  5
C
330
0
100
AcDbDictionary
281
    1
  3
ACAD_GROUP
350
D
  0
DICTIONARY
  5
D
330
C
100
AcDbDictionary
281
    1
  0
ENDSEC
  0
EOF
