999
dxfrw 0.6.3
  0
SECTION
  2
HEADER
  9
$ACADVER
  1
AC1021
  9
$DWGCODEPAGE
  3
ANSI_1252
  9
$INSBASE
 10
0
 20
0
 30
0
  9
$EXTMIN
 10
-7.924990695275943
 20
-5.849795296070713
 30
0
  9
$EXTMAX
 10
103.0492633811771
 20
288
 30
0
  9
$LIMMIN
 10
0
 20
0
  9
$LIMMAX
 10
420
 20
297
  9
$ORTHOMODE
 70
    0
  9
$REGENMODE
 70
    1
  9
$FILLMODE
 70
    1
  9
$QTEXTMODE
 70
    0
  9
$MIRRTEXT
 70
    0
  9
$LTSCALE
 40
1
  9
$ATTMODE
 70
    0
  9
$TEXTSIZE
 40
2.5
  9
$TRACEWID
 40
15.68
  9
$TEXTSTYLE
  7
STANDARD
  9
$CLAYER
  8
0
  9
$CELTYPE
  6
BYLAYER
  9
$CECOLOR
 62
  256
  9
$CELTSCALE
 40
1
  9
$DISPSILH
 70
    0
  9
$DIMSCALE
 40
1
  9
$DIMASZ
 40
2.5
  9
$DIMEXO
 40
0.25
  9
$DIMDLI
 40
3.75
  9
$DIMRND
 40
0
  9
$DIMDLE
 40
0
  9
$DIMEXE
 40
0.05
  9
$DIMTP
 40
0
  9
$DIMTM
 40
0
  9
$DIMTXT
 40
2.5
  9
$DIMCEN
 40
2.5
  9
$DIMTSZ
 40
0
  9
$DIMTOL
 70
    0
  9
$DIMLIM
 70
    0
  9
$DIMTIH
 70
    0
  9
$DIMTOH
 70
    0
  9
$DIMSE1
 70
    0
  9
$DIMSE2
 70
    0
  9
$DIMTAD
 70
    1
  9
$DIMZIN
 70
    1
  9
$DIMBLK
  1

  9
$DIMASO
 70
    1
  9
$DIMSHO
 70
    1
  9
$DIMPOST
  1

  9
$DIMAPOST
  1

  9
$DIMALT
 70
    0
  9
$DIMALTD
 70
    3
  9
$DIMALTF
 40
0.03937
  9
$DIMLFAC
 40
1
  9
$DIMTOFL
 70
    1
  9
$DIMTVP
 40
0
  9
$DIMTIX
 70
    0
  9
$DIMSOXD
 70
    0
  9
$DIMSAH
 70
    0
  9
$DIMBLK1
  1

  9
$DIMBLK2
  1

  9
$DIMSTYLE
  2
STANDARD
  9
$DIMCLRD
 70
    0
  9
$DIMCLRE
 70
    0
  9
$DIMCLRT
 70
    0
  9
$DIMTFAC
 40
1
  9
$DIMGAP
 40
0.25
  9
$DIMJUST
 70
    0
  9
$DIMSD1
 70
    0
  9
$DIMSD2
 70
    0
  9
$DIMTOLJ
 70
    0
  9
$DIMTZIN
 70
    8
  9
$DIMALTZ
 70
    0
  9
$DIMALTTZ
 70
    0
  9
$DIMUPT
 70
    0
  9
$DIMDEC
 70
    4
  9
$DIMTDEC
 70
    2
  9
$DIMALTU
 70
    2
  9
$DIMALTTD
 70
    3
  9
$DIMTXSTY
  7
standard
  9
$DIMAUNIT
 70
    0
  9
$DIMADEC
 70
    2
  9
$DIMALTRND
 40
0
  9
$DIMAZIN
 70
    0
  9
$DIMDSEP
 70
    0
  9
$DIMATFIT
 70
    3
  9
$DIMFRAC
 70
    0
  9
$DIMLDRBLK
  1
STANDARD
  9
$DIMLUNIT
 70
    4
  9
$DIMLWD
 70
   -2
  9
$DIMLWE
 70
   -2
  9
$DIMTMOVE
 70
    0
  9
$DIMFXL
 40
0.04
  9
$DIMFXLON
 70
    0
  9
$DIMJOGANG
 40
0.7854
  9
$DIMTFILL
 70
    0
  9
$DIMTFILLCLR
 70
    0
  9
$DIMARCSYM
 70
    0
  9
$DIMLTYPE
  6

  9
$DIMLTEX1
  6

  9
$DIMLTEX2
  6

  9
$LUNITS
 70
    2
  9
$LUPREC
 70
    4
  9
$SKETCHINC
 40
1
  9
$FILLETRAD
 40
0
  9
$AUNITS
 70
    0
  9
$AUPREC
 70
    2
  9
$MENU
  1
.
  9
$ELEVATION
 40
0
  9
$PELEVATION
 40
0
  9
$THICKNESS
 40
0
  9
$LIMCHECK
 70
    0
  9
$CHAMFERA
 40
0
  9
$CHAMFERB
 40
0
  9
$CHAMFERC
 40
0
  9
$CHAMFERD
 40
0
  9
$SKPOLY
 70
    0
  9
$USRTIMER
 70
    1
  9
$ANGBASE
 50
0
  9
$ANGDIR
 70
    0
  9
$PDMODE
 70
   34
  9
$PDSIZE
 40
0
  9
$PLINEWID
 40
0
  9
$SPLFRAME
 70
    0
  9
$SPLINETYPE
 70
    2
  9
$SPLINESEGS
 70
    8
  9
$HANDSEED
  5
20000
  9
$SURFTAB1
 70
    6
  9
$SURFTAB2
 70
    6
  9
$SURFTYPE
 70
    6
  9
$SURFU
 70
    6
  9
$SURFV
 70
    6
  9
$UCSBASE
  2

  9
$UCSNAME
  2

  9
$UCSORG
 10
0
 20
0
 30
0
  9
$UCSXDIR
 10
1
 20
0
 30
0
  9
$UCSYDIR
 10
0
 20
1
 30
0
  9
$UCSORTHOREF
  2

  9
$UCSORTHOVIEW
 70
    0
  9
$UCSORGTOP
 10
0
 20
0
 30
0
  9
$UCSORGBOTTOM
 10
0
 20
0
 30
0
  9
$UCSORGLEFT
 10
0
 20
0
 30
0
  9
$UCSORGRIGHT
 10
0
 20
0
 30
0
  9
$UCSORGFRONT
 10
0
 20
0
 30
0
  9
$UCSORGBACK
 10
0
 20
0
 30
0
  9
$PUCSBASE
  2

  9
$PUCSNAME
  2

  9
$PUCSORG
 10
0
 20
0
 30
0
  9
$PUCSXDIR
 10
1
 20
0
 30
0
  9
$PUCSYDIR
 10
0
 20
1
 30
0
  9
$PUCSORTHOREF
  2

  9
$PUCSORTHOVIEW
 70
    0
  9
$PUCSORGTOP
 10
0
 20
0
 30
0
  9
$PUCSORGBOTTOM
 10
0
 20
0
 30
0
  9
$PUCSORGLEFT
 10
0
 20
0
 30
0
  9
$PUCSORGRIGHT
 10
0
 20
0
 30
0
  9
$PUCSORGFRONT
 10
0
 20
0
 30
0
  9
$PUCSORGBACK
 10
0
 20
0
 30
0
  9
$USERI1
 70
    0
  9
$USERI2
 70
    0
  9
$USERI3
 70
    0
  9
$USERI4
 70
    0
  9
$USERI5
 70
    0
  9
$USERR1
 40
0
  9
$USERR2
 40
0
  9
$USERR3
 40
0
  9
$USERR4
 40
0
  9
$USERR5
 40
0
  9
$WORLDVIEW
 70
    1
  9
$SHADEDGE
 70
    3
  9
$SHADEDIF
 70
   70
  9
$TILEMODE
 70
    1
  9
$MAXACTVP
 70
   64
  9
$PINSBASE
 10
0
 20
0
 30
0
  9
$PLIMCHECK
 70
    0
  9
$PEXTMIN
 10
0
 20
0
 30
0
  9
$PEXTMAX
 10
0
 20
0
 30
0
  9
$GRIDMODE
 70
    1
  9
$SNAPSTYLE
 70
    0
  9
$PLIMMIN
 10
0
 20
0
  9
$PLIMMAX
 10
1.9863054e-05
 20
2.80924e-05
  9
$UNITMODE
 70
    0
  9
$VISRETAIN
 70
    1
  9
$PLINEGEN
 70
    0
  9
$PSLTSCALE
 70
    1
  9
$TREEDEPTH
 70
 3020
  9
$CMLSTYLE
  2
Standard
  9
$CMLJUST
 70
    0
  9
$CMLSCALE
 40
20
  9
$PROXYGRAPHICS
 70
    1
  9
$MEASUREMENT
 70
    1
  9
$CELWEIGHT
370
   -1
  9
$ENDCAPS
280
    0
  9
$JOINSTYLE
280
    0
  9
$LWDISPLAY
290
    0
  9
$INSUNITS
 70
    1
  9
$HYPERLINKBASE
  1

  9
$STYLESHEET
  1

  9
$XEDIT
290
    1
  9
$CEPSNTYPE
380
    0
  9
$PSTYLEMODE
290
    1
  9
$EXTNAMES
290
    1
  9
$PSVPSCALE
 40
1
  9
$OLESTARTUP
290
    0
  9
$SORTENTS
280
  127
  9
$INDEXCTL
280
    0
  9
$HIDETEXT
280
    1
  9
$XCLIPFRAME
290
    0
  9
$HALOGAP
280
    0
  9
$OBSCOLOR
 70
  257
  9
$OBSLTYPE
280
    0
  9
$INTERSECTIONDISPLAY
280
    0
  9
$INTERSECTIONCOLOR
 70
  257
  9
$DIMASSOC
280
    1
  9
$PROJECTNAME
  1

  9
$CAMERADISPLAY
290
    0
  9
$LENSLENGTH
 40
50
  9
$CAMERAHEIGHT
 40
0
  9
$STEPSPERSEC
 40
2
  9
$STEPSIZE
 40
50
  9
$3DDWFPREC
 40
2
  9
$PSOLWIDTH
 40
5
  9
$PSOLHEIGHT
 40
80
  9
$LOFTANG1
 40
1.570796326794897
  9
$LOFTANG2
 40
1.570796326794897
  9
$LOFTMAG1
 40
0
  9
$LOFTMAG2
 40
0
  9
$LOFTPARAM
 70
    7
  9
$LOFTNORMALS
280
    1
  9
$LATITUDE
 40
1
  9
$LONGITUDE
 40
1
  9
$NORTHDIRECTION
 40
0
  9
$TIMEZONE
 70
-8000
  9
$LIGHTGLYPHDISPLAY
280
    1
  9
$TILEMODELIGHTSYNCH
280
    1
  9
$SOLIDHIST
280
    1
  9
$SHOWHIST
280
    1
  9
$DWFFRAME
280
    2
  9
$DGNFRAME
280
    0
  9
$REALWORLDSCALE
290
    1
  9
$INTERFERECOLOR
 62
    1
  9
$CSHADOW
280
    0
  9
$SHADOWPLANELOCATION
 40
0
  0
ENDSEC
  0
SECTION
  2
CLASSES
  0
ENDSEC
  0
SECTION
  2
TABLES
  0
TABLE
  2
VPORT
  5
8
330
0
100
AcDbSymbolTable
 70
    1
  0
VPORT
  5
31
330
2
100
AcDbSymbolTableRecord
100
AcDbViewportTableRecord
  2
*ACTIVE
 70
    0
 10
0
 20
0
 11
1
 21
1
 12
204.036770088024
 22
174.5596746351266
 13
0
 23
0
 14
10
 24
10
 15
10
 25
10
 16
0
 26
0
 36
1
 17
0
 27
0
 37
0
 40
303.0613876251011
 41
2.376899696048632
 42
50
 43
0
 44
0
 50
0
 51
0
 71
    0
 72
  100
 73
    1
 74
    3
 75
    0
 76
    1
 77
    0
 78
    0
281
    0
 65
    1
110
0
120
0
130
0
111
1
121
0
131
0
112
0
122
1
132
0
 79
    0
146
0
348
10020
 60
    7
 61
    5
292
1
282
    1
141
0
142
0
 63
  250
421
3358443
  0
ENDTAB
  0
TABLE
  2
LTYPE
  5
5
330
0
100
AcDbSymbolTable
 70
    4
  0
LTYPE
  5
14
330
5
100
AcDbSymbolTableRecord
100
AcDbLinetypeTableRecord
  2
ByBlock
 70
    0
  3

 72
   65
 73
    0
 40
0
  0
LTYPE
  5
15
330
5
100
AcDbSymbolTableRecord
100
AcDbLinetypeTableRecord
  2
ByLayer
 70
    0
  3

 72
   65
 73
    0
 40
0
  0
LTYPE
  5
16
330
5
100
AcDbSymbolTableRecord
100
AcDbLinetypeTableRecord
  2
Continuous
 70
    0
  3
Solid line
 72
   65
 73
    0
 40
0
  0
LTYPE
  5
32
330
5
100
AcDbSymbolTableRecord
100
AcDbLinetypeTableRecord
  2
DOT
 70
    0
  3
Dot . . . . . . . . . . . . . . . . . . . . . .
 72
   65
 73
    2
 40
6.35
 49
0
 74
    0
 49
-6.35
 74
    0
  0
LTYPE
  5
33
330
5
100
AcDbSymbolTableRecord
100
AcDbLinetypeTableRecord
  2
DOTTINY
 70
    0
  3
Dot (.15x) .....................................
 72
   65
 73
    2
 40
0.9525
 49
0
 74
    0
 49
-0.9525
 74
    0
  0
LTYPE
  5
34
330
5
100
AcDbSymbolTableRecord
100
AcDbLinetypeTableRecord
  2
DOT2
 70
    0
  3
Dot (.5x) .....................................
 72
   65
 73
    2
 40
3.175
 49
0
 74
    0
 49
-3.175
 74
    0
  0
LTYPE
  5
35
330
5
100
AcDbSymbolTableRecord
100
AcDbLinetypeTableRecord
  2
DOTX2
 70
    0
  3
Dot (2x) .  .  .  .  .  .  .  .  .  .  .  .  .
 72
   65
 73
    2
 40
12.7
 49
0
 74
    0
 49
-12.7
 74
    0
  0
LTYPE
  5
36
330
5
100
AcDbSymbolTableRecord
100
AcDbLinetypeTableRecord
  2
DASHED
 70
    0
  3
Dashed _ _ _ _ _ _ _ _ _ _ _ _ _ _ _ _ _
 72
   65
 73
    2
 40
19.05
 49
12.7
 74
    0
 49
-6.35
 74
    0
  0
LTYPE
  5
37
330
5
100
AcDbSymbolTableRecord
100
AcDbLinetypeTableRecord
  2
DASHEDTINY
 70
    0
  3
Dashed (.15x) _ _ _ _ _ _ _ _ _ _ _ _ _ _ _ _ _
 72
   65
 73
    2
 40
2.8575
 49
1.905
 74
    0
 49
-0.9525
 74
    0
  0
LTYPE
  5
38
330
5
100
AcDbSymbolTableRecord
100
AcDbLinetypeTableRecord
  2
DASHED2
 70
    0
  3
Dashed (.5x) _ _ _ _ _ _ _ _ _ _ _ _ _ _ _ _ _
 72
   65
 73
    2
 40
9.524999999999999
 49
6.35
 74
    0
 49
-3.175
 74
    0
  0
LTYPE
  5
39
330
5
100
AcDbSymbolTableRecord
100
AcDbLinetypeTableRecord
  2
DASHEDX2
 70
    0
  3
Dashed (2x) ____  ____  ____  ____  ____  ___
 72
   65
 73
    2
 40
38.09999999999999
 49
25.4
 74
    0
 49
-12.7
 74
    0
  0
LTYPE
  5
3A
330
5
100
AcDbSymbolTableRecord
100
AcDbLinetypeTableRecord
  2
DASHDOT
 70
    0
  3
Dash dot __ . __ . __ . __ . __ . __ . __ . __
 72
   65
 73
    4
 40
25.4
 49
12.7
 74
    0
 49
-6.35
 74
    0
 49
0
 74
    0
 49
-6.35
 74
    0
  0
LTYPE
  5
3B
330
5
100
AcDbSymbolTableRecord
100
AcDbLinetypeTableRecord
  2
DASHDOTTINY
 70
    0
  3
Dash dot (.15x) _._._._._._._._._._._._._._._.
 72
   65
 73
    4
 40
3.81
 49
1.905
 74
    0
 49
-0.9525
 74
    0
 49
0
 74
    0
 49
-0.9525
 74
    0
  0
LTYPE
  5
3C
330
5
100
AcDbSymbolTableRecord
100
AcDbLinetypeTableRecord
  2
DASHDOT2
 70
    0
  3
Dash dot (.5x) _._._._._._._._._._._._._._._.
 72
   65
 73
    4
 40
12.7
 49
6.35
 74
    0
 49
-3.175
 74
    0
 49
0
 74
    0
 49
-3.175
 74
    0
  0
LTYPE
  5
3D
330
5
100
AcDbSymbolTableRecord
100
AcDbLinetypeTableRecord
  2
DASHDOTX2
 70
    0
  3
Dash dot (2x) ____  .  ____  .  ____  .  ___
 72
   65
 73
    4
 40
50.8
 49
25.4
 74
    0
 49
-12.7
 74
    0
 49
0
 74
    0
 49
-12.7
 74
    0
  0
LTYPE
  5
3E
330
5
100
AcDbSymbolTableRecord
100
AcDbLinetypeTableRecord
  2
DIVIDE
 70
    0
  3
Divide ____ . . ____ . . ____ . . ____ . . ____
 72
   65
 73
    6
 40
31.75
 49
12.7
 74
    0
 49
-6.35
 74
    0
 49
0
 74
    0
 49
-6.35
 74
    0
 49
0
 74
    0
 49
-6.35
 74
    0
  0
LTYPE
  5
3F
330
5
100
AcDbSymbolTableRecord
100
AcDbLinetypeTableRecord
  2
DIVIDETINY
 70
    0
  3
Divide (.15x) __..__..__..__..__..__..__..__.._
 72
   65
 73
    6
 40
4.7625
 49
1.905
 74
    0
 49
-0.9525
 74
    0
 49
0
 74
    0
 49
-0.9525
 74
    0
 49
0
 74
    0
 49
-0.9525
 74
    0
  0
LTYPE
  5
40
330
5
100
AcDbSymbolTableRecord
100
AcDbLinetypeTableRecord
  2
DIVIDE2
 70
    0
  3
Divide (.5x) __..__..__..__..__..__..__..__.._
 72
   65
 73
    6
 40
15.875
 49
6.35
 74
    0
 49
-3.175
 74
    0
 49
0
 74
    0
 49
-3.175
 74
    0
 49
0
 74
    0
 49
-3.175
 74
    0
  0
LTYPE
  5
41
330
5
100
AcDbSymbolTableRecord
100
AcDbLinetypeTableRecord
  2
DIVIDEX2
 70
    0
  3
Divide (2x) ________  .  .  ________  .  .  _
 72
   65
 73
    6
 40
63.5
 49
25.4
 74
    0
 49
-12.7
 74
    0
 49
0
 74
    0
 49
-12.7
 74
    0
 49
0
 74
    0
 49
-12.7
 74
    0
  0
LTYPE
  5
42
330
5
100
AcDbSymbolTableRecord
100
AcDbLinetypeTableRecord
  2
BORDER
 70
    0
  3
Border __ __ . __ __ . __ __ . __ __ . __ __ .
 72
   65
 73
    6
 40
44.45
 49
12.7
 74
    0
 49
-6.35
 74
    0
 49
12.7
 74
    0
 49
-6.35
 74
    0
 49
0
 74
    0
 49
-6.35
 74
    0
  0
LTYPE
  5
43
330
5
100
AcDbSymbolTableRecord
100
AcDbLinetypeTableRecord
  2
BORDERTINY
 70
    0
  3
Border (.15x) __.__.__.__.__.__.__.__.__.__.__.
 72
   65
 73
    6
 40
6.6675
 49
1.905
 74
    0
 49
-0.9525
 74
    0
 49
1.905
 74
    0
 49
-0.9525
 74
    0
 49
0
 74
    0
 49
-0.9525
 74
    0
  0
LTYPE
  5
44
330
5
100
AcDbSymbolTableRecord
100
AcDbLinetypeTableRecord
  2
BORDER2
 70
    0
  3
Border (.5x) __.__.__.__.__.__.__.__.__.__.__.
 72
   65
 73
    6
 40
22.225
 49
6.35
 74
    0
 49
-3.175
 74
    0
 49
6.35
 74
    0
 49
-3.175
 74
    0
 49
0
 74
    0
 49
-3.175
 74
    0
  0
LTYPE
  5
45
330
5
100
AcDbSymbolTableRecord
100
AcDbLinetypeTableRecord
  2
BORDERX2
 70
    0
  3
Border (2x) ____  ____  .  ____  ____  .  ___
 72
   65
 73
    6
 40
88.89999999999999
 49
25.4
 74
    0
 49
-12.7
 74
    0
 49
25.4
 74
    0
 49
-12.7
 74
    0
 49
0
 74
    0
 49
-12.7
 74
    0
  0
LTYPE
  5
46
330
5
100
AcDbSymbolTableRecord
100
AcDbLinetypeTableRecord
  2
CENTER
 70
    0
  3
Center ____ _ ____ _ ____ _ ____ _ ____ _ ____
 72
   65
 73
    4
 40
50.8
 49
31.75
 74
    0
 49
-6.35
 74
    0
 49
6.35
 74
    0
 49
-6.35
 74
    0
  0
LTYPE
  5
47
330
5
100
AcDbSymbolTableRecord
100
AcDbLinetypeTableRecord
  2
CENTERTINY
 70
    0
  3
Center (.15x) ___ _ ___ _ ___ _ ___ _ ___ _ ___
 72
   65
 73
    4
 40
7.619999999999999
 49
4.7625
 74
    0
 49
-0.9525
 74
    0
 49
0.9525
 74
    0
 49
-0.9525
 74
    0
  0
LTYPE
  5
48
330
5
100
AcDbSymbolTableRecord
100
AcDbLinetypeTableRecord
  2
CENTER2
 70
    0
  3
Center (.5x) ___ _ ___ _ ___ _ ___ _ ___ _ ___
 72
   65
 73
    4
 40
28.575
 49
19.05
 74
    0
 49
-3.175
 74
    0
 49
3.175
 74
    0
 49
-3.175
 74
    0
  0
LTYPE
  5
49
330
5
100
AcDbSymbolTableRecord
100
AcDbLinetypeTableRecord
  2
CENTERX2
 70
    0
  3
Center (2x) ________  __  ________  __  _____
 72
   65
 73
    4
 40
101.6
 49
63.5
 74
    0
 49
-12.7
 74
    0
 49
12.7
 74
    0
 49
-12.7
 74
    0
  0
ENDTAB
  0
TABLE
  2
LAYER
  5
2
330
0
100
AcDbSymbolTable
 70
    1
  0
LAYER
  5
10
330
2
100
AcDbSymbolTableRecord
100
AcDbLayerTableRecord
  2
0
 70
    0
 62
    7
  6
CONTINUOUS
370
    0
390
F
1001
LibreCad
1070
    1
  0
LAYER
  5
4A
330
2
100
AcDbSymbolTableRecord
100
AcDbLayerTableRecord
  2
cuts
 70
    0
 62
    4
  6
CONTINUOUS
370
    0
390
F
  0
LAYER
  5
4B
330
2
100
AcDbSymbolTableRecord
100
AcDbLayerTableRecord
  2
dimensions
 70
    0
 62
    3
  6
CONTINUOUS
370
    0
390
F
  0
ENDTAB
  0
TABLE
  2
STYLE
  5
3
330
0
100
AcDbSymbolTable
 70
    3
  0
STYLE
  5
4C
330
2
100
AcDbSymbolTableRecord
100
AcDbTextStyleTableRecord
  2
Standard
 70
    0
 40
0
 41
1
 50
0
 71
    0
 42
1
  3
txt
  4

  0
ENDTAB
  0
TABLE
  2
VIEW
  5
6
330
0
100
AcDbSymbolTable
 70
    0
  0
ENDTAB
  0
TABLE
  2
UCS
  5
7
330
0
100
AcDbSymbolTable
 70
    0
  0
ENDTAB
  0
TABLE
  2
APPID
  5
9
330
0
100
AcDbSymbolTable
 70
    1
  0
APPID
  5
12
330
9
100
AcDbSymbolTableRecord
100
AcDbRegAppTableRecord
  2
ACAD
 70
    0
  0
APPID
  5
4D
330
9
100
AcDbSymbolTableRecord
100
AcDbRegAppTableRecord
  2
LibreCad
 70
    0
  0
ENDTAB
  0
TABLE
  2
DIMSTYLE
  5
A
330
0
100
AcDbSymbolTable
 70
    1
100
AcDbDimStyleTable
 71
    1
  0
DIMSTYLE
105
4E
330
A
100
AcDbSymbolTableRecord
100
AcDbDimStyleTableRecord
  2
Standard
 70
    0
 40
1
 41
2.5
 42
0.25
 43
0.38
 44
0.05
 45
0
 46
0
 47
0
 48
0
 49
0.04
140
2.5
141
0.09
142
0
143
25.4
144
1
145
0
146
1
147
0.25
148
0
 71
    0
 72
    0
 73
    0
 74
    1
 75
    0
 76
    0
 77
    0
 78
    1
 79
    0
170
    0
171
    2
172
    0
173
    0
174
    0
175
    0
176
    0
177
    0
178
    0
179
    2
271
    4
272
    4
273
    2
274
    2
275
    0
276
    0
277
    4
278
    0
279
    0
280
    0
281
    0
282
    0
283
    1
284
    0
285
    0
286
    0
288
    0
289
    3
340
standard
341

371
   -2
372
   -2
  0
ENDTAB
  0
TABLE
  2
BLOCK_RECORD
  5
1
330
0
100
AcDbSymbolTable
 70
    2
  0
BLOCK_RECORD
  5
1F
330
1
100
AcDbSymbolTableRecord
100
AcDbBlockTableRecord
  2
*Model_Space
 70
    0
280
    1
281
    0
  0
BLOCK_RECORD
  5
1E
330
1
100
AcDbSymbolTableRecord
100
AcDbBlockTableRecord
  2
*Paper_Space
 70
    0
280
    1
281
    0
  0
BLOCK_RECORD
  5
4F
330
1
100
AcDbSymbolTableRecord
100
AcDbBlockTableRecord
  2
*D4
 70
    0
280
    1
281
    0
  0
BLOCK_RECORD
  5
52
330
1
100
AcDbSymbolTableRecord
100
AcDbBlockTableRecord
  2
*D16
 70
    0
280
    1
281
    0
  0
BLOCK_RECORD
  5
55
330
1
100
AcDbSymbolTableRecord
100
AcDbBlockTableRecord
  2
*D1
 70
    0
280
    1
281
    0
  0
BLOCK_RECORD
  5
58
330
1
100
AcDbSymbolTableRecord
100
AcDbBlockTableRecord
  2
*D7
 70
    0
280
    1
281
    0
  0
BLOCK_RECORD
  5
5B
330
1
100
AcDbSymbolTableRecord
100
AcDbBlockTableRecord
  2
*D15
 70
    0
280
    1
281
    0
  0
BLOCK_RECORD
  5
5E
330
1
100
AcDbSymbolTableRecord
100
AcDbBlockTableRecord
  2
*D5
 70
    0
280
    1
281
    0
  0
BLOCK_RECORD
  5
61
330
1
100
AcDbSymbolTableRecord
100
AcDbBlockTableRecord
  2
*D10
 70
    0
280
    1
281
    0
  0
BLOCK_RECORD
  5
64
330
1
100
AcDbSymbolTableRecord
100
AcDbBlockTableRecord
  2
*D2
 70
    0
280
    1
281
    0
  0
BLOCK_RECORD
  5
67
330
1
100
AcDbSymbolTableRecord
100
AcDbBlockTableRecord
  2
*D9
 70
    0
280
    1
281
    0
  0
BLOCK_RECORD
  5
6A
330
1
100
AcDbSymbolTableRecord
100
AcDbBlockTableRecord
  2
*D13
 70
    0
280
    1
281
    0
  0
BLOCK_RECORD
  5
6D
330
1
100
AcDbSymbolTableRecord
100
AcDbBlockTableRecord
  2
*D6
 70
    0
280
    1
281
    0
  0
BLOCK_RECORD
  5
70
330
1
100
AcDbSymbolTableRecord
100
AcDbBlockTableRecord
  2
*D12
 70
    0
280
    1
281
    0
  0
BLOCK_RECORD
  5
73
330
1
100
AcDbSymbolTableRecord
100
AcDbBlockTableRecord
  2
*D3
 70
    0
280
    1
281
    0
  0
BLOCK_RECORD
  5
76
330
1
100
AcDbSymbolTableRecord
100
AcDbBlockTableRecord
  2
*D14
 70
    0
280
    1
281
    0
  0
BLOCK_RECORD
  5
79
330
1
100
AcDbSymbolTableRecord
100
AcDbBlockTableRecord
  2
*D8
 70
    0
280
    1
281
    0
  0
BLOCK_RECORD
  5
7C
330
1
100
AcDbSymbolTableRecord
100
AcDbBlockTableRecord
  2
*D11
 70
    0
280
    1
281
    0
  0
ENDTAB
  0
ENDSEC
  0
SECTION
  2
BLOCKS
  0
BLOCK
  5
20
330
1F
100
AcDbEntity
  8
0
100
AcDbBlockBegin
  2
*Model_Space
 70
    0
 10
0
 20
0
 30
0
  3
*Model_Space
  1

  0
ENDBLK
  5
21
330
1F
100
AcDbEntity
  8
0
100
AcDbBlockEnd
  0
BLOCK
  5
1C
330
1B
100
AcDbEntity
  8
0
100
AcDbBlockBegin
  2
*Paper_Space
 70
    0
 10
0
 20
0
 30
0
  3
*Paper_Space
  1

  0
ENDBLK
  5
1D
330
1F
100
AcDbEntity
  8
0
100
AcDbBlockEnd
  0
BLOCK
  5
50
330
4F
100
AcDbEntity
  8
0
100
AcDbBlockBegin
  2
*D4
 70
    1
 10
0
 20
0
  3
*D4
  1

  0
LINE
  5
7F
100
AcDbEntity
  8
dimensions
  6
ByBlock
 62
    0
370
   -2
100
AcDbLine
 10
-3.1048632218845
 20
0
 11
-3.104863221884497
 21
48
  0
SOLID
  5
80
100
AcDbEntity
  8
dimensions
  6
ByBlock
 62
    0
370
   -2
100
AcDbTrace
 10
-3.1048632218845
 20
0
 30
0
 11
-3.52114787965734
 21
2.5
 31
0
 12
-2.688578564111659
 22
2.5
 32
0
 13
-2.688578564111659
 23
2.5
 33
0
  0
SOLID
  5
81
100
AcDbEntity
  8
dimensions
  6
ByBlock
 62
    0
370
   -2
100
AcDbTrace
 10
-3.104863221884497
 20
48
 30
0
 11
-2.688578564111657
 21
45.5
 31
0
 12
-3.521147879657338
 22
45.5
 32
0
 13
-3.521147879657338
 23
45.5
 33
0
  0
MTEXT
  5
82
100
AcDbEntity
  8
dimensions
  6
CONTINUOUS
 62
    0
370
   -2
100
AcDbMText
 10
-4.604863221884498
 20
24
 30
0
 40
2.5
 41
8.194444444444445
 71
    5
 72
    1
  1
4'-0"
  7
standard
210
0
220
0
230
1
 50
90
 73
    2
 44
1
  0
LINE
  5
83
100
AcDbEntity
  8
dimensions
  6
ByBlock
 62
    0
370
   -2
100
AcDbLine
 10
-0.25
 20
3.061616997868383e-17
 11
-3.1548632218845
 21
6.123233995736766e-18
  0
LINE
  5
84
100
AcDbEntity
  8
dimensions
  6
ByBlock
 62
    0
370
   -2
100
AcDbLine
 10
-0.2499999999999971
 20
48
 11
-3.154863221884497
 21
48
  0
ENDBLK
  5
51
330
4F
100
AcDbEntity
  8
0
100
AcDbBlockEnd
  0
BLOCK
  5
53
330
52
100
AcDbEntity
  8
0
100
AcDbBlockBegin
  2
*D16
 70
    1
 10
0
 20
0
  3
*D16
  1

  0
LINE
  5
85
100
AcDbEntity
  8
dimensions
  6
ByBlock
 62
    0
370
   -2
100
AcDbLine
 10
101.3584384454046
 20
213
 11
101.3584384454046
 21
180
  0
SOLID
  5
86
100
AcDbEntity
  8
dimensions
  6
ByBlock
 62
    0
370
   -2
100
AcDbTrace
 10
101.3584384454046
 20
213
 30
0
 11
101.7747231031775
 21
210.5
 31
0
 12
100.9421537876318
 22
210.5
 32
0
 13
100.9421537876318
 23
210.5
 33
0
  0
SOLID
  5
87
100
AcDbEntity
  8
dimensions
  6
ByBlock
 62
    0
370
   -2
100
AcDbTrace
 10
101.3584384454046
 20
180
 30
0
 11
100.9421537876318
 21
182.5
 31
0
 12
101.7747231031775
 22
182.5
 32
0
 13
101.7747231031775
 23
182.5
 33
0
  0
MTEXT
  5
88
100
AcDbEntity
  8
dimensions
  6
CONTINUOUS
 62
    0
370
   -2
100
AcDbMText
 10
99.85843844540464
 20
196.5
 30
0
 40
2.5
 41
7.916666666666666
 71
    5
 72
    1
  1
2'-9"
  7
standard
210
0
220
0
230
1
 50
90
 73
    2
 44
1
  0
LINE
  5
89
100
AcDbEntity
  8
dimensions
  6
ByBlock
 62
    0
370
   -2
100
AcDbLine
 10
96.25
 20
213
 11
101.4084384454046
 21
213
  0
LINE
  5
8A
100
AcDbEntity
  8
dimensions
  6
ByBlock
 62
    0
370
   -2
100
AcDbLine
 10
96.25
 20
180
 11
101.4084384454046
 21
180
  0
ENDBLK
  5
54
330
52
100
AcDbEntity
  8
0
100
AcDbBlockEnd
  0
BLOCK
  5
56
330
55
100
AcDbEntity
  8
0
100
AcDbBlockBegin
  2
*D1
 70
    1
 10
0
 20
0
  3
*D1
  1

  0
LINE
  5
8B
100
AcDbEntity
  8
dimensions
  6
ByBlock
 62
    0
370
   -2
100
AcDbLine
 10
102.6329787234043
 20
33
 11
102.6329787234043
 21
0
  0
SOLID
  5
8C
100
AcDbEntity
  8
dimensions
  6
ByBlock
 62
    0
370
   -2
100
AcDbTrace
 10
102.6329787234043
 20
33
 30
0
 11
103.0492633811771
 21
30.5
 31
0
 12
102.2166940656314
 22
30.5
 32
0
 13
102.2166940656314
 23
30.5
 33
0
  0
SOLID
  5
8D
100
AcDbEntity
  8
dimensions
  6
ByBlock
 62
    0
370
   -2
100
AcDbTrace
 10
102.6329787234043
 20
0
 30
0
 11
102.2166940656314
 21
2.5
 31
0
 12
103.0492633811771
 22
2.5
 32
0
 13
103.0492633811771
 23
2.5
 33
0
  0
MTEXT
  5
8E
100
AcDbEntity
  8
dimensions
  6
CONTINUOUS
 62
    0
370
   -2
100
AcDbMText
 10
101.1329787234043
 20
16.5
 30
0
 40
2.5
 41
7.916666666666666
 71
    5
 72
    1
  1
2'-9"
  7
standard
210
0
220
0
230
1
 50
90
 73
    2
 44
1
  0
LINE
  5
8F
100
AcDbEntity
  8
dimensions
  6
ByBlock
 62
    0
370
   -2
100
AcDbLine
 10
96.25
 20
33
 11
102.6829787234043
 21
33
  0
LINE
  5
90
100
AcDbEntity
  8
dimensions
  6
ByBlock
 62
    0
370
   -2
100
AcDbLine
 10
96.25
 20
0
 11
102.6829787234043
 21
0
  0
ENDBLK
  5
57
330
55
100
AcDbEntity
  8
0
100
AcDbBlockEnd
  0
BLOCK
  5
59
330
58
100
AcDbEntity
  8
0
100
AcDbBlockBegin
  2
*D7
 70
    1
 10
0
 20
0
  3
*D7
  1

  0
LINE
  5
91
100
AcDbEntity
  8
dimensions
  6
ByBlock
 62
    0
370
   -2
100
AcDbLine
 10
96
 20
52.99904263782602
 11
78.75
 21
52.99904263782602
  0
SOLID
  5
92
100
AcDbEntity
  8
dimensions
  6
ByBlock
 62
    0
370
   -2
100
AcDbTrace
 10
96
 20
52.99904263782602
 30
0
 11
93.5
 21
52.58275798005317
 31
0
 12
93.5
 22
53.41532729559886
 32
0
 13
93.5
 23
53.41532729559886
 33
0
  0
SOLID
  5
93
100
AcDbEntity
  8
dimensions
  6
ByBlock
 62
    0
370
   -2
100
AcDbTrace
 10
78.75
 20
52.99904263782602
 30
0
 11
81.25
 21
53.41532729559886
 31
0
 12
81.25
 22
52.58275798005317
 32
0
 13
81.25
 23
52.58275798005317
 33
0
  0
MTEXT
  5
94
100
AcDbEntity
  8
dimensions
  6
CONTINUOUS
 62
    0
370
   -2
100
AcDbMText
 10
87.375
 20
54.49904263782602
 30
0
 40
2.5
 41
14.79166666666682
 71
    5
 72
    1
  1
1'-5 1/4"
  7
standard
210
0
220
0
230
1
 50
360
 73
    2
 44
1
  0
LINE
  5
95
100
AcDbEntity
  8
dimensions
  6
ByBlock
 62
    0
370
   -2
100
AcDbLine
 10
96
 20
59.75
 11
96
 21
52.94904263782602
  0
LINE
  5
96
100
AcDbEntity
  8
dimensions
  6
ByBlock
 62
    0
370
   -2
100
AcDbLine
 10
78.75
 20
59.75
 11
78.75
 21
52.94904263782602
  0
ENDBLK
  5
5A
330
58
100
AcDbEntity
  8
0
100
AcDbBlockEnd
  0
BLOCK
  5
5C
330
5B
100
AcDbEntity
  8
0
100
AcDbBlockBegin
  2
*D15
 70
    1
 10
0
 20
0
  3
*D15
  1

  0
LINE
  5
97
100
AcDbEntity
  8
dimensions
  6
ByBlock
 62
    0
370
   -2
100
AcDbLine
 10
66
 20
174.7005479543154
 11
96
 21
174.7005479543154
  0
SOLID
  5
98
100
AcDbEntity
  8
dimensions
  6
ByBlock
 62
    0
370
   -2
100
AcDbTrace
 10
66
 20
174.7005479543154
 30
0
 11
68.5
 21
175.1168326120882
 31
0
 12
68.5
 22
174.2842632965425
 32
0
 13
68.5
 23
174.2842632965425
 33
0
  0
SOLID
  5
99
100
AcDbEntity
  8
dimensions
  6
ByBlock
 62
    0
370
   -2
100
AcDbTrace
 10
96
 20
174.7005479543154
 30
0
 11
93.5
 21
174.2842632965425
 31
0
 12
93.5
 22
175.1168326120882
 32
0
 13
93.5
 23
175.1168326120882
 33
0
  0
MTEXT
  5
9A
100
AcDbEntity
  8
dimensions
  6
CONTINUOUS
 62
    0
370
   -2
100
AcDbMText
 10
81
 20
176.2005479543154
 30
0
 40
2.5
 41
7.916666666666822
 71
    5
 72
    1
  1
2'-6"
  7
standard
210
0
220
0
230
1
 50
0
 73
    2
 44
1
  0
LINE
  5
9B
100
AcDbEntity
  8
dimensions
  6
ByBlock
 62
    0
370
   -2
100
AcDbLine
 10
66
 20
179.75
 11
66
 21
174.6505479543154
  0
LINE
  5
9C
100
AcDbEntity
  8
dimensions
  6
ByBlock
 62
    0
370
   -2
100
AcDbLine
 10
96
 20
179.75
 11
96
 21
174.6505479543154
  0
ENDBLK
  5
5D
330
5B
100
AcDbEntity
  8
0
100
AcDbBlockEnd
  0
BLOCK
  5
5F
330
5E
100
AcDbEntity
  8
0
100
AcDbBlockBegin
  2
*D5
 70
    1
 10
0
 20
0
  3
*D5
  1

  0
LINE
  5
9D
100
AcDbEntity
  8
dimensions
  6
ByBlock
 62
    0
370
   -2
100
AcDbLine
 10
-5.174990695275941
 20
108
 11
-5.174990695275944
 21
60
  0
SOLID
  5
9E
100
AcDbEntity
  8
dimensions
  6
ByBlock
 62
    0
370
   -2
100
AcDbTrace
 10
-5.174990695275941
 20
108
 30
0
 11
-4.7587060375031
 21
105.5
 31
0
 12
-5.591275353048782
 22
105.5
 32
0
 13
-5.591275353048782
 23
105.5
 33
0
  0
SOLID
  5
9F
100
AcDbEntity
  8
dimensions
  6
ByBlock
 62
    0
370
   -2
100
AcDbTrace
 10
-5.174990695275944
 20
60
 30
0
 11
-5.591275353048784
 21
62.5
 31
0
 12
-4.758706037503103
 22
62.5
 32
0
 13
-4.758706037503103
 23
62.5
 33
0
  0
MTEXT
  5
A0
100
AcDbEntity
  8
dimensions
  6
CONTINUOUS
 62
    0
370
   -2
100
AcDbMText
 10
-6.674990695275943
 20
84
 30
0
 40
2.5
 41
8.194444444444445
 71
    5
 72
    1
  1
4'-0"
  7
standard
210
0
220
0
230
1
 50
90
 73
    2
 44
1
  0
LINE
  5
A1
100
AcDbEntity
  8
dimensions
  6
ByBlock
 62
    0
370
   -2
100
AcDbLine
 10
-0.2499999999999934
 20
108
 11
-5.224990695275941
 21
108
  0
LINE
  5
A2
100
AcDbEntity
  8
dimensions
  6
ByBlock
 62
    0
370
   -2
100
AcDbLine
 10
-0.2499999999999963
 20
60
 11
-5.224990695275944
 21
60
  0
ENDBLK
  5
60
330
5E
100
AcDbEntity
  8
0
100
AcDbBlockEnd
  0
BLOCK
  5
62
330
61
100
AcDbEntity
  8
0
100
AcDbBlockBegin
  2
*D10
 70
    1
 10
0
 20
0
  3
*D10
  1

  0
LINE
  5
A3
100
AcDbEntity
  8
dimensions
  6
ByBlock
 62
    0
370
   -2
100
AcDbLine
 10
-3.212063190171273
 20
153
 11
-3.212063190171275
 21
120
  0
SOLID
  5
A4
100
AcDbEntity
  8
dimensions
  6
ByBlock
 62
    0
370
   -2
100
AcDbTrace
 10
-3.212063190171273
 20
153
 30
0
 11
-2.795778532398433
 21
150.5
 31
0
 12
-3.628347847944114
 22
150.5
 32
0
 13
-3.628347847944114
 23
150.5
 33
0
  0
SOLID
  5
A5
100
AcDbEntity
  8
dimensions
  6
ByBlock
 62
    0
370
   -2
100
AcDbTrace
 10
-3.212063190171275
 20
120
 30
0
 11
-3.628347847944115
 21
122.5
 31
0
 12
-2.795778532398435
 22
122.5
 32
0
 13
-2.795778532398435
 23
122.5
 33
0
  0
MTEXT
  5
A6
100
AcDbEntity
  8
dimensions
  6
CONTINUOUS
 62
    0
370
   -2
100
AcDbMText
 10
-4.712063190171274
 20
136.5
 30
0
 40
2.5
 41
7.916666666666666
 71
    5
 72
    1
  1
2'-9"
  7
standard
210
0
220
0
230
1
 50
90
 73
    2
 44
1
  0
LINE
  5
A7
100
AcDbEntity
  8
dimensions
  6
ByBlock
 62
    0
370
   -2
100
AcDbLine
 10
-0.2499999999999906
 20
153
 11
-3.262063190171273
 21
153
  0
LINE
  5
A8
100
AcDbEntity
  8
dimensions
  6
ByBlock
 62
    0
370
   -2
100
AcDbLine
 10
-0.2499999999999926
 20
120
 11
-3.262063190171275
 21
120
  0
ENDBLK
  5
63
330
61
100
AcDbEntity
  8
0
100
AcDbBlockEnd
  0
BLOCK
  5
65
330
64
100
AcDbEntity
  8
0
100
AcDbBlockBegin
  2
*D2
 70
    1
 10
0
 20
0
  3
*D2
  1

  0
LINE
  5
A9
100
AcDbEntity
  8
dimensions
  6
ByBlock
 62
    0
370
   -2
100
AcDbLine
 10
48.75
 20
-5.433510638297872
 11
96
 21
-5.433510638297872
  0
SOLID
  5
AA
100
AcDbEntity
  8
dimensions
  6
ByBlock
 62
    0
370
   -2
100
AcDbTrace
 10
48.75
 20
-5.433510638297872
 30
0
 11
51.25
 21
-5.017225980525033
 31
0
 12
51.25
 22
-5.849795296070713
 32
0
 13
51.25
 23
-5.849795296070713
 33
0
  0
SOLID
  5
AB
100
AcDbEntity
  8
dimensions
  6
ByBlock
 62
    0
370
   -2
100
AcDbTrace
 10
96
 20
-5.433510638297872
 30
0
 11
93.5
 21
-5.849795296070713
 31
0
 12
93.5
 22
-5.017225980525032
 32
0
 13
93.5
 23
-5.017225980525032
 33
0
  0
MTEXT
  5
AC
100
AcDbEntity
  8
dimensions
  6
CONTINUOUS
 62
    0
370
   -2
100
AcDbMText
 10
72.375
 20
-3.933510638297872
 30
0
 40
2.5
 41
16.18055555555571
 71
    5
 72
    1
  1
3'-11 1/4"
  7
standard
210
0
220
0
230
1
 50
0
 73
    2
 44
1
  0
LINE
  5
AD
100
AcDbEntity
  8
dimensions
  6
ByBlock
 62
    0
370
   -2
100
AcDbLine
 10
48.75
 20
-0.25
 11
48.75
 21
-5.483510638297872
  0
LINE
  5
AE
100
AcDbEntity
  8
dimensions
  6
ByBlock
 62
    0
370
   -2
100
AcDbLine
 10
96
 20
-0.25
 11
96
 21
-5.483510638297872
  0
ENDBLK
  5
66
330
64
100
AcDbEntity
  8
0
100
AcDbBlockEnd
  0
BLOCK
  5
68
330
67
100
AcDbEntity
  8
0
100
AcDbBlockBegin
  2
*D9
 70
    1
 10
0
 20
0
  3
*D9
  1

  0
LINE
  5
AF
100
AcDbEntity
  8
dimensions
  6
ByBlock
 62
    0
370
   -2
100
AcDbLine
 10
1.4210854715202e-14
 20
114.7420350711183
 11
65.25000000000001
 21
114.7420350711183
  0
SOLID
  5
B0
100
AcDbEntity
  8
dimensions
  6
ByBlock
 62
    0
370
   -2
100
AcDbTrace
 10
1.4210854715202e-14
 20
114.7420350711183
 30
0
 11
2.500000000000014
 21
115.1583197288911
 31
0
 12
2.500000000000014
 22
114.3257504133454
 32
0
 13
2.500000000000014
 23
114.3257504133454
 33
0
  0
SOLID
  5
B1
100
AcDbEntity
  8
dimensions
  6
ByBlock
 62
    0
370
   -2
100
AcDbTrace
 10
65.25000000000001
 20
114.7420350711183
 30
0
 11
62.75000000000001
 21
114.3257504133454
 31
0
 12
62.75000000000001
 22
115.1583197288911
 32
0
 13
62.75000000000001
 23
115.1583197288911
 33
0
  0
MTEXT
  5
B2
100
AcDbEntity
  8
dimensions
  6
CONTINUOUS
 62
    0
370
   -2
100
AcDbMText
 10
32.62500000000001
 20
116.2420350711183
 30
0
 40
2.5
 41
15.34722222222253
 71
    5
 72
    1
  1
5'-5 1/4"
  7
standard
210
0
220
0
230
1
 50
0
 73
    2
 44
1
  0
LINE
  5
B3
100
AcDbEntity
  8
dimensions
  6
ByBlock
 62
    0
370
   -2
100
AcDbLine
 10
7.746045749766155e-15
 20
119.75
 11
1.429048770617841e-14
 21
114.6920350711183
  0
LINE
  5
B4
100
AcDbEntity
  8
dimensions
  6
ByBlock
 62
    0
370
   -2
100
AcDbLine
 10
65.25000000000001
 20
119.75
 11
65.25000000000001
 21
114.6920350711183
  0
ENDBLK
  5
69
330
67
100
AcDbEntity
  8
0
100
AcDbBlockEnd
  0
BLOCK
  5
6B
330
6A
100
AcDbEntity
  8
0
100
AcDbBlockBegin
  2
*D13
 70
    1
 10
0
 20
0
  3
*D13
  1

  0
LINE
  5
B5
100
AcDbEntity
  8
dimensions
  6
ByBlock
 62
    0
370
   -2
100
AcDbLine
 10
1.4210854715202e-14
 20
234.1237169724839
 11
33.00000000000001
 21
234.1237169724839
  0
SOLID
  5
B6
100
AcDbEntity
  8
dimensions
  6
ByBlock
 62
    0
370
   -2
100
AcDbTrace
 10
1.4210854715202e-14
 20
234.1237169724839
 30
0
 11
2.500000000000014
 21
234.5400016302568
 31
0
 12
2.500000000000014
 22
233.7074323147111
 32
0
 13
2.500000000000014
 23
233.7074323147111
 33
0
  0
SOLID
  5
B7
100
AcDbEntity
  8
dimensions
  6
ByBlock
 62
    0
370
   -2
100
AcDbTrace
 10
33.00000000000001
 20
234.1237169724839
 30
0
 11
30.50000000000001
 21
233.7074323147111
 31
0
 12
30.50000000000001
 22
234.5400016302568
 32
0
 13
30.50000000000001
 23
234.5400016302568
 33
0
  0
MTEXT
  5
B8
100
AcDbEntity
  8
dimensions
  6
CONTINUOUS
 62
    0
370
   -2
100
AcDbMText
 10
16.50000000000001
 20
235.6237169724839
 30
0
 40
2.5
 41
7.916666666666666
 71
    5
 72
    1
  1
2'-9"
  7
standard
210
0
220
0
230
1
 50
0
 73
    2
 44
1
  0
LINE
  5
B9
100
AcDbEntity
  8
dimensions
  6
ByBlock
 62
    0
370
   -2
100
AcDbLine
 10
1.464983733480021e-14
 20
239.75
 11
1.42016698642084e-14
 21
234.0737169724839
  0
LINE
  5
BA
100
AcDbEntity
  8
dimensions
  6
ByBlock
 62
    0
370
   -2
100
AcDbLine
 10
33.00000000000001
 20
239.75
 11
33.00000000000001
 21
234.0737169724839
  0
ENDBLK
  5
6C
330
6A
100
AcDbEntity
  8
0
100
AcDbBlockEnd
  0
BLOCK
  5
6E
330
6D
100
AcDbEntity
  8
0
100
AcDbBlockBegin
  2
*D6
 70
    1
 10
0
 20
0
  3
*D6
  1

  0
LINE
  5
BB
100
AcDbEntity
  8
dimensions
  6
ByBlock
 62
    0
370
   -2
100
AcDbLine
 10
7.105427357601002e-15
 20
54.78352218792117
 11
48.00000000000001
 21
54.78352218792117
  0
SOLID
  5
BC
100
AcDbEntity
  8
dimensions
  6
ByBlock
 62
    0
370
   -2
100
AcDbTrace
 10
7.105427357601002e-15
 20
54.78352218792117
 30
0
 11
2.500000000000007
 21
55.19980684569401
 31
0
 12
2.500000000000007
 22
54.36723753014833
 32
0
 13
2.500000000000007
 23
54.36723753014833
 33
0
  0
SOLID
  5
BD
100
AcDbEntity
  8
dimensions
  6
ByBlock
 62
    0
370
   -2
100
AcDbTrace
 10
48.00000000000001
 20
54.78352218792117
 30
0
 11
45.50000000000001
 21
54.36723753014833
 31
0
 12
45.50000000000001
 22
55.19980684569401
 32
0
 13
45.50000000000001
 23
55.19980684569401
 33
0
  0
MTEXT
  5
BE
100
AcDbEntity
  8
dimensions
  6
CONTINUOUS
 62
    0
370
   -2
100
AcDbMText
 10
24.00000000000001
 20
56.28352218792117
 30
0
 40
2.5
 41
8.194444444444445
 71
    5
 72
    1
  1
4'-0"
  7
standard
210
0
220
0
230
1
 50
0
 73
    2
 44
1
  0
LINE
  5
BF
100
AcDbEntity
  8
dimensions
  6
ByBlock
 62
    0
370
   -2
100
AcDbLine
 10
3.850060747399065e-15
 20
59.75
 11
7.140651427592402e-15
 21
54.73352218792117
  0
LINE
  5
C0
100
AcDbEntity
  8
dimensions
  6
ByBlock
 62
    0
370
   -2
100
AcDbLine
 10
48.00000000000001
 20
59.74999999999999
 11
48.00000000000001
 21
54.73352218792117
  0
ENDBLK
  5
6F
330
6D
100
AcDbEntity
  8
0
100
AcDbBlockEnd
  0
BLOCK
  5
71
330
70
100
AcDbEntity
  8
0
100
AcDbBlockBegin
  2
*D12
 70
    1
 10
0
 20
0
  3
*D12
  1

  0
LINE
  5
C1
100
AcDbEntity
  8
dimensions
  6
ByBlock
 62
    0
370
   -2
100
AcDbLine
 10
-3.21206319017127
 20
213
 11
-3.212063190171272
 21
180
  0
SOLID
  5
C2
100
AcDbEntity
  8
dimensions
  6
ByBlock
 62
    0
370
   -2
100
AcDbTrace
 10
-3.21206319017127
 20
213
 30
0
 11
-2.795778532398429
 21
210.5
 31
0
 12
-3.62834784794411
 22
210.5
 32
0
 13
-3.62834784794411
 23
210.5
 33
0
  0
SOLID
  5
C3
100
AcDbEntity
  8
dimensions
  6
ByBlock
 62
    0
370
   -2
100
AcDbTrace
 10
-3.212063190171272
 20
180
 30
0
 11
-3.628347847944112
 21
182.5
 31
0
 12
-2.795778532398431
 22
182.5
 32
0
 13
-2.795778532398431
 23
182.5
 33
0
  0
MTEXT
  5
C4
100
AcDbEntity
  8
dimensions
  6
CONTINUOUS
 62
    0
370
   -2
100
AcDbMText
 10
-4.71206319017127
 20
196.5
 30
0
 40
2.5
 41
7.916666666666666
 71
    5
 72
    1
  1
2'-9"
  7
standard
210
0
220
0
230
1
 50
90
 73
    2
 44
1
  0
LINE
  5
C5
100
AcDbEntity
  8
dimensions
  6
ByBlock
 62
    0
370
   -2
100
AcDbLine
 10
-0.249999999999987
 20
213
 11
-3.262063190171269
 21
213
  0
LINE
  5
C6
100
AcDbEntity
  8
dimensions
  6
ByBlock
 62
    0
370
   -2
100
AcDbLine
 10
-0.249999999999989
 20
180
 11
-3.262063190171272
 21
180
  0
ENDBLK
  5
72
330
70
100
AcDbEntity
  8
0
100
AcDbBlockEnd
  0
BLOCK
  5
74
330
73
100
AcDbEntity
  8
0
100
AcDbBlockBegin
  2
*D3
 70
    1
 10
0
 20
0
  3
*D3
  1

  0
LINE
  5
C7
100
AcDbEntity
  8
dimensions
  6
ByBlock
 62
    0
370
   -2
100
AcDbLine
 10
0
 20
-5.347264437689969
 11
48
 21
-5.347264437689969
  0
SOLID
  5
C8
100
AcDbEntity
  8
dimensions
  6
ByBlock
 62
    0
370
   -2
100
AcDbTrace
 10
0
 20
-5.347264437689969
 30
0
 11
2.5
 21
-4.930979779917129
 31
0
 12
2.5
 22
-5.763549095462809
 32
0
 13
2.5
 23
-5.763549095462809
 33
0
  0
SOLID
  5
C9
100
AcDbEntity
  8
dimensions
  6
ByBlock
 62
    0
370
   -2
100
AcDbTrace
 10
48
 20
-5.347264437689969
 30
0
 11
45.5
 21
-5.763549095462809
 31
0
 12
45.5
 22
-4.930979779917128
 32
0
 13
45.5
 23
-4.930979779917128
 33
0
  0
MTEXT
  5
CA
100
AcDbEntity
  8
dimensions
  6
CONTINUOUS
 62
    0
370
   -2
100
AcDbMText
 10
24
 20
-3.847264437689969
 30
0
 40
2.5
 41
8.194444444444445
 71
    5
 72
    1
  1
4'-0"
  7
standard
210
0
220
0
230
1
 50
0
 73
    2
 44
1
  0
LINE
  5
CB
100
AcDbEntity
  8
dimensions
  6
ByBlock
 62
    0
370
   -2
100
AcDbLine
 10
-4.592425496802574e-17
 20
-0.25
 11
-9.184850993605149e-18
 21
-5.397264437689969
  0
LINE
  5
CC
100
AcDbEntity
  8
dimensions
  6
ByBlock
 62
    0
370
   -2
100
AcDbLine
 10
48
 20
-0.2500000000000118
 11
48
 21
-5.397264437689969
  0
ENDBLK
  5
75
330
73
100
AcDbEntity
  8
0
100
AcDbBlockEnd
  0
BLOCK
  5
77
330
76
100
AcDbEntity
  8
0
100
AcDbBlockBegin
  2
*D14
 70
    1
 10
0
 20
0
  3
*D14
  1

  0
LINE
  5
CD
100
AcDbEntity
  8
dimensions
  6
ByBlock
 62
    0
370
   -2
100
AcDbLine
 10
-3.390511145180787
 20
284.25
 11
-3.39051114518079
 21
240
  0
SOLID
  5
CE
100
AcDbEntity
  8
dimensions
  6
ByBlock
 62
    0
370
   -2
100
AcDbTrace
 10
-3.390511145180787
 20
284.25
 30
0
 11
-2.974226487407947
 21
281.75
 31
0
 12
-3.806795802953628
 22
281.75
 32
0
 13
-3.806795802953628
 23
281.75
 33
0
  0
SOLID
  5
CF
100
AcDbEntity
  8
dimensions
  6
ByBlock
 62
    0
370
   -2
100
AcDbTrace
 10
-3.39051114518079
 20
240
 30
0
 11
-3.80679580295363
 21
242.5
 31
0
 12
-2.974226487407949
 22
242.5
 32
0
 13
-2.974226487407949
 23
242.5
 33
0
  0
MTEXT
  5
D0
100
AcDbEntity
  8
dimensions
  6
CONTINUOUS
 62
    0
370
   -2
100
AcDbMText
 10
-4.890511145180788
 20
262.125
 30
0
 40
2.5
 41
15.34722222222238
 71
    5
 72
    1
  1
3'-8 1/4"
  7
standard
210
0
220
0
230
1
 50
90
 73
    2
 44
1
  0
LINE
  5
D1
100
AcDbEntity
  8
dimensions
  6
ByBlock
 62
    0
370
   -2
100
AcDbLine
 10
-0.2499999999999826
 20
284.25
 11
-3.440511145180787
 21
284.25
  0
LINE
  5
D2
100
AcDbEntity
  8
dimensions
  6
ByBlock
 62
    0
370
   -2
100
AcDbLine
 10
-0.2499999999999853
 20
240
 11
-3.440511145180789
 21
240
  0
ENDBLK
  5
78
330
76
100
AcDbEntity
  8
0
100
AcDbBlockEnd
  0
BLOCK
  5
7A
330
79
100
AcDbEntity
  8
0
100
AcDbBlockBegin
  2
*D8
 70
    1
 10
0
 20
0
  3
*D8
  1

  0
LINE
  5
D3
100
AcDbEntity
  8
dimensions
  6
ByBlock
 62
    0
370
   -2
100
AcDbLine
 10
78.75
 20
53.17749059283553
 11
61.5
 21
53.17749059283553
  0
SOLID
  5
D4
100
AcDbEntity
  8
dimensions
  6
ByBlock
 62
    0
370
   -2
100
AcDbTrace
 10
78.75
 20
53.17749059283553
 30
0
 11
76.25
 21
52.76120593506269
 31
0
 12
76.25
 22
53.59377525060837
 32
0
 13
76.25
 23
53.59377525060837
 33
0
  0
SOLID
  5
D5
100
AcDbEntity
  8
dimensions
  6
ByBlock
 62
    0
370
   -2
100
AcDbTrace
 10
61.5
 20
53.17749059283553
 30
0
 11
64
 21
53.59377525060837
 31
0
 12
64
 22
52.76120593506269
 32
0
 13
64
 23
52.76120593506269
 33
0
  0
MTEXT
  5
D6
100
AcDbEntity
  8
dimensions
  6
CONTINUOUS
 62
    0
370
   -2
100
AcDbMText
 10
70.125
 20
54.67749059283553
 30
0
 40
2.5
 41
14.79166666666682
 71
    5
 72
    1
  1
1'-5 1/4"
  7
standard
210
0
220
0
230
1
 50
360
 73
    2
 44
1
  0
LINE
  5
D7
100
AcDbEntity
  8
dimensions
  6
ByBlock
 62
    0
370
   -2
100
AcDbLine
 10
78.75
 20
59.75
 11
78.75
 21
53.12749059283554
  0
LINE
  5
D8
100
AcDbEntity
  8
dimensions
  6
ByBlock
 62
    0
370
   -2
100
AcDbLine
 10
61.5
 20
59.75
 11
61.5
 21
53.12749059283554
  0
ENDBLK
  5
7B
330
79
100
AcDbEntity
  8
0
100
AcDbBlockEnd
  0
BLOCK
  5
7D
330
7C
100
AcDbEntity
  8
0
100
AcDbBlockBegin
  2
*D11
 70
    1
 10
0
 20
0
  3
*D11
  1

  0
LINE
  5
D9
100
AcDbEntity
  8
dimensions
  6
ByBlock
 62
    0
370
   -2
100
AcDbLine
 10
1.4210854715202e-14
 20
174.7420350711183
 11
65.25000000000001
 21
174.7420350711183
  0
SOLID
  5
DA
100
AcDbEntity
  8
dimensions
  6
ByBlock
 62
    0
370
   -2
100
AcDbTrace
 10
1.4210854715202e-14
 20
174.7420350711183
 30
0
 11
2.500000000000014
 21
175.1583197288911
 31
0
 12
2.500000000000014
 22
174.3257504133454
 32
0
 13
2.500000000000014
 23
174.3257504133454
 33
0
  0
SOLID
  5
DB
100
AcDbEntity
  8
dimensions
  6
ByBlock
 62
    0
370
   -2
100
AcDbTrace
 10
65.25000000000001
 20
174.7420350711183
 30
0
 11
62.75000000000001
 21
174.3257504133454
 31
0
 12
62.75000000000001
 22
175.1583197288911
 32
0
 13
62.75000000000001
 23
175.1583197288911
 33
0
  0
MTEXT
  5
DC
100
AcDbEntity
  8
dimensions
  6
CONTINUOUS
 62
    0
370
   -2
100
AcDbMText
 10
32.62500000000002
 20
176.2420350711183
 30
0
 40
2.5
 41
15.34722222222253
 71
    5
 72
    1
  1
5'-5 1/4"
  7
standard
210
0
220
0
230
1
 50
0
 73
    2
 44
1
  0
LINE
  5
DD
100
AcDbEntity
  8
dimensions
  6
ByBlock
 62
    0
370
   -2
100
AcDbLine
 10
1.097589693735815e-14
 20
179.75
 11
1.42016698642084e-14
 21
174.6920350711183
  0
LINE
  5
DE
100
AcDbEntity
  8
dimensions
  6
ByBlock
 62
    0
370
   -2
100
AcDbLine
 10
65.25000000000001
 20
179.75
 11
65.25000000000001
 21
174.6920350711183
  0
ENDBLK
  5
7E
330
7C
100
AcDbEntity
  8
0
100
AcDbBlockEnd
  0
ENDSEC
  0
SECTION
  2
ENTITIES
  0
LINE
  5
DF
100
AcDbEntity
  8
0
  6
ByLayer
 62
  256
370
   -1
100
AcDbLine
 10
0
 20
0
 11
96
 21
0
  0
LINE
  5
E0
100
AcDbEntity
  8
0
  6
ByLayer
 62
  256
370
   -1
100
AcDbLine
 10
2.939152317953648e-15
 20
48
 11
96
 21
48
  0
LINE
  5
E1
100
AcDbEntity
  8
0
  6
ByLayer
 62
  256
370
   -1
100
AcDbLine
 10
2.939152317953648e-15
 20
48
 11
0
 21
0
  0
LINE
  5
E2
100
AcDbEntity
  8
0
  6
ByLayer
 62
  256
370
   -1
100
AcDbLine
 10
96
 20
48
 11
96
 21
0
  0
LINE
  5
E3
100
AcDbEntity
  8
cuts
  6
ByLayer
 62
  256
370
   -1
100
AcDbLine
 10
48
 20
47.99999999999999
 11
48
 21
-1.175660927181459e-14
  0
LINE
  5
E4
100
AcDbEntity
  8
0
  6
ByLayer
 62
  256
370
   -1
100
AcDbLine
 10
3.673940397442059e-15
 20
60
 11
96
 21
60
  0
LINE
  5
E5
100
AcDbEntity
  8
0
  6
ByLayer
 62
  256
370
   -1
100
AcDbLine
 10
6.613092715395707e-15
 20
108
 11
96
 21
108
  0
LINE
  5
E6
100
AcDbEntity
  8
0
  6
ByLayer
 62
  256
370
   -1
100
AcDbLine
 10
6.613092715395707e-15
 20
108
 11
3.673940397442059e-15
 21
60
  0
LINE
  5
E7
100
AcDbEntity
  8
0
  6
ByLayer
 62
  256
370
   -1
100
AcDbLine
 10
96
 20
60
 11
96
 21
108
  0
LINE
  5
E8
100
AcDbEntity
  8
cuts
  6
ByLayer
 62
  256
370
   -1
100
AcDbLine
 10
48.00000000000001
 20
108
 11
48.00000000000001
 21
59.99999999999999
  0
MTEXT
  5
E9
100
AcDbEntity
  8
dimensions
  6
ByLayer
 62
  256
370
   -1
100
AcDbMText
 10
13.25
 20
87.25
 30
0
 40
3
 41
23.91666666666681
 71
    1
 72
    1
  1
Front Upper
  7

210
0
220
0
230
1
 50
0
 73
    2
 44
1
  0
MTEXT
  5
EA
100
AcDbEntity
  8
dimensions
  6
ByLayer
 62
  256
370
   -1
100
AcDbMText
 10
14.75
 20
26.25
 30
0
 40
3
 41
22.25000000000014
 71
    1
 72
    1
  1
Back Upper
  7

210
0
220
0
230
1
 50
0
 73
    2
 44
1
  0
LINE
  5
EB
100
AcDbEntity
  8
cuts
  6
ByLayer
 62
  256
370
   -1
100
AcDbLine
 10
48.75
 20
48.00000000000001
 11
48.75
 21
1.735936837791373e-14
  0
LINE
  5
EC
100
AcDbEntity
  8
cuts
  6
ByLayer
 62
  256
370
   -1
100
AcDbLine
 10
48.75
 20
33
 11
96
 21
33
  0
MTEXT
  5
ED
100
AcDbEntity
  8
dimensions
  6
ByLayer
 62
  256
370
   -1
100
AcDbMText
 10
65
 20
20
 30
0
 40
3
 41
15.58333333333347
 71
    1
 72
    1
  1
Top Cap
  7

210
0
220
0
230
1
 50
0
 73
    2
 44
1
  0
DIMENSION
  5
EE
100
AcDbEntity
  8
dimensions
  6
ByLayer
 62
  256
370
   -1
100
AcDbDimension
  2
*D1
 10
102.6329787234043
 20
-8.123056162429528e-16
 30
0
 11
101.1329787234043
 21
16.5
 31
0
 70
   32
 71
    5
  3
Standard
 53
0
210
0
220
0
230
1
100
AcDbAlignedDimension
 13
96
 23
33
 33
0
 14
96
 24
0
 34
0
 50
90
100
AcDbRotatedDimension
  0
DIMENSION
  5
EF
100
AcDbEntity
  8
dimensions
  6
ByLayer
 62
  256
370
   -1
100
AcDbDimension
  2
*D2
 10
96
 20
-5.433510638297872
 30
0
 11
72.375
 21
-3.933510638297872
 31
0
 70
   32
 71
    5
  3
Standard
 53
0
210
0
220
0
230
1
100
AcDbAlignedDimension
 13
48.75
 23
0
 33
0
 14
96
 24
0
 34
0
100
AcDbRotatedDimension
  0
DIMENSION
  5
F0
100
AcDbEntity
  8
dimensions
  6
ByLayer
 62
  256
370
   -1
100
AcDbDimension
  2
*D3
 10
48
 20
-5.347264437689969
 30
0
 11
24
 21
-3.847264437689969
 31
0
 70
   32
 71
    5
  3
Standard
 53
0
210
0
220
0
230
1
100
AcDbAlignedDimension
 13
0
 23
0
 33
0
 14
48
 24
-1.175660927181459e-14
 34
0
100
AcDbRotatedDimension
  0
DIMENSION
  5
F1
100
AcDbEntity
  8
dimensions
  6
ByLayer
 62
  256
370
   -1
100
AcDbDimension
  2
*D4
 10
-3.104863221884497
 20
48
 30
0
 11
-4.604863221884498
 21
24
 31
0
 70
   32
 71
    5
  3
Standard
 53
0
210
0
220
0
230
1
100
AcDbAlignedDimension
 13
0
 23
0
 33
0
 14
2.939152317953648e-15
 24
48
 34
0
 50
90
100
AcDbRotatedDimension
  0
DIMENSION
  5
F2
100
AcDbEntity
  8
dimensions
  6
ByLayer
 62
  256
370
   -1
100
AcDbDimension
  2
*D5
 10
-5.174990695275944
 20
60
 30
0
 11
-6.674990695275943
 21
84
 31
0
 70
   32
 71
    5
  3
Standard
 53
0
210
0
220
0
230
1
100
AcDbAlignedDimension
 13
6.613092715395707e-15
 23
108
 33
0
 14
3.673940397442059e-15
 24
60
 34
0
 50
90
100
AcDbRotatedDimension
  0
DIMENSION
  5
F3
100
AcDbEntity
  8
dimensions
  6
ByLayer
 62
  256
370
   -1
100
AcDbDimension
  2
*D6
 10
48.00000000000001
 20
54.78352218792117
 30
0
 11
24.00000000000001
 21
56.28352218792117
 31
0
 70
   32
 71
    5
  3
Standard
 53
0
210
0
220
0
230
1
100
AcDbAlignedDimension
 13
3.673940397442059e-15
 23
60
 33
0
 14
48.00000000000001
 24
59.99999999999999
 34
0
100
AcDbRotatedDimension
  0
LINE
  5
F4
100
AcDbEntity
  8
cuts
  6
ByLayer
 62
  256
370
   -1
100
AcDbLine
 10
78.75
 20
60
 11
78.75
 21
108
  0
LINE
  5
F5
100
AcDbEntity
  8
cuts
  6
ByLayer
 62
  256
370
   -1
100
AcDbLine
 10
61.5
 20
60
 11
61.5
 21
108
  0
MTEXT
  5
F6
100
AcDbEntity
  8
dimensions
  6
ByLayer
 62
  256
370
   -1
100
AcDbMText
 10
85.83346635957682
 20
73.16366155390124
 30
0
 40
3
 41
23.91666666666681
 71
    1
 72
    1
  1
Front Upper
  7

210
0
220
0
230
1
 50
90
 73
    2
 44
1
  0
MTEXT
  5
F7
100
AcDbEntity
  8
dimensions
  6
ByLayer
 62
  256
370
   -1
100
AcDbMText
 10
68.70246267866335
 20
71.20073404879656
 30
0
 40
3
 41
24.25000000000014
 71
    1
 72
    1
  1
Front Lower
  7

210
0
220
0
230
1
 50
90
 73
    2
 44
1
  0
DIMENSION
  5
F8
100
AcDbEntity
  8
dimensions
  6
ByLayer
 62
  256
370
   -1
100
AcDbDimension
  2
*D7
 10
78.75
 20
52.99904263782602
 30
0
 11
87.375
 21
54.49904263782602
 31
0
 70
   32
 71
    5
  3
Standard
 53
0
210
0
220
0
230
1
100
AcDbAlignedDimension
 13
96
 23
60
 33
0
 14
78.75
 24
60
 34
0
100
AcDbRotatedDimension
  0
DIMENSION
  5
F9
100
AcDbEntity
  8
dimensions
  6
ByLayer
 62
  256
370
   -1
100
AcDbDimension
  2
*D8
 10
61.5
 20
53.17749059283553
 30
0
 11
70.125
 21
54.67749059283553
 31
0
 70
   32
 71
    5
  3
Standard
 53
0
210
0
220
0
230
1
100
AcDbAlignedDimension
 13
78.75
 23
60
 33
0
 14
61.5
 24
60
 34
0
100
AcDbRotatedDimension
  0
LINE
  5
FA
100
AcDbEntity
  8
0
  6
ByLayer
 62
  256
370
   -1
100
AcDbLine
 10
7.347880794884118e-15
 20
120
 11
96
 21
120
  0
LINE
  5
FB
100
AcDbEntity
  8
0
  6
ByLayer
 62
  256
370
   -1
100
AcDbLine
 10
1.028703311283777e-14
 20
168
 11
96
 21
168
  0
LINE
  5
FC
100
AcDbEntity
  8
0
  6
ByLayer
 62
  256
370
   -1
100
AcDbLine
 10
1.028703311283777e-14
 20
168
 11
7.347880794884118e-15
 21
120
  0
LINE
  5
FD
100
AcDbEntity
  8
0
  6
ByLayer
 62
  256
370
   -1
100
AcDbLine
 10
96
 20
120
 11
96
 21
168
  0
LINE
  5
FE
100
AcDbEntity
  8
cuts
  6
ByLayer
 62
  256
370
   -1
100
AcDbLine
 10
9.368548013477251e-15
 20
153
 11
65.25000000000001
 21
153
  0
LINE
  5
FF
100
AcDbEntity
  8
cuts
  6
ByLayer
 62
  256
370
   -1
100
AcDbLine
 10
65.25000000000001
 20
153
 11
65.25000000000001
 21
120
  0
DIMENSION
  5
100
100
AcDbEntity
  8
dimensions
  6
ByLayer
 62
  256
370
   -1
100
AcDbDimension
  2
*D9
 10
65.25000000000001
 20
114.7420350711183
 30
0
 11
32.62500000000001
 21
116.2420350711183
 31
0
 70
   32
 71
    5
  3
Standard
 53
0
210
0
220
0
230
1
100
AcDbAlignedDimension
 13
7.347880794884118e-15
 23
120
 33
0
 14
65.25000000000001
 24
120
 34
0
100
AcDbRotatedDimension
  0
DIMENSION
  5
101
100
AcDbEntity
  8
dimensions
  6
ByLayer
 62
  256
370
   -1
100
AcDbDimension
  2
*D10
 10
-3.212063190171275
 20
120
 30
0
 11
-4.712063190171274
 21
136.5
 31
0
 70
   32
 71
    5
  3
Standard
 53
0
210
0
220
0
230
1
100
AcDbAlignedDimension
 13
9.368548013477251e-15
 23
153
 33
0
 14
7.347880794884118e-15
 24
120
 34
0
 50
90
100
AcDbRotatedDimension
  0
LINE
  5
102
100
AcDbEntity
  8
cuts
  6
ByLayer
 62
  256
370
   -1
100
AcDbLine
 10
1.102182119232618e-14
 20
180
 11
96
 21
180
  0
LINE
  5
103
100
AcDbEntity
  8
0
  6
ByLayer
 62
  256
370
   -1
100
AcDbLine
 10
1.102182119232618e-14
 20
180
 11
96
 21
180
  0
LINE
  5
104
100
AcDbEntity
  8
0
  6
ByLayer
 62
  256
370
   -1
100
AcDbLine
 10
1.396097351027982e-14
 20
228
 11
96
 21
228
  0
LINE
  5
105
100
AcDbEntity
  8
0
  6
ByLayer
 62
  256
370
   -1
100
AcDbLine
 10
1.396097351027982e-14
 20
228
 11
1.102182119232618e-14
 21
180
  0
LINE
  5
106
100
AcDbEntity
  8
0
  6
ByLayer
 62
  256
370
   -1
100
AcDbLine
 10
96
 20
180
 11
96
 21
228
  0
LINE
  5
107
100
AcDbEntity
  8
cuts
  6
ByLayer
 62
  256
370
   -1
100
AcDbLine
 10
1.304248841091931e-14
 20
213
 11
65.25000000000001
 21
213
  0
LINE
  5
108
100
AcDbEntity
  8
cuts
  6
ByLayer
 62
  256
370
   -1
100
AcDbLine
 10
65.25000000000001
 20
213
 11
65.25000000000001
 21
180
  0
DIMENSION
  5
109
100
AcDbEntity
  8
dimensions
  6
ByLayer
 62
  256
370
   -1
100
AcDbDimension
  2
*D11
 10
65.25000000000001
 20
174.7420350711183
 30
0
 11
32.62500000000002
 21
176.2420350711183
 31
0
 70
   32
 71
    5
  3
Standard
 53
0
210
0
220
0
230
1
100
AcDbAlignedDimension
 13
1.102182119232618e-14
 23
180
 33
0
 14
65.25000000000001
 24
180
 34
0
100
AcDbRotatedDimension
  0
DIMENSION
  5
10A
100
AcDbEntity
  8
dimensions
  6
ByLayer
 62
  256
370
   -1
100
AcDbDimension
  2
*D12
 10
-3.212063190171272
 20
180
 30
0
 11
-4.71206319017127
 21
196.5
 31
0
 70
   32
 71
    5
  3
Standard
 53
0
210
0
220
0
230
1
100
AcDbAlignedDimension
 13
1.304248841091931e-14
 23
213
 33
0
 14
1.102182119232618e-14
 24
180
 34
0
 50
90
100
AcDbRotatedDimension
  0
MTEXT
  5
10B
100
AcDbEntity
  8
dimensions
  6
ByLayer
 62
  256
370
   -1
100
AcDbMText
 10
22.66289028620843
 20
137.0480294473077
 30
0
 40
3
 41
18.24999936399355
 71
    1
 72
    1
  1
Left Side
  7

210
0
220
0
230
1
 50
0
 73
    2
 44
1
  0
MTEXT
  5
10C
100
AcDbEntity
  8
dimensions
  6
ByLayer
 62
  256
370
   -1
100
AcDbMText
 10
21.94909846617037
 20
198.2556780155714
 30
0
 40
3
 41
19.9166660306605
 71
    1
 72
    1
  1
RIght Side
  7

210
0
220
0
230
1
 50
0
 73
    2
 44
1
  0
LINE
  5
10D
100
AcDbEntity
  8
0
  6
ByLayer
 62
  256
370
   -1
100
AcDbLine
 10
1.469576158976824e-14
 20
240
 11
96
 21
240
  0
LINE
  5
10E
100
AcDbEntity
  8
0
  6
ByLayer
 62
  256
370
   -1
100
AcDbLine
 10
1.763491390772188e-14
 20
288
 11
96
 21
288
  0
LINE
  5
10F
100
AcDbEntity
  8
0
  6
ByLayer
 62
  256
370
   -1
100
AcDbLine
 10
1.763491390772188e-14
 20
288
 11
1.469576158976824e-14
 21
240
  0
LINE
  5
110
100
AcDbEntity
  8
0
  6
ByLayer
 62
  256
370
   -1
100
AcDbLine
 10
96
 20
240
 11
96
 21
288
  0
MTEXT
  5
111
100
AcDbEntity
  8
dimensions
  6
ByLayer
 62
  256
370
   -1
100
AcDbMText
 10
8.565501840456729
 20
266.4227968292062
 30
0
 40
3
 41
19.24999936399369
 71
    1
 72
    1
  1
Top Shelf
  7

210
0
220
0
230
1
 50
0
 73
    2
 44
1
  0
LINE
  5
112
100
AcDbEntity
  8
cuts
  6
ByLayer
 62
  256
370
   -1
100
AcDbLine
 10
1.740529263288176e-14
 20
284.25
 11
33.00000000000001
 21
284.25
  0
LINE
  5
113
100
AcDbEntity
  8
cuts
  6
ByLayer
 62
  256
370
   -1
100
AcDbLine
 10
33.00000000000001
 20
284.25
 11
33.00000000000001
 21
240
  0
DIMENSION
  5
114
100
AcDbEntity
  8
dimensions
  6
ByLayer
 62
  256
370
   -1
100
AcDbDimension
  2
*D13
 10
33.00000000000001
 20
234.1237169724839
 30
0
 11
16.50000000000001
 21
235.6237169724839
 31
0
 70
   32
 71
    5
  3
Standard
 53
0
210
0
220
0
230
1
100
AcDbAlignedDimension
 13
1.469576158976824e-14
 23
240
 33
0
 14
33.00000000000001
 24
240
 34
0
100
AcDbRotatedDimension
  0
DIMENSION
  5
115
100
AcDbEntity
  8
dimensions
  6
ByLayer
 62
  256
370
   -1
100
AcDbDimension
  2
*D14
 10
-3.39051114518079
 20
240
 30
0
 11
-4.890511145180788
 21
262.125
 31
0
 70
   32
 71
    5
  3
Standard
 53
0
210
0
220
0
230
1
100
AcDbAlignedDimension
 13
1.740529263288176e-14
 23
284.25
 33
0
 14
1.469576158976824e-14
 24
240
 34
0
 50
90
100
AcDbRotatedDimension
  0
LINE
  5
116
100
AcDbEntity
  8
cuts
  6
ByLayer
 62
  256
370
   -1
100
AcDbLine
 10
1.304248841091931e-14
 20
213
 11
96
 21
213
  0
LINE
  5
117
100
AcDbEntity
  8
cuts
  6
ByLayer
 62
  256
370
   -1
100
AcDbLine
 10
66
 20
180
 11
66
 21
213
  0
MTEXT
  5
118
100
AcDbEntity
  8
dimensions
  6
ByLayer
 62
  256
370
   -1
100
AcDbMText
 10
72.09297382384415
 20
200.5755014306951
 30
0
 40
3
 41
18.33333487619493
 71
    1
 72
    1
  1
Reservoir\PShelf
  7

210
0
220
0
230
1
 50
0
 73
    2
 44
1
  0
DIMENSION
  5
119
100
AcDbEntity
  8
dimensions
  6
ByLayer
 62
  256
370
   -1
100
AcDbDimension
  2
*D15
 10
96
 20
174.7005479543154
 30
0
 11
81
 21
176.2005479543154
 31
0
 70
   32
 71
    5
  3
Standard
 53
0
210
0
220
0
230
1
100
AcDbAlignedDimension
 13
66
 23
180
 33
0
 14
96
 24
180
 34
0
100
AcDbRotatedDimension
  0
DIMENSION
  5
11A
100
AcDbEntity
  8
dimensions
  6
ByLayer
 62
  256
370
   -1
100
AcDbDimension
  2
*D16
 10
101.3584384454046
 20
180
 30
0
 11
99.85843844540464
 21
196.5
 31
0
 70
   32
 71
    5
  3
Standard
 53
0
210
0
220
0
230
1
100
AcDbAlignedDimension
 13
96
 23
213
 33
0
 14
96
 24
180
 34
0
 50
90
100
AcDbRotatedDimension
  0
ENDSEC
  0
SECTION
  2
OBJECTS
  0
DICTIONARY
  5
C
330
0
100
AcDbDictionary
281
    1
  3
ACAD_GROUP
350
D
  0
DICTIONARY
  5
D
330
C
100
AcDbDictionary
281
    1
  0
ENDSEC
  0
EOF
